<?xml version="1.0" encoding="utf-8"?>
<!-- Generator: Adobe Illustrator 21.1.0, SVG Export Plug-In . SVG Version: 6.00 Build 0)  -->
<svg version="1.1" id="Layer_1" xmlns="http://www.w3.org/2000/svg" xmlns:xlink="http://www.w3.org/1999/xlink" x="0px" y="0px"
	 viewBox="0 0 2656.6 807.4" style="enable-background:new 0 0 2656.6 807.4;" xml:space="preserve">
<style type="text/css">
	.st0{fill:none;}
	.st1{opacity:0.45;fill:#73B7EA;enable-background:new    ;}
	.st2{fill:none;stroke:#000000;stroke-width:8;stroke-miterlimit:10;}
	.st3{fill:none;stroke:#000000;stroke-width:5;stroke-miterlimit:10;}
	.st4{fill:none;stroke:#000000;stroke-width:3;stroke-miterlimit:10;}
	.st5{font-family:'ArialMT';}
	.st6{font-size:26.1643px;}
	.st7{font-size:52.3286px;}
	.st8{fill:none;stroke:#000000;stroke-width:4;stroke-miterlimit:10;}
	.st9{font-size:40.3678px;}
</style>
<image style="display:none;overflow:visible;enable-background:new    ;" width="3101" height="2769" xlink:href="D9B47188469FADF5.jpeg"  transform="matrix(9.893850e-02 0 0 9.886042e-02 3033.5532 1017.4361)">
</image>
<image style="display:none;overflow:visible;enable-background:new    ;" width="3101" height="3212" xlink:href="D9B47188469FADF7.jpeg"  transform="matrix(9.892189e-02 0 0 9.909091e-02 3394.4324 979.8266)">
</image>
<line class="st0" x1="1762.9" y1="151.8" x2="1762.9" y2="2168.5"/>
<image style="display:none;overflow:visible;enable-background:new    ;" width="4032" height="3024" xlink:href="D9B47188469FADF5.jpeg"  transform="matrix(0.4513 8.644830e-03 -8.455190e-03 0.4414 6181.123 378.2603)">
</image>
<rect x="503.7" class="st1" width="2152.9" height="807.4"/>
<g>
	<path class="st2" d="M905.3,176.6c0,0-45.4-2.5-81.7,24.5C791.1,225.4,724.1,308.6,736,417s108,219.8,169.2,219.8"/>
	<path class="st2" d="M905.3,543.2c-48.1-3.4-61-22.2-75.7-38.6c-0.1-11.6-0.7-35,0-90.6c0,0-11.2-76.1-9.6-106.8
		c1.8-35.8,38.4-89.1,85.2-89.1"/>
	<path class="st2" d="M905.3,176.6c0,0,45.4-2.5,81.7,24.5c32.5,24.3,99.5,107.5,87.6,215.9S966.7,636.8,905.5,636.8"/>
	<path class="st2" d="M905.3,543.2c48.1-3.4,61-22.2,75.7-38.6c0.1-11.6,0.7-35,0-90.6c0,0,11.2-76.1,9.6-106.8
		c-1.8-35.8-38.4-89.1-85.2-89.1"/>
</g>
<g>
	<path class="st3" d="M989.1,296.1c-18.6-25.2-137-22.3-167.1-2.1"/>
	<path class="st3" d="M978.8,269.4c-25.5-19.1-124-16.1-148.5,3"/>
</g>
<g>
	<g>
		<line class="st4" x1="658.1" y1="181.3" x2="658.1" y2="633.6"/>
		<g>
			<polygon points="645.8,191.3 648,193.3 658.1,182.5 668.2,193.3 670.4,191.3 658.1,178.1 			"/>
		</g>
		<g>
			<polygon points="645.8,623.6 648,621.6 658.1,632.4 668.2,621.6 670.4,623.6 658.1,636.8 			"/>
		</g>
	</g>
</g>
<text transform="matrix(1 0 0 1 574.3597 384.6152)" class="st5 st6">17 in</text>
<g>
	<g>
		<line class="st4" x1="737.9" y1="670.8" x2="1072.7" y2="670.8"/>
		<g>
			<polygon points="747.9,683 749.9,680.8 739.1,670.8 749.9,660.7 747.9,658.5 734.7,670.8 			"/>
		</g>
		<g>
			<polygon points="1062.8,683 1060.7,680.8 1071.6,670.8 1060.7,660.7 1062.8,658.5 1076,670.8 			"/>
		</g>
	</g>
</g>
<text transform="matrix(1 0 0 1 874.8755 701.5767)" class="st5 st6">12.5 in</text>
<g>
	<g>
		<line class="st4" x1="827.4" y1="305.7" x2="984.7" y2="305.7"/>
		<g>
			<polygon points="837.4,318 839.4,315.8 828.6,305.8 839.4,295.7 837.4,293.5 824.2,305.8 			"/>
		</g>
		<g>
			<polygon points="974.8,318 972.7,315.8 983.5,305.8 972.7,295.7 974.8,293.5 988,305.8 			"/>
		</g>
	</g>
</g>
<text transform="matrix(1 0 0 1 886.8363 342.7519)" class="st5 st6">6 in</text>
<g>
	<g>
		<line class="st4" x1="2442.6" y1="687.8" x2="2163.2" y2="687.8"/>
		<g>
			<polygon points="2432.7,675.6 2430.6,677.8 2441.4,687.8 2430.6,697.9 2432.7,700.1 2445.9,687.8 			"/>
		</g>
		<g>
			<polygon points="2173.1,675.6 2175.1,677.8 2164.3,687.8 2175.1,697.9 2173.1,700.1 2159.9,687.8 			"/>
		</g>
	</g>
</g>
<g>
	<g>
		<line class="st4" x1="2442.6" y1="687.8" x2="2163.2" y2="687.8"/>
		<g>
			<polygon points="2432.7,675.6 2430.6,677.8 2441.4,687.8 2430.6,697.9 2432.7,700.1 2445.9,687.8 			"/>
		</g>
		<g>
			<polygon points="2173.1,675.6 2175.1,677.8 2164.3,687.8 2175.1,697.9 2173.1,700.1 2159.9,687.8 			"/>
		</g>
	</g>
</g>
<text transform="matrix(1 0 0 1 830.2626 100.8408)" class="st5 st7">Front</text>
<text transform="matrix(1 0 0 1 1529.8759 83.2754)" class="st5 st7">Side</text>
<text transform="matrix(1 0 0 1 2261.958 67.2798)" class="st5 st7">Back</text>
<g>
	<path class="st2" d="M2157.8,604.8l41-171.9c0,0-25.6-76.9,6.4-155.2s140.3-106.4,182.1,0c22.4,56.9,22.4,56.9,24.4,155.2
		c0.5,23.1,13.1,56.5,35.9,183.4c0,0-1.3-9-68-28.2c0,0-39.9,47.9-82.7,50.5c-39.6-1.1-78.9-39.8-90.4-54.4
		C2206.5,584.3,2159.1,586.9,2157.8,604.8z"/>
	<path class="st8" d="M2189.2,370.6c0,0-35.3,202.2-31.4,234.3"/>
	<path class="st8" d="M2410.6,385.6c17.8,69.2,38,187.2,34.9,219.3"/>
	<path class="st2" d="M2212.5,451.6"/>
	<path class="st8" d="M2387.4,492.1c-13,58.6-46,100.2-84.7,100.2c-38.9,0-72.1-42.1-84.9-101.3"/>
	<path class="st8" d="M2393.2,444.7c-0.1,4-0.3,8.1-0.6,12"/>
	<path class="st8" d="M2213.2,414.2c6.7-74.4,44.2-132.7,89.5-132.7c45.9,0,83.7,58.4,89.8,134.3"/>
	<path class="st2" d="M2213.2,412.8"/>
	<path class="st2" d="M2212.8,417.2"/>
	<path class="st8" d="M2212.7,451c-0.1-2.4-0.2-4.7-0.3-7.1"/>
	<path class="st8" d="M2392.4,415.7c7.4,3.4,13.9,7.6,19.2,12.7"/>
	<path class="st8" d="M2211.8,414.5c37.1-9.8,129.9-22.2,180.6,1.2"/>
	<path class="st8" d="M2195.7,421.2c2.2-1.5,8.7-4.7,16.2-6.7"/>
	<path class="st2" d="M2187.1,482c22.7,18.2,198.4,19,233.9,2.5"/>
	<path class="st2" d="M2195.7,446.3"/>
	<path class="st2" d="M2414.1,452.4"/>
	<path class="st2" d="M2414.1,452.4c-79.1,18.8-184.4,7.9-218.5-6.1"/>
	<path class="st8" d="M2212.1,444.5c37.2-7.5,142.1-24.5,199.6,8.7"/>
	<path class="st8" d="M2198.5,447.4c0,0,5-1.2,13.5-2.9"/>
</g>
<g>
	<g>
		<line class="st4" x1="2494.6" y1="215.5" x2="2494.6" y2="636.8"/>
		<g>
			<polygon points="2482.3,225.4 2484.5,227.5 2494.6,216.7 2504.7,227.5 2506.9,225.4 2494.6,212.3 			"/>
		</g>
		<g>
			<polygon points="2482.3,626.9 2484.5,624.8 2494.6,635.6 2504.7,624.8 2506.9,626.9 2494.6,640 			"/>
		</g>
	</g>
</g>
<text transform="matrix(1 0 0 1 2534.9795 420.1338)" class="st5 st6">16 in</text>
<g>
	<path class="st2" d="M1846,260.1c0.3,0,0.3,0.2,0.6,0.3c18.6,10.2-65.7,425.2-109.8,427.5c-0.8,0,1.3,0,0,0c-2.1,0-3.9-1.6-5.4-3.9
		"/>
	<path class="st2" d="M1732.5,685.4c-17.6-11.5-88.4-42.4-128.5-72.8c-5-3.8-7.6-10-6.7-16.3l10-71.5
		c-106.3-35.4-182.4-63-192.7-74.7c-6-5.8,71.3-298.8,98.1-305.8l333.7,116.4c-41-14.1-144.5,378-115,423.2"/>
	<path class="st2" d="M1822.3,252.2"/>
	<path class="st2" d="M1489,181.1c-21.3-2.9-45.5-4.6-50.1,3.6c-8,14.3-12.3,42.9-12.2,42.3c1.9-6.6,16.3-13.6,50-7.7"/>
	<path class="st8" d="M1426.4,227.7c14.4,6.4,35.8,7.6,46.1,5.4"/>
	<g>
		<g>
			<line class="st4" x1="1893.5" y1="263.3" x2="1893.5" y2="684.6"/>
			<g>
				<polygon points="1881.3,273.2 1883.5,275.3 1893.5,264.5 1903.6,275.3 1905.8,273.2 1893.5,260.1 				"/>
			</g>
			<g>
				<polygon points="1881.3,674.7 1883.5,672.6 1893.5,683.4 1903.6,672.6 1905.8,674.7 1893.5,687.8 				"/>
			</g>
		</g>
	</g>
	<text transform="matrix(1 0 0 1 1933.9126 467.9321)" class="st5 st6">16 in</text>
	<g>
		<g>
			<line class="st4" x1="1395.5" y1="151.4" x2="1395.5" y2="446.9"/>
			<g>
				<polygon points="1383.2,161.4 1385.4,163.4 1395.5,152.6 1405.5,163.4 1407.7,161.4 1395.5,148.2 				"/>
			</g>
			<g>
				<polygon points="1383.2,436.9 1385.4,434.9 1395.5,445.7 1405.5,434.9 1407.7,436.9 1395.5,450.1 				"/>
			</g>
		</g>
	</g>
	<text transform="matrix(1 0 0 1 1332.8812 299.6982)" class="st5 st6">11 in</text>
	<g>
		<g>
			<line class="st4" x1="1615.7" y1="606.9" x2="1631.6" y2="527.7"/>
			<g>
				<polygon points="1629.7,599.6 1627.9,597.1 1615.9,605.8 1608.2,593.2 1605.6,594.7 1615,610.1 				"/>
			</g>
			<g>
				<polygon points="1641.6,539.9 1639.1,541.4 1631.4,528.8 1619.3,537.5 1617.6,535 1632.2,524.5 				"/>
			</g>
		</g>
	</g>
	<g>
		<g>
			<line class="st4" x1="1846.1" y1="237.4" x2="1531.3" y2="127.5"/>
			<g>
				<polygon points="1840.8,222.6 1838.1,224 1845,237 1831.5,243 1832.7,245.7 1849.2,238.5 				"/>
			</g>
			<g>
				<polygon points="1544.7,119.2 1545.9,122 1532.3,127.9 1539.3,141 1536.6,142.4 1528.2,126.4 				"/>
			</g>
		</g>
	</g>
	<text transform="matrix(1 0 0 1 1688.7158 153.0698)" class="st5 st6">12 in</text>
	<text transform="matrix(1 0 0 1 1631.5303 719.3364)" class="st5 st6">5 in</text>
	<g>
		<g>
			<line class="st4" x1="1721.3" y1="709.6" x2="1586.5" y2="631.8"/>
			<g>
				<polygon points="1718.8,694 1715.9,694.9 1720.3,709 1705.8,712.3 1706.5,715.3 1724.1,711.2 				"/>
			</g>
			<g>
				<polygon points="1601.2,626.1 1601.9,629.1 1587.5,632.4 1591.8,646.5 1589,647.4 1583.7,630.2 				"/>
			</g>
		</g>
	</g>
	<path class="st2" d="M1623,641.6"/>
	<g>
		<g>
			<line class="st4" x1="1586" y1="546.3" x2="1403.7" y2="468"/>
			<g>
				<polygon points="1581.7,531.1 1578.9,532.3 1584.9,545.9 1571,550.8 1572,553.7 1589,547.6 				"/>
			</g>
			<g>
				<polygon points="1417.7,460.7 1418.7,463.5 1404.8,468.5 1410.8,482 1408,483.2 1400.7,466.7 				"/>
			</g>
		</g>
	</g>
	<text transform="matrix(1 0 0 1 1436.2865 541.6006)" class="st5 st6">7 in</text>
	<text transform="matrix(1 0 0 1 1631.5303 584.2114)" class="st5 st6">3 in </text>
</g>
<g>
	<g>
		<line class="st4" x1="2442.6" y1="687.8" x2="2163.2" y2="687.8"/>
		<g>
			<polygon points="2432.7,675.6 2430.6,677.8 2441.4,687.8 2430.6,697.9 2432.7,700.1 2445.9,687.8 			"/>
		</g>
		<g>
			<polygon points="2173.1,675.6 2175.1,677.8 2164.3,687.8 2175.1,697.9 2173.1,700.1 2159.9,687.8 			"/>
		</g>
	</g>
</g>
<text transform="matrix(1 0 0 1 2261.958 729.9482)" class="st5 st6">10.5 in</text>
<g>
	<g>
		<line class="st4" x1="2375.4" y1="380" x2="2225.9" y2="380"/>
		<g>
			<polygon points="2365.5,367.8 2363.4,370 2374.2,380 2363.4,390.1 2365.5,392.3 2378.7,380 			"/>
		</g>
		<g>
			<polygon points="2235.8,367.8 2237.9,370 2227,380 2237.9,390.1 2235.8,392.3 2222.6,380 			"/>
		</g>
	</g>
</g>
<text transform="matrix(1 0 0 1 2285.5078 362.1172)" class="st5 st6">6 in</text>
<text transform="matrix(1 0 0 1 185.4594 83.2759)" class="st5 st7">The </text>
<text transform="matrix(1 0 0 1 168.0594 146.0759)" class="st5 st7">Focus</text>
<text transform="matrix(1 0 0 1 115.1594 208.8759)" class="st5 st7">Headpiece</text>
<rect x="97.1" y="314.9" class="st0" width="289.2" height="504.7"/>
<text transform="matrix(1 0 0 1 111.121 343.5908)" class="st5 st9">Funnel shaped</text>
<text transform="matrix(1 0 0 1 359.921 343.5908)" class="st5 st9">-</text>
<text transform="matrix(1 0 0 1 99.021 391.9908)" class="st5 st9">design and noise </text>
<text transform="matrix(1 0 0 1 102.021 440.4908)" class="st5 st9">cancelling mate</text>
<text transform="matrix(1 0 0 1 369.021 440.4908)" class="st5 st9">-</text>
<text transform="matrix(1 0 0 1 118.321 488.8908)" class="st5 st9">rial allows user </text>
<text transform="matrix(1 0 0 1 108.021 537.3908)" class="st5 st9">to keep their at</text>
<text transform="matrix(1 0 0 1 363.021 537.3908)" class="st5 st9">-</text>
<text transform="matrix(1 0 0 1 109.921 585.7908)" class="st5 st9">tention on their </text>
<text transform="matrix(1 0 0 1 199.721 634.1908)" class="st5 st9">work</text>
<rect x="97.1" y="40.5" class="st8" width="263.9" height="186.6"/>
</svg>
