<svg xmlns="http://www.w3.org/2000/svg" viewBox="0 0 792 879.69"><defs><style>.cls-1,.cls-10,.cls-2,.cls-3,.cls-4,.cls-5,.cls-6,.cls-7,.cls-9{fill:none;}.cls-1,.cls-10,.cls-11,.cls-2,.cls-3,.cls-4,.cls-5,.cls-6,.cls-7,.cls-9{stroke:#231f20;stroke-miterlimit:10;}.cls-1{stroke-dasharray:10;}.cls-2,.cls-3,.cls-5,.cls-6,.cls-7{stroke-width:2px;}.cls-2{stroke-dasharray:11.87 11.87;}.cls-3{stroke-dasharray:11.87 11.87;}.cls-4{stroke-width:3px;}.cls-5{stroke-dasharray:11.87 11.87;}.cls-6{stroke-dasharray:11.87 11.87;}.cls-7{stroke-dasharray:11.87 11.87;}.cls-11,.cls-8{fill:#fff;}.cls-10{stroke-dasharray:10.17 10.17;}.cls-12{font-size:36px;fill:#231f20;font-family:MyriadPro-Regular, Myriad Pro;}.cls-13{letter-spacing:-0.07em;}</style></defs><title>Views</title><g id="Layer_2" data-name="Layer 2"><rect class="cls-1" x="574.04" y="277.88" width="11.34" height="226.77" transform="translate(-92.53 198.29) rotate(-18)"/><rect class="cls-1" x="504.86" y="495.08" width="11.34" height="226.77" transform="translate(702.71 -162.21) rotate(54)"/><rect class="cls-1" x="275.91" y="496.17" width="11.34" height="226.77" transform="translate(940.24 740.04) rotate(126)"/><rect class="cls-1" x="205.35" y="276.39" width="11.34" height="226.77" transform="translate(291.27 825.68) rotate(-162)"/><rect class="cls-1" x="390.28" y="144.45" width="11.34" height="226.77" transform="translate(138.11 653.79) rotate(-90)"/><path class="cls-2" d="M622,606.39a113.38,113.38,0,0,1-226.53,7.29h0c-.16-2.41-.24-4.83-.24-7.28q0-3.42.21-6.78h0A113.45,113.45,0,0,1,536.29,496.41a111,111,0,0,1,15.13,4.94A113.42,113.42,0,0,1,622,606.39Z"/><path class="cls-3" d="M326.56,391.59a113.42,113.42,0,0,1-70.51,105,112.16,112.16,0,0,0-16.59,5.32A113.4,113.4,0,1,1,297.7,316a112.17,112.17,0,0,0,13.39,18.37A112.77,112.77,0,0,1,326.56,391.59Z"/><path class="cls-4" d="M256,496.58a112.18,112.18,0,0,1-16.59,5.32A112.16,112.16,0,0,1,256,496.58Z"/><path class="cls-4" d="M311.09,334.39A112.17,112.17,0,0,1,297.7,316,112.76,112.76,0,0,1,311.09,334.39Z"/><path class="cls-5" d="M395.51,613.67h0a113.38,113.38,0,1,1-156-111.78A112.18,112.18,0,0,0,256,496.58a113.45,113.45,0,0,1,139.43,103h0q-.21,3.36-.21,6.78C395.27,608.84,395.35,611.26,395.51,613.67Z"/><path class="cls-4" d="M256,496.58a112.18,112.18,0,0,1-16.59,5.32A112.16,112.16,0,0,1,256,496.58Z"/><path class="cls-4" d="M395.72,606.9c0,2.28-.07,4.53-.21,6.77-.16-2.41-.24-4.83-.24-7.28q0-3.42.21-6.78Q395.72,603.23,395.72,606.9Z"/><path class="cls-6" d="M692.43,391.36a113.46,113.46,0,0,1-141,110h0a110.56,110.56,0,0,1-15.1-4.93h0A113.45,113.45,0,0,1,482.9,331.23h0A112.74,112.74,0,0,1,491.78,319h0a113.39,113.39,0,0,1,200.65,72.41Z"/><path class="cls-7" d="M509,258.84A112.75,112.75,0,0,1,491.78,319h0a112.74,112.74,0,0,0-8.87,12.26h0a113.39,113.39,0,0,1-171.81,3.16A112.76,112.76,0,0,0,297.7,316,113.39,113.39,0,1,1,509,258.84Z"/><path class="cls-4" d="M297.7,316a112.76,112.76,0,0,1,13.39,18.37A112.17,112.17,0,0,1,297.7,316Z"/><path class="cls-4" d="M491.78,319a111.4,111.4,0,0,1-8.87,12.26A112.74,112.74,0,0,1,491.78,319Z"/><rect class="cls-8" x="374.58" y="238.47" width="42.52" height="42.52"/><polyline class="cls-9" points="417.1 274.99 417.1 280.99 411.1 280.99"/><line class="cls-10" x1="400.93" y1="280.99" x2="385.67" y2="280.99"/><polyline class="cls-9" points="380.58 280.99 374.58 280.99 374.58 274.99"/><line class="cls-10" x1="374.58" y1="264.82" x2="374.58" y2="249.56"/><polyline class="cls-9" points="374.58 244.47 374.58 238.47 380.58 238.47"/><line class="cls-10" x1="390.76" y1="238.47" x2="406.02" y2="238.47"/><polyline class="cls-9" points="411.1 238.47 417.1 238.47 417.1 244.47"/><line class="cls-10" x1="417.1" y1="254.64" x2="417.1" y2="269.9"/><circle class="cls-4" cx="396.43" cy="450.3" r="306.13"/><rect class="cls-11" x="381.12" y="63.98" width="28.35" height="193.04"/><rect class="cls-8" x="191.06" y="369.76" width="42.52" height="42.52" transform="translate(-225.18 472.12) rotate(-72)"/><polyline class="cls-9" points="233.4 375.52 239.1 377.37 237.25 383.08"/><line class="cls-10" x1="234.11" y1="392.76" x2="229.39" y2="407.27"/><polyline class="cls-9" points="227.82 412.11 225.97 417.81 220.26 415.96"/><line class="cls-10" x1="210.58" y1="412.82" x2="196.07" y2="408.1"/><polyline class="cls-9" points="191.23 406.53 185.53 404.67 187.38 398.97"/><line class="cls-10" x1="190.52" y1="389.29" x2="195.24" y2="374.78"/><polyline class="cls-9" points="196.81 369.94 198.67 364.24 204.37 366.09"/><line class="cls-10" x1="214.05" y1="369.23" x2="228.56" y2="373.95"/><rect class="cls-11" x="101.03" y="260.99" width="28.35" height="193.04" transform="translate(-260.41 356.6) rotate(-72)"/><rect class="cls-8" x="261.27" y="585.55" width="42.52" height="42.52" transform="translate(-374.45 478.71) rotate(-54)"/><polyline class="cls-9" points="274.3 581.97 277.83 577.11 282.69 580.64"/><line class="cls-10" x1="290.92" y1="586.62" x2="303.26" y2="595.59"/><polyline class="cls-9" points="307.38 598.58 312.23 602.11 308.7 606.96"/><line class="cls-10" x1="302.72" y1="615.19" x2="293.75" y2="627.54"/><polyline class="cls-9" points="290.76 631.65 287.24 636.5 282.38 632.98"/><line class="cls-10" x1="274.15" y1="627" x2="261.81" y2="618.03"/><polyline class="cls-9" points="257.69 615.04 252.84 611.51 256.37 606.66"/><line class="cls-10" x1="262.34" y1="598.43" x2="271.31" y2="586.08"/><rect class="cls-11" x="213.78" y="586.19" width="28.35" height="193.04" transform="translate(11.08 1369.01) rotate(-144)"/><rect class="cls-8" x="488.21" y="585.55" width="42.52" height="42.52" transform="translate(-259.37 415.35) rotate(-36)"/><polyline class="cls-9" points="483.3 606.96 479.77 602.11 484.62 598.58"/><line class="cls-10" x1="492.85" y1="592.6" x2="505.2" y2="583.63"/><polyline class="cls-9" points="509.31 580.64 514.17 577.11 517.7 581.97"/><line class="cls-10" x1="523.68" y1="590.2" x2="532.64" y2="602.54"/><polyline class="cls-9" points="535.63 606.66 539.16 611.51 534.31 615.04"/><line class="cls-10" x1="526.08" y1="621.02" x2="513.73" y2="629.99"/><polyline class="cls-9" points="509.62 632.98 504.76 636.5 501.24 631.65"/><line class="cls-10" x1="495.26" y1="623.42" x2="486.29" y2="611.08"/><rect class="cls-11" x="550.84" y="587.37" width="28.35" height="193.04" transform="translate(1424.1 905.07) rotate(144)"/><rect class="cls-8" x="556.67" y="367.38" width="42.52" height="42.52" transform="translate(-91.81 197.61) rotate(-18)"/><polyline class="cls-9" points="569.99 413.58 564.28 415.43 562.43 409.73"/><line class="cls-10" x1="559.28" y1="400.05" x2="554.57" y2="385.54"/><polyline class="cls-9" points="553 380.7 551.14 374.99 556.85 373.14"/><line class="cls-10" x1="566.52" y1="370" x2="581.04" y2="365.28"/><polyline class="cls-9" points="585.87 363.71 591.58 361.85 593.43 367.56"/><line class="cls-10" x1="596.58" y1="377.24" x2="601.29" y2="391.75"/><polyline class="cls-9" points="602.87 396.59 604.72 402.29 599.01 404.15"/><line class="cls-10" x1="589.34" y1="407.29" x2="574.82" y2="412.01"/><rect class="cls-11" x="651.5" y="263.01" width="28.35" height="193.04" transform="translate(801.9 -384.67) rotate(72)"/><path class="cls-11" d="M510.6,606.91l113,155.57H170.81L284.09,606.57H510.81"/><path class="cls-11" d="M580,391.16l182.89-59.42L622.91,762.4,509.63,606.48l70.06-215.62"/><path class="cls-11" d="M396.38,258.6V66.31L762.72,332.47,579.43,392,396,258.76"/><path class="cls-11" d="M212,393.43,29.1,334,395.44,67.84c0,8.39,0,190.91,0,192.73L212,393.83"/><path class="cls-11" d="M280.69,609.06l-113,155.57L27.73,334,211,393.53l70.06,215.62"/><text class="cls-12" transform="translate(5.54 755.56)"><tspan class="cls-13">T</tspan><tspan x="15.34" y="0">op view - </tspan><tspan x="0" y="43.2">Lamp open</tspan></text></g></svg>