<svg xmlns="http://www.w3.org/2000/svg" viewBox="0 0 792 882.9"><defs><style>.cls-1,.cls-10,.cls-2,.cls-3,.cls-4,.cls-5,.cls-6,.cls-7,.cls-9{fill:none;}.cls-1,.cls-10,.cls-11,.cls-2,.cls-3,.cls-4,.cls-5,.cls-6,.cls-7,.cls-9{stroke:#231f20;stroke-miterlimit:10;}.cls-1{stroke-dasharray:10;}.cls-2,.cls-3,.cls-5,.cls-6,.cls-7{stroke-width:2px;}.cls-2{stroke-dasharray:11.87 11.87;}.cls-3{stroke-dasharray:11.87 11.87;}.cls-4{stroke-width:3px;}.cls-5{stroke-dasharray:11.87 11.87;}.cls-6{stroke-dasharray:11.87 11.87;}.cls-7{stroke-dasharray:11.87 11.87;}.cls-11,.cls-8{fill:#fff;}.cls-10{stroke-dasharray:10.17 10.17;}.cls-12{font-size:36px;fill:#231f20;font-family:MyriadPro-Regular, Myriad Pro;}.cls-13{letter-spacing:-0.07em;}</style></defs><title>Views</title><g id="Layer_1" data-name="Layer 1"><rect class="cls-1" x="574.04" y="279.48" width="11.34" height="226.77" transform="translate(-93.03 198.37) rotate(-18)"/><rect class="cls-1" x="504.86" y="496.69" width="11.34" height="226.77" transform="translate(704.01 -161.55) rotate(54)"/><rect class="cls-1" x="275.91" y="497.78" width="11.34" height="226.77" transform="translate(941.53 742.59) rotate(126)"/><rect class="cls-1" x="205.35" y="277.99" width="11.34" height="226.77" transform="translate(290.77 828.81) rotate(-162)"/><rect class="cls-1" x="390.28" y="146.06" width="11.34" height="226.77" transform="translate(136.51 655.4) rotate(-90)"/><path class="cls-2" d="M622,608a113.38,113.38,0,0,1-226.53,7.29h0c-.16-2.41-.24-4.83-.24-7.28q0-3.42.21-6.78h0A113.45,113.45,0,0,1,536.29,498,111,111,0,0,1,551.42,503,113.42,113.42,0,0,1,622,608Z"/><path class="cls-3" d="M326.56,393.2a113.42,113.42,0,0,1-70.51,105,112.16,112.16,0,0,0-16.59,5.32A113.4,113.4,0,1,1,297.7,317.63,112.17,112.17,0,0,0,311.09,336,112.77,112.77,0,0,1,326.56,393.2Z"/><path class="cls-4" d="M256,498.19a112.18,112.18,0,0,1-16.59,5.32A112.16,112.16,0,0,1,256,498.19Z"/><path class="cls-4" d="M311.09,336a112.17,112.17,0,0,1-13.39-18.37A112.76,112.76,0,0,1,311.09,336Z"/><path class="cls-5" d="M395.51,615.28h0a113.38,113.38,0,1,1-156-111.78A112.18,112.18,0,0,0,256,498.19a113.45,113.45,0,0,1,139.43,103h0q-.21,3.36-.21,6.78C395.27,610.45,395.35,612.87,395.51,615.28Z"/><path class="cls-4" d="M256,498.19a112.18,112.18,0,0,1-16.59,5.32A112.16,112.16,0,0,1,256,498.19Z"/><path class="cls-4" d="M395.72,608.51c0,2.28-.07,4.53-.21,6.77-.16-2.41-.24-4.83-.24-7.28q0-3.42.21-6.78Q395.72,604.83,395.72,608.51Z"/><path class="cls-6" d="M692.43,393a113.46,113.46,0,0,1-141,110h0a110.56,110.56,0,0,1-15.1-4.93h0A113.45,113.45,0,0,1,482.9,332.84h0a112.74,112.74,0,0,1,8.87-12.26h0A113.39,113.39,0,0,1,692.43,393Z"/><path class="cls-7" d="M509,260.45a112.75,112.75,0,0,1-17.24,60.11h0a112.74,112.74,0,0,0-8.87,12.26h0A113.39,113.39,0,0,1,311.09,336a112.76,112.76,0,0,0-13.39-18.37A113.39,113.39,0,1,1,509,260.45Z"/><path class="cls-4" d="M297.7,317.63A112.76,112.76,0,0,1,311.09,336,112.17,112.17,0,0,1,297.7,317.63Z"/><path class="cls-4" d="M491.78,320.57a111.4,111.4,0,0,1-8.87,12.26A112.74,112.74,0,0,1,491.78,320.57Z"/><rect class="cls-8" x="374.58" y="240.07" width="42.52" height="42.52"/><polyline class="cls-9" points="417.1 276.59 417.1 282.59 411.1 282.59"/><line class="cls-10" x1="400.93" y1="282.59" x2="385.67" y2="282.59"/><polyline class="cls-9" points="380.58 282.59 374.58 282.59 374.58 276.59"/><line class="cls-10" x1="374.58" y1="266.42" x2="374.58" y2="251.16"/><polyline class="cls-9" points="374.58 246.07 374.58 240.07 380.58 240.07"/><line class="cls-10" x1="390.76" y1="240.07" x2="406.02" y2="240.07"/><polyline class="cls-9" points="411.1 240.07 417.1 240.07 417.1 246.07"/><line class="cls-10" x1="417.1" y1="256.25" x2="417.1" y2="271.51"/><circle class="cls-4" cx="396.43" cy="451.91" r="306.13"/><rect class="cls-11" x="382.06" y="258.91" width="28.35" height="193.04"/><rect class="cls-8" x="191.06" y="371.37" width="42.52" height="42.52" transform="translate(-226.71 473.22) rotate(-72)"/><polyline class="cls-9" points="233.4 377.13 239.1 378.98 237.25 384.69"/><line class="cls-10" x1="234.11" y1="394.36" x2="229.39" y2="408.87"/><polyline class="cls-9" points="227.82 413.71 225.97 419.42 220.26 417.56"/><line class="cls-10" x1="210.58" y1="414.42" x2="196.07" y2="409.7"/><polyline class="cls-9" points="191.23 408.13 185.53 406.28 187.38 400.57"/><line class="cls-10" x1="190.52" y1="390.9" x2="195.24" y2="376.38"/><polyline class="cls-9" points="196.81 371.55 198.67 365.84 204.37 367.69"/><line class="cls-10" x1="214.05" y1="370.84" x2="228.56" y2="375.55"/><rect class="cls-11" x="289.69" y="324.91" width="28.35" height="193.04" transform="translate(-190.84 580.19) rotate(-72)"/><rect class="cls-8" x="261.27" y="587.16" width="42.52" height="42.52" transform="translate(-375.75 479.37) rotate(-54)"/><polyline class="cls-9" points="274.3 583.57 277.83 578.72 282.69 582.25"/><line class="cls-10" x1="290.92" y1="588.23" x2="303.26" y2="597.19"/><polyline class="cls-9" points="307.38 600.18 312.23 603.71 308.7 608.57"/><line class="cls-10" x1="302.72" y1="616.8" x2="293.75" y2="629.14"/><polyline class="cls-9" points="290.76 633.26 287.24 638.11 282.38 634.58"/><line class="cls-10" x1="274.15" y1="628.6" x2="261.81" y2="619.63"/><polyline class="cls-9" points="257.69 616.64 252.84 613.12 256.37 608.26"/><line class="cls-10" x1="262.34" y1="600.03" x2="271.31" y2="587.69"/><rect class="cls-11" x="324.04" y="433.73" width="28.35" height="193.04" transform="translate(300.17 1158.02) rotate(-144)"/><rect class="cls-8" x="488.21" y="587.16" width="42.52" height="42.52" transform="translate(-260.32 415.65) rotate(-36)"/><polyline class="cls-9" points="483.3 608.57 479.77 603.71 484.62 600.18"/><line class="cls-10" x1="492.85" y1="594.21" x2="505.2" y2="585.24"/><polyline class="cls-9" points="509.31 582.25 514.17 578.72 517.7 583.57"/><line class="cls-10" x1="523.68" y1="591.8" x2="532.64" y2="604.15"/><polyline class="cls-9" points="535.63 608.26 539.16 613.12 534.31 616.64"/><line class="cls-10" x1="526.08" y1="622.62" x2="513.73" y2="631.59"/><polyline class="cls-9" points="509.62 634.58 504.76 638.11 501.24 633.26"/><line class="cls-10" x1="495.26" y1="625.03" x2="486.29" y2="612.68"/><rect class="cls-11" x="438.16" y="434.78" width="28.35" height="193.04" transform="translate(1130.56 695.26) rotate(144)"/><rect class="cls-8" x="556.67" y="368.99" width="42.52" height="42.52" transform="translate(-92.31 197.69) rotate(-18)"/><polyline class="cls-9" points="569.99 415.18 564.28 417.04 562.43 411.33"/><line class="cls-10" x1="559.28" y1="401.66" x2="554.57" y2="387.14"/><polyline class="cls-9" points="553 382.31 551.14 376.6 556.85 374.75"/><line class="cls-10" x1="566.52" y1="371.6" x2="581.04" y2="366.89"/><polyline class="cls-9" points="585.87 365.31 591.58 363.46 593.43 369.17"/><line class="cls-10" x1="596.58" y1="378.84" x2="601.29" y2="393.35"/><polyline class="cls-9" points="602.87 398.19 604.72 403.9 599.01 405.75"/><line class="cls-10" x1="589.34" y1="408.9" x2="574.82" y2="413.61"/><rect class="cls-11" x="472.76" y="324.24" width="28.35" height="193.04" transform="translate(736.63 -172.37) rotate(72)"/><path class="cls-11" d="M380,466.12,289.87,590.78l-105-74.52c.27-.88,40.94-122.06,40.94-122.06l146.3,47.65Z"/><path class="cls-11" d="M408,468.35l90.7,124.29L395.35,669.45c-.76-.53-103.44-76.65-103.44-76.65l90.53-124.41Z"/><path class="cls-11" d="M418.24,441.81,564.47,394,605.6,516c-.74.56-104.87,74.69-104.87,74.69L410.39,466.11Z"/><path class="cls-11" d="M396.63,424.88,396.31,271,525,269.6c.3.87,38.63,122.82,38.63,122.82L417.31,439.86Z"/><path class="cls-11" d="M372.74,439.86,226.31,392.62l38.43-122.87c.92,0,128.74,1.21,128.74,1.21l-.11,153.86Z"/></g><g id="Layer_2" data-name="Layer 2"><text class="cls-12" transform="translate(36.54 751.56)"><tspan class="cls-13">T</tspan><tspan x="15.34" y="0">op view - </tspan><tspan x="0" y="43.2">Lamp closed</tspan></text></g></svg>