<svg xmlns="http://www.w3.org/2000/svg" viewBox="0 0 695.28 544.12"><defs><style>.cls-1,.cls-10,.cls-6{fill:#fff;}.cls-1,.cls-10,.cls-2,.cls-3,.cls-4,.cls-5,.cls-6,.cls-8,.cls-9{stroke:#231f20;stroke-miterlimit:10;}.cls-1{stroke-width:4px;}.cls-2,.cls-3,.cls-4,.cls-5,.cls-9{fill:none;}.cls-3{stroke-width:2px;}.cls-10,.cls-4{stroke-width:0.75px;}.cls-5{stroke-width:0.25px;}.cls-12,.cls-7{font-size:10px;}.cls-11,.cls-7,.cls-8{fill:#231f20;}.cls-12,.cls-15,.cls-7{font-family:OpenSans, Open Sans;}.cls-8,.cls-9{stroke-width:0.5px;}.cls-13{font-family:OpenSans-Bold, Open Sans;}.cls-14{font-weight:700;}</style></defs><title>blueprint-front-side-top</title><g id="Vector_side" data-name="Vector side"><rect class="cls-1" x="27" y="18.89" width="502" height="312"/><rect class="cls-2" x="27" y="21.64" width="502" height="30"/><rect class="cls-2" x="27" y="296.64" width="502" height="31"/><rect class="cls-2" x="610.09" y="330.15" width="7" height="31" transform="translate(1174.09 657.79) rotate(180)"/><rect class="cls-3" x="229.85" y="125.74" width="98.31" height="98.31"/><rect class="cls-2" x="609.1" y="53.4" width="7" height="31" transform="translate(1172.1 104.29) rotate(180)"/><rect class="cls-2" x="707.09" y="330.15" width="7" height="31" transform="translate(1368.09 657.79) rotate(180)"/><rect class="cls-2" x="707.91" y="53.4" width="7" height="31" transform="translate(1369.74 104.29) rotate(180)"/><rect class="cls-2" x="83.25" y="389.74" width="497.62" height="6.41" transform="translate(611.03 752.38) rotate(180)"/><rect class="cls-2" x="83.33" y="490.15" width="497.77" height="6.41" transform="translate(611.35 953.21) rotate(180)"/><path class="cls-4" d="M590.9,453.15" transform="translate(-53.09 -33.51)"/><path class="cls-5" d="M588.36,133.65s26.93,26.07,0,53" transform="translate(-53.09 -33.51)"/><path class="cls-5" d="M588.36,76.65s26.93,26.07,0,53" transform="translate(-53.09 -33.51)"/><path class="cls-5" d="M589.19,416.65s26.93,26.07,0,53" transform="translate(-53.09 -33.51)"/><rect class="cls-6" x="14.43" y="495.86" width="267.14" height="47.76"/><text class="cls-7" transform="translate(42.49 511.51)">Handsfree electrician’s flashlight and camera<tspan x="0" y="12">Scott Reed</tspan><tspan x="0" y="24">September 13, 2017</tspan></text></g><g id="Vector_top" data-name="Vector top"><rect class="cls-1" x="28" y="362.64" width="502" height="94"/><circle class="cls-8" cx="609.5" cy="312.14" r="5"/><circle class="cls-2" cx="527.31" cy="443.15" r="16.98" transform="translate(-146.47 708.26) rotate(-65.74)"/><rect class="cls-2" x="154.02" y="387.64" width="250" height="44"/><circle class="cls-2" cx="75.55" cy="406.51" r="25.25"/><circle class="cls-6" cx="128.64" cy="440.03" r="16.98" transform="translate(-378.47 342.96) rotate(-65.74)"/></g><g id="Vector_front" data-name="Vector front"><rect class="cls-1" x="565" y="17.64" width="88" height="312"/><ellipse class="cls-4" cx="609.5" cy="69.64" rx="25" ry="25.5"/><ellipse class="cls-4" cx="609.5" cy="127.64" rx="25" ry="25.5"/><rect class="cls-2" x="604.5" y="302.14" width="11" height="11" rx="5.33" ry="5.33"/><polygon class="cls-9" points="621.55 62.11 621.55 76.17 609.38 83.19 597.21 76.17 597.21 62.11 609.38 55.09 621.55 62.11"/><polygon class="cls-9" points="621.55 120.61 621.55 134.67 609.38 141.69 597.21 134.67 597.21 120.61 609.38 113.59 621.55 120.61"/><rect class="cls-5" x="574.5" y="37.14" width="70" height="126"/><rect class="cls-5" x="529.36" y="37.14" width="6.13" height="126"/><rect class="cls-5" x="531.77" y="364.85" width="4.56" height="89.69"/></g><g id="Vector_sizes" data-name="Vector sizes"><line class="cls-10" x1="28" y1="479.14" x2="269" y2="479.14"/><line class="cls-10" x1="299" y1="477.64" x2="530" y2="477.64"/><text class="cls-7" transform="translate(279 480.64)">4”</text><text class="cls-7" transform="translate(0 409.64)">3/4”</text><text class="cls-7" transform="translate(0 177.89)">2.5”</text><path class="cls-11" d="M62.09,453.15v0Z" transform="translate(-53.09 -33.51)"/><path class="cls-11" d="M62.09,396.15v0Z" transform="translate(-53.09 -33.51)"/><polygon class="cls-11" points="8 186.89 8 250.89 8 330.89 8 186.89"/><path class="cls-11" d="M62.09,462.15" transform="translate(-53.09 -33.51)"/><line class="cls-11" x1="8" y1="149.89" x2="8" y2="18.89"/><polyline class="cls-11" points="8 18.89 8 82.89 8 162.89"/><text class="cls-7" transform="translate(599.38 347.89)">3/4”</text><line class="cls-10" x1="565" y1="344.14" x2="592" y2="344.14"/><line class="cls-10" x1="625" y1="344.14" x2="653" y2="344.14"/><text class="cls-7" transform="translate(274.63 8.57)">Side</text><text class="cls-7" transform="translate(597.36 8.57)">Front</text><text class="cls-7" transform="translate(269 350.89)">Top</text><rect class="cls-6" x="266.6" y="158.89" width="22.81" height="122.1"/></g><g id="Content"><text class="cls-7" transform="translate(274.63 149.89)">A.</text><text class="cls-12" transform="translate(605.24 73.62)">B.</text><text class="cls-12" transform="translate(606.09 131.59)">C.</text><text class="cls-12" transform="translate(604.5 289.79)">D.</text><text class="cls-12" transform="translate(71.35 411.48)">E.</text><text class="cls-12" transform="translate(274.63 412.45)">F.</text><text class="cls-12" transform="translate(470.42 412.45)">G.</text><text class="cls-7" transform="translate(565 387.64)">Key:<tspan class="cls-13"><tspan class="cls-14" x="0" y="12">A. </tspan><tspan class="cls-15" x="12.35" y="12">Cap clip (magnet</tspan></tspan><tspan x="0" y="24">on both sides accomodates </tspan><tspan x="0" y="36">right and left-handedness)</tspan><tspan class="cls-13"><tspan class="cls-14" x="0" y="48">B. </tspan><tspan class="cls-15" x="12.17" y="48">Flashlight lens</tspan><tspan class="cls-14" x="0" y="60">C.</tspan><tspan class="cls-15" x="9.22" y="60" xml:space="preserve"> Camera lens</tspan><tspan class="cls-14" x="0" y="72">D. </tspan><tspan class="cls-15" x="12.85" y="72">Power reserve indicator</tspan><tspan class="cls-14" x="0" y="84">E. </tspan><tspan class="cls-15" x="11.05" y="84">Camera on/off</tspan><tspan class="cls-14" x="0" y="96">F. </tspan><tspan class="cls-15" x="10.94" y="96">Flashlight touch zoom </tspan></tspan><tspan x="0" y="108">and focus </tspan><tspan class="cls-13"><tspan class="cls-14" x="0" y="120">G. </tspan><tspan class="cls-15" x="12.69" y="120">Flashlight on/off</tspan></tspan></text></g></svg>