<svg xmlns="http://www.w3.org/2000/svg" width="1600" height="1200"><g transform="matrix(.97277 0 0 .97277 -17.176 71.349)" fill="none" stroke="#000000"><path d="M700.296 914.376c-13.173-2.128-50.393-13.916-50.393-26.5 0-12.583 37.22-24.372 50.393-26.5m.124-.082a100.34 100.34 0 0 1 10.358-4.834m3.276-1.253c1.561-.57 3.125-1.102 4.689-1.6m2.899-.883c1.668-.487 3.332-.937 4.988-1.353m3.279-.782c15.085-3.414 29.161-4.13 38.35-4.704l132.268-8.26m11.18-.698l11.314-.707m10.796-.674l24.838-1.551m9.167-.573l13.804-.862m15.172-.947l45.396-2.835 20.576-17.375c6.134-5.179 13.773-8.662 23.987-8.662h67.337c58.64 0 164.178 18.818 243.351 30.984 19.785 3.04 28.062 1.496 31.568-6.36 14.094-31.585 31.462-60.295 56.538-82.217 11.367-9.937 23.76-15.403 36.986-15.548 55.521-.609 90.076 71.469 89.284 126.976-.329 23.015-3.886 44.026-35.101 54.418-41.023 13.659-95.217 24.836-151.477 33.217-101.276 15.087-205.545 26.203-331.323 26.608-28.435.091-55.74 19.393-60.301 50.64l-59.542 1.442m-12.685.213c-12.886-.097-26.324-.82-38.523-1.929m-27.428-3.534c-1.59-.289-3.09-.583-4.487-.882V976.72M700.379 861.21v53.553" stroke-width="2.5"/><path d="M1080.094 802.908v51.473h74.627v-51.64" stroke-width="2.5"/><path d="M1154.555 854.88v114.773m45.976-164.413v162.747m207.986-106.7h150.063" stroke-width="1.5"/><path d="M1563.41 861.523c-27.777-3.284-60.516-6.393-98.59-6.596-30.65-.164-57.506.986-57.48 6.125-.048 4.573 36.722 4.883 60.896 4.594 39.403-.472 66.732-2.054 95.173-4.123z" stroke-width="2.5" stroke-linejoin="round"/><path d="M1478.775 855.135c-3.92.796-8.593 7.82-.013 10.327m6.79-120.785v25.914h32.038v86.122m0 7.662v62.967" stroke-width="2.5"/><path d="M1512.878 856.576c-34.221-7.728-75.493-15.456-117.118-23.184" stroke-width="1.5"/><path d="M1439.904 865.208l7.829 66.632c1.748.898 6.111-.068 7.33-.667l-7.497-65.299m45.476-.666l-2.832 58.969c2.311.63 4.509.464 6.663 0l2.832-58.802" stroke-width="2.5"/><path d="M1397.445 833.49v44.524h43.958m7.33 0h43.81m6.496 0h18.55m-91.168 0v65.961m-.235-29.918h19.215m7.829 0h37.313m6.997 0h20.05m-56.421 0v23.793m33.688-12.839v6.714" stroke-width="1.5"/><path d="M1517.53 770.591h4.663v5.914h-3.664m-1 40.895h4.664v5.914h-3.664m3.664 40.484v5.325h-3.664" stroke-width="2.5"/><path d="M1424.46 832.579c31.805 4.713 61.6 9.426 88.072 14.139m-50.474-76.363h23.155m42.31 0h53.437m-136.4 26.699h67.744m15.22 0h63.802m-160.429 26.698h81.407m15.22 0h72.753m-77.269 26.7h83.05m-83.05 28.975h80.694m-80.694 28.976h48.184m-78.168-159.249h62.51m-102.47 34.55h38.146m-53.139 26.699h49.14" stroke-width="1.5" stroke-linecap="round"/><path d="M1495.799 777.689c0-3.749 9.659-1.243 9.659 0 0 1.242-9.66 3.749-9.66 0z" stroke-width="2.5"/><path d="M1403.36 845.135c-.31 0-.562-.083-.562-.187 0-.103.252-.187.563-.187.31 0 .562.084.562.187 0 .104-.252.187-.562.187z" stroke-width="1.5" stroke-linecap="round" stroke-linejoin="round"/><path d="M1403.36 872.288c-.31 0-.562-.084-.562-.188 0-.103.252-.187.563-.187.31 0 .562.084.562.187 0 .104-.252.188-.562.188z" stroke-width="1.5" stroke-linecap="round" stroke-linejoin="round"/><path d="M1429.13 835.875a.383.383 0 1 1-.765 0 .383.383 0 0 1 .765 0z" stroke-width="1.5" stroke-linecap="round" stroke-linejoin="round"/><path d="M1454.808 840.35a.383.383 0 1 1-.765 0 .383.383 0 0 1 .765 0z" stroke-width="1.5" stroke-linecap="round" stroke-linejoin="round"/><path d="M1486.965 846.358a.383.383 0 1 1-.766 0 .383.383 0 0 1 .766 0z" stroke-width="1.5" stroke-linecap="round" stroke-linejoin="round"/><path d="M1444.024 900.761a7.663 7.663 0 1 1-1.676-13.377" stroke-width="1.5" stroke-linecap="round" stroke-linejoin="round"/><path d="M1247.922 810.82v-8.37h3.915v8.62" stroke-width="2.5"/><path d="M1200.03 890.528h225.881m-225.88 14.992l225.88-2.356m-225.88 16.349c78.17-.694 152.71-2.296 225.88-4.24m-225.88 15.9c81.87-.278 153.461-4.294 225.88-8.01m-225.88 30.332c79.648-3.354 155.981-8.346 225.88-17.904m-225.88 7.909c74.855-2.519 150.137-7.174 225.88-14.135m-225.88 31.792c66.77-.741 164.473-11.461 225.88-20.024m-225.644-64.297c66.927-.048 133.022.07 196.825.648m-197.061-11.456c67.533.531 133.216 1.432 197.61 2.591m-197.61-12.956c70.21.177 136.194 1.275 197.61 4.593m-197.61-14.488c65.87.734 131.74 2.665 197.61 7.774m-197.61-18.139c66.695 2.354 132.794 5.903 197.61 12.014m-197.61-23.557c65.87 3.935 131.74 9.964 197.61 17.668m-197.61-25.914c66.185 4.623 132.053 11.79 197.61 21.438" stroke-width="1.5"/><path d="M851.434 1099.554c.611-35.735 21.204-59.565 55.953-60.917 34.189-1.33 80.409 21.957 84.199 42.847 2.693 14.846-32.63 28.092-76.603 39.881-19.874 5.328-38.372 8.118-49.446 4.738-9.118-2.784-14.36-11.495-14.103-26.549z" stroke-width="2.5"/><path d="M941.834 1043.947l-70.462 7.163" stroke-width="1.5"/><path d="M954.192 1109.632c-7.39 24.581-33.306 38.518-57.887 31.128a46.475 46.475 0 0 1-20.812-13.029m56.942-11.189a30.484 30.484 0 0 1-32.584 8.565" stroke-width="2.5"/><path d="M699.9 914.057c39.279 36.322 119.156 57.266 201.74 63.886m15.943 1.1a722.046 722.046 0 0 0 53.902 1.104h46.975m11.365 0h31.28" stroke-width="2.5"/><path d="M679.523 867.06v41.579m11.072-45.231v48.529" stroke-width="1.5"/><path d="M721.81 930.312c3.79 4.846 2.588 8.147-.59 10.836l9.188 20.849c33.63 7.06 81.928 9.41 130.988 11.532m643.858-43.538v5.392h6.098V928.4m-14.053-9.908h19.975m.526-1.9c9.143-.097 8.707 3.762 0 3.801M1462.125 938l17.125 22.375 9.75 7m-5.25-33.625l-3.75 12.625 3.75 12.25 6.5 6.5" stroke-width="2.5"/><path d="M1489.596 967.782l.455-2.79h8.839c1.194 0 2.188-.117 2.563 1.15.332 1.121-.915 2.49-5.701 3.447-2.902.58-4.098-.414-6.156-1.807z" stroke-width="2.5"/><path d="M1470.313 948.063l9.812-1.75m3.75 12.5l-4.625 1.625" stroke-width="1.5"/><path d="M861.08 780.526c-.047-4.765 27.648-11.083 61.871-11.49 51.295-.61 99.43 9.897 106.066 13.965-31.25 3.364-66.975 4.29-106.243 3.536-28.275-.544-61.633.358-61.695-6.01z" stroke-width="2.5" stroke-linejoin="round"/><path d="M873.984 779.819c49.347-.54 97.831.031 143.896 3.712" stroke-width="1.5" stroke-linecap="round"/><path d="M987.298 772.925l15.91.618m-.458 2.082l.25-2.938.688-.125 2.116 3.666" stroke-width="1.5"/><path d="M1104.75 969.75v-5.125c0-10.343-52.19-20.21-108.79-21.641-34.066-.862-57.099 4.838-57.099 13.258v7.248c0 10.607 38.041 11.377 53.21 11.314 49.92-.21 78.786-2.765 112.783-4.596 11.925-2 28.265-4.524 46.521-6.208 2.51-.231 2.677-2.008 0-2.625-22.834-5.265-49.586-8.556-78.377-10.613" stroke-width="2.5"/><path d="M939.568 952.883c-1.4 8.224 46.897 8.896 79.02 8.84 28.683-.052 55.917-1.033 79.902-3.536" stroke-width="1.5"/><path d="M947 953.5c13.58-4.19 31.116-4.84 50.323-4.72 38.805.245 69.175 4.217 99.223 8.7" stroke-width="1.60000002" stroke-linecap="round"/><path d="M1105.296 966.584c15.704-2.499 31.408-3.836 47.111-3.978" stroke-width="1.5"/><path d="M874.75 785.125c3.05 2.283 6.207 4.419 8.625 10.125l61.85 145.966c1.323 3.122 1.462 4.803 2.025 6.909m-53.202-162.296c-2.087 1.568-2.042 4.476-.353 8.397l60.192 139.742c1.761 4.09 3.67 3.453 3.712-.176l1.591-133.997c.058-4.835.188-10.043-3.182-12.64m13.435 156.536c-.788-1.5-1.698-2.996-1.679-5.303l1.06-131.522c.027-3.27.12-4.226 1.68-.53l58.371 138.289M958.94 807.728l-39.524 44.216m-3.624-7.955l43.398-48.967m16.456-8.706c-.552 1.802-.886 3.777-.02 5.809l65.374 153.625" stroke-width="2.5"/><path d="M979.625 786.25c-.546 2.179-.414 4.408.567 6.706l24.528 57.434c-1.288.227-1.91.228-3.751.298m25.078 123.68l-90.014 67.567m8.485 3.05l93.881-71.075m-142.318 65.594v-25.456l5.834-43.133c.34-2.521 13.79-2.63 14.23.574l6.806 49.453v18.385" stroke-width="2.5"/><path d="M896.75 1014.25c2.7-.609 4.696-1.072 9-.938 6.542.204 11.153 1.815 16.625 3.813m-21.196-44.171c-1.61-.802-2.274-2.465-2.192-4.07.143-2.799 4.26-5.072 10.131-5.04 5.466.029 9.993 2.232 9.988 4.994-.003 1.595-.924 2.79-2.662 3.836" stroke-width="2.5"/><path d="M700 866.5h213.25m11.25 0h33.625m10 0h27.658m11.314 0h193.04M700.25 914.25C760.763 934.803 834.885 942 901 942h45m208.5 0h-115.032m-11.844 0H968.25m186.279-37.73h45.962m-46.14 52.326a3854.35 3854.35 0 0 0 46.14-.707m-45.255-102.884h44.901M1040.75 828.5v91.25h-11m-11.25 0h-7m.25-15.25V942" stroke-width="1.5"/><path d="M1079.375 852.125c-17.087-.001-34.29.388-38.375-23m35.027-24.457v42.908c-12.659-.063-26.034 2.682-31.402-20.076m39.891-24.523v8.839h65.529v-8.84m-65.529 13.259v32.88h65.529v-32.88zm76.377 7.248v18.738c0 3.625 2.19 4.42 4.419 4.42h25.81c4.56 0 4.493-2.773 4.387-5.657-.382-10.328-12.88-23.412-27.899-23.688-5.997-.11-6.717 2.936-6.717 6.187zM1001.17 879.35c-9.32 5.016-15.463 12.927-15.463 24.553 0 19.835 17.876 28.856 38.914 31.134m11.817.597c49.904-.14 102.004-20.794 102.004-31.73 0-10.937-52.1-31.591-102.004-31.732-8.86-.025-17.644.95-25.35 3.2" stroke-width="2.5"/><rect transform="rotate(-22.696)" ry="1.236" rx="1.204" y="1275.332" x="667.682" height="10.5" width="18.375" stroke-width="1.5" stroke-linecap="round" stroke-linejoin="round"/><path d="M900.5 837.271v128.164m-.176-92.985h15.733m11.667 0h30.582m-7.778-.354v-37.123M900.324 877.4l-199.935-2.298M917.75 982c19.387 2.065 33.877 1.467 49.125 1.625v21.125c-9.035-.187-17.995-.364-29.625-.875V984m33.784-3.363v34.254m42.091 6.984V993.75m-4.625 28.125V996.25m0-9.125v-2.5h-32.875v27.25m22.875-177l42.25-2.625m-40.375-23.375v22" stroke-width="1.5"/><path d="M1000.375 808.875v8.75" stroke-width="2.5"/><path d="M885.75 800.75l25.125 162.625" stroke-width="1px"/><path d="M921.5 884.664l-165.289-1.556c-4.802-.045-10.622 1.354-12.211 2.642 1.166 1.642 8.447 2.965 12 3l167.752 1.657m11.127.11l22.876.226m10.619.105l15.407.152-.03-5.75-15.498-.146m-10.127-.095l-25.75-.243m35.751 35.842l16.154.142-.031-5.75-16.125-.133M958 914.784l-12.5-.104m-11.626-.095l-148.663-1.227c-4.802-.04-10.622 1.354-12.211 2.642 1.166 1.642 8.447 2.965 12 3l151.375 1.33m11.5.1l10.626.094" stroke-width="1.5" stroke-linejoin="round"/><path d="M813.968 952.618c-1.74 8.128 19.132 7.4 20.595 3.624 2.135-5.51-19.588-8.329-20.595-3.624z" stroke-width="2.5"/><path d="M733.593 912.281c3.597-3.504 26.4-.043 24.337 3.303-2.807 4.552-28.76 1.006-24.337-3.303z" stroke-width="1.5"/><rect transform="rotate(.693)" ry="1.236" rx="1.204" y="861.651" x="747.876" height="4.25" width="9.188" stroke-width="2.5" stroke-linecap="round" stroke-linejoin="round"/><rect width="9.188" height="4.25" x="776.755" y="861.802" rx="1.204" ry="1.236" transform="rotate(.693)" stroke-width="2.5" stroke-linecap="round" stroke-linejoin="round"/><rect transform="rotate(.693)" ry="1.236" rx="1.204" y="861.79" x="789.318" height="4.25" width="9.188" stroke-width="2.5" stroke-linecap="round" stroke-linejoin="round"/><rect transform="rotate(.693)" ry="1.236" rx="1.204" y="861.826" x="823.852" height="4.25" width="9.188" stroke-width="2.5" stroke-linecap="round" stroke-linejoin="round"/><rect width="9.188" height="4.25" x="836.415" y="861.815" rx="1.204" ry="1.236" transform="rotate(.693)" stroke-width="2.5" stroke-linecap="round" stroke-linejoin="round"/><rect transform="rotate(.693)" ry="1.236" rx="1.204" y="861.768" x="867.66" height="4.25" width="9.188" stroke-width="2.5" stroke-linecap="round" stroke-linejoin="round"/><rect ry="1.236" rx="1.204" y="930.079" x="986.679" height="6.894" width="9.634" stroke-width="1.5" stroke-linecap="round" stroke-linejoin="round"/><path d="M1161.375 966.75l1.75 13.125c.211 1.583 17.16-1.268 16.875-3l-1.912-11.588" stroke-width="2.5" stroke-linecap="round" stroke-linejoin="round"/><rect ry="0" rx="0" y="947.957" x="878.088" height="13.5" width="16.5" stroke-width="1.5" stroke-linecap="round"/><path d="M881.486 950.009v9.397m2.426-9.397v9.397m4.853-9.397v9.397m-2.427-9.397v9.397m4.853-9.397v9.397" stroke-width="1.5"/><rect width="16.405" height="15.35" x="878.136" y="894.353" rx="0" ry="0" stroke-width="1.5" stroke-linecap="round"/><path d="M881.514 896.685v10.685m2.412-10.685v10.685m4.825-10.685v10.685m-2.413-10.685v10.685m4.825-10.685v10.685" stroke-width="1.5"/><rect ry="0" rx="0" y="847.901" x="878.088" height="13.5" width="16.5" stroke-width="1.5" stroke-linecap="round"/><path d="M881.486 849.953v9.397m2.426-9.397v9.397m4.853-9.397v9.397m-2.427-9.397v9.397m4.853-9.397v9.397M736 885.406V904.5c-5.961-.127-11.683-.205-18.188-.44v-18.654zm-13.5 3.203v12.688m4.406-12.688v12.688m4.407-12.688v12.688" stroke-width="1.5"/><path d="M710.907 855.568l4.773 8.485c1.348-.617 1.188-4.246.303-5.817l-1.764-3.13c-.296-.524-2.725-1.366-4.009-.858zm7.779-2.387l4.773 8.486c1.348-.617 1.187-4.246.302-5.818l-1.764-3.13c-.295-.524-2.725-1.365-4.009-.857zm7.601-2.475l4.773 8.486c1.348-.617 1.188-4.246.302-5.817l-1.764-3.13c-.295-.524-2.724-1.366-4.008-.858z" stroke-width="2.5"/><path d="M706.225 864.053a.264.264 0 1 1-.527 0 .264.264 0 0 1 .527 0z" stroke-width="1.5" stroke-linecap="round"/><path d="M706.225 878.593a.264.264 0 1 1-.527 0 .264.264 0 0 1 .527 0z" stroke-width="1.5" stroke-linecap="round"/><path d="M738.328 879.069a.264.264 0 1 1-.527 0 .264.264 0 0 1 .527 0z" stroke-width="1.5" stroke-linecap="round"/><path d="M738.328 864.053a.264.264 0 1 1-.527 0 .264.264 0 0 1 .527 0z" stroke-width="1.5" stroke-linecap="round"/><path d="M770.43 864.053a.264.264 0 1 1-.527 0 .264.264 0 0 1 .528 0z" stroke-width="1.5" stroke-linecap="round"/><path d="M802.533 864.053a.264.264 0 1 1-.527 0 .264.264 0 0 1 .527 0z" stroke-width="1.5" stroke-linecap="round"/><path d="M834.636 864.053a.264.264 0 1 1-.528 0 .264.264 0 0 1 .528 0z" stroke-width="1.5" stroke-linecap="round"/><path d="M866.739 864.053a.264.264 0 1 1-.528 0 .264.264 0 0 1 .528 0z" stroke-width="1.5" stroke-linecap="round"/><path d="M866.739 880.972a.264.264 0 1 1-.528 0 .264.264 0 0 1 .528 0z" stroke-width="1.5" stroke-linecap="round"/><path d="M834.636 880.496a.264.264 0 1 1-.527 0 .264.264 0 0 1 .527 0z" stroke-width="1.5" stroke-linecap="round"/><path d="M802.533 879.545a.264.264 0 1 1-.527 0 .264.264 0 0 1 .527 0z" stroke-width="1.5" stroke-linecap="round"/><path d="M770.43 880.02a.264.264 0 1 1-.527 0 .264.264 0 0 1 .528 0z" stroke-width="1.5" stroke-linecap="round"/><path d="M706.225 912.928a.264.264 0 1 1-.527 0 .264.264 0 0 1 .527 0z" stroke-width="1.5" stroke-linecap="round"/><path d="M706.225 918.553a.264.264 0 1 1-.527 0 .264.264 0 0 1 .527 0z" stroke-width="1.5" stroke-linecap="round"/><path d="M738.328 928.036a.264.264 0 1 1-.527 0 .264.264 0 0 1 .527 0z" stroke-width="1.5" stroke-linecap="round"/><path d="M738.328 921.911a.264.264 0 1 1-.527 0 .264.264 0 0 1 .527 0z" stroke-width="1.5" stroke-linecap="round"/><path d="M770.43 927.75a.264.264 0 1 1-.527 0 .264.264 0 0 1 .528 0z" stroke-width="1.5" stroke-linecap="round"/><path d="M770.43 935.087a.264.264 0 1 1-.527 0 .264.264 0 0 1 .528 0z" stroke-width="1.5" stroke-linecap="round"/><path d="M802.533 932.755a.264.264 0 1 1-.527 0 .264.264 0 0 1 .527 0z" stroke-width="1.5" stroke-linecap="round"/><path d="M802.533 939.737a.264.264 0 1 1-.527 0 .264.264 0 0 1 .527 0z" stroke-width="1.5" stroke-linecap="round"/><path d="M834.636 935.88a.264.264 0 1 1-.527 0 .264.264 0 0 1 .527 0z" stroke-width="1.5" stroke-linecap="round"/><path d="M834.636 942.942a.264.264 0 1 1-.527 0 .264.264 0 0 1 .527 0z" stroke-width="1.5" stroke-linecap="round"/><path d="M866.739 938.071a.264.264 0 1 1-.528 0 .264.264 0 0 1 .528 0z" stroke-width="1.5" stroke-linecap="round"/><path d="M866.739 944.082a.264.264 0 1 1-.528 0 .264.264 0 0 1 .528 0z" stroke-width="1.5" stroke-linecap="round"/><path d="M896.79 945.319a.264.264 0 1 1-.527 0 .264.264 0 0 1 .528 0z" stroke-width="1.5" stroke-linecap="round"/><path d="M896.79 938.778a.264.264 0 1 1-.527 0 .264.264 0 0 1 .528 0z" stroke-width="1.5" stroke-linecap="round"/><path d="M861.125 953.063a2.438 2.438 0 1 1-4.875 0 2.438 2.438 0 0 1 4.875 0z" stroke-width="1.5" stroke-linecap="round"/><path d="M936.566 945.319a.264.264 0 1 1-.528 0 .264.264 0 0 1 .528 0z" stroke-width="1.5" stroke-linecap="round"/><path d="M936.566 938.425a.264.264 0 1 1-.528 0 .264.264 0 0 1 .528 0z" stroke-width="1.5" stroke-linecap="round"/><path d="M1045.814 864.053a.264.264 0 1 1-.528 0 .264.264 0 0 1 .528 0z" stroke-width="1.5" stroke-linecap="round"/><path d="M1080.897 864.053a.264.264 0 1 1-.528 0 .264.264 0 0 1 .528 0z" stroke-width="1.5" stroke-linecap="round"/><path d="M1115.98 864.053a.264.264 0 1 1-.527 0 .264.264 0 0 1 .527 0z" stroke-width="1.5" stroke-linecap="round"/><path d="M1151.064 864.053a.264.264 0 1 1-.528 0 .264.264 0 0 1 .528 0z" stroke-width="1.5" stroke-linecap="round"/><path d="M1045.814 869.303a.264.264 0 1 1-.528 0 .264.264 0 0 1 .528 0z" stroke-width="1.5" stroke-linecap="round"/><path d="M1080.897 869.303a.264.264 0 1 1-.528 0 .264.264 0 0 1 .528 0z" stroke-width="1.5" stroke-linecap="round"/><path d="M1115.98 869.303a.264.264 0 1 1-.527 0 .264.264 0 0 1 .527 0z" stroke-width="1.5" stroke-linecap="round"/><path d="M1151.064 869.303a.264.264 0 1 1-.528 0 .264.264 0 0 1 .528 0z" stroke-width="1.5" stroke-linecap="round"/><path d="M1161.48 864.053a.264.264 0 1 1-.527 0 .264.264 0 0 1 .527 0z" stroke-width="1.5" stroke-linecap="round"/><path d="M1196.564 864.053a.264.264 0 1 1-.528 0 .264.264 0 0 1 .528 0z" stroke-width="1.5" stroke-linecap="round"/><path d="M1161.48 869.303a.264.264 0 1 1-.527 0 .264.264 0 0 1 .527 0z" stroke-width="1.5" stroke-linecap="round"/><path d="M1196.564 869.303a.264.264 0 1 1-.528 0 .264.264 0 0 1 .528 0z" stroke-width="1.5" stroke-linecap="round"/><path d="M1161.48 901.353a.264.264 0 1 1-.527 0 .264.264 0 0 1 .527 0z" stroke-width="1.5" stroke-linecap="round"/><path d="M1196.564 901.353a.264.264 0 1 1-.528 0 .264.264 0 0 1 .528 0z" stroke-width="1.5" stroke-linecap="round"/><path d="M1161.48 906.603a.264.264 0 1 1-.527 0 .264.264 0 0 1 .527 0z" stroke-width="1.5" stroke-linecap="round"/><path d="M1196.564 906.603a.264.264 0 1 1-.528 0 .264.264 0 0 1 .528 0z" stroke-width="1.5" stroke-linecap="round"/><path d="M1161.48 936.355a.264.264 0 1 1-.527 0 .264.264 0 0 1 .527 0z" stroke-width="1.5" stroke-linecap="round"/><path d="M1196.564 936.355a.264.264 0 1 1-.528 0 .264.264 0 0 1 .528 0z" stroke-width="1.5" stroke-linecap="round"/><path d="M1161.48 953.184a.264.264 0 1 1-.527 0 .264.264 0 0 1 .527 0z" stroke-width="1.5" stroke-linecap="round"/><path d="M1196.564 952.565a.264.264 0 1 1-.528 0 .264.264 0 0 1 .528 0z" stroke-width="1.5" stroke-linecap="round"/><path d="M1045.814 939.36a.264.264 0 1 1-.528 0 .264.264 0 0 1 .528 0z" stroke-width="1.5" stroke-linecap="round"/><path d="M1080.897 939.36a.264.264 0 1 1-.528 0 .264.264 0 0 1 .528 0z" stroke-width="1.5" stroke-linecap="round"/><path d="M1115.98 939.36a.264.264 0 1 1-.527 0 .264.264 0 0 1 .527 0z" stroke-width="1.5" stroke-linecap="round"/><path d="M1151.064 939.36a.264.264 0 1 1-.528 0 .264.264 0 0 1 .528 0z" stroke-width="1.5" stroke-linecap="round"/><path d="M1045.814 944.61a.264.264 0 1 1-.528 0 .264.264 0 0 1 .528 0z" stroke-width="1.5" stroke-linecap="round"/><path d="M1080.897 944.61a.264.264 0 1 1-.528 0 .264.264 0 0 1 .528 0z" stroke-width="1.5" stroke-linecap="round"/><path d="M1115.98 944.61a.264.264 0 1 1-.527 0 .264.264 0 0 1 .527 0z" stroke-width="1.5" stroke-linecap="round"/><path d="M1151.064 944.61a.264.264 0 1 1-.528 0 .264.264 0 0 1 .528 0z" stroke-width="1.5" stroke-linecap="round"/><path d="M854.674 973.22l-.125 1.625m4.216-1.152l-.125 1.625m4.216-1.151l-.125 1.625m4.216-1.152l-.125 1.625m4.216-1.151l-.125 1.625m4.216-1.152l-.125 1.625m8.307-.678l-.125 1.625m-3.966-2.098l-.125 1.625" stroke-width="2.5" stroke-linecap="round"/><path d="M1211.313 967.625v7.563" stroke-width="1px"/><path d="M1210 970.813v5.437m-211.08 46.504v5.702h3.713" stroke-width="2.5"/><path d="M1001.705 1022.887v5.127" stroke-width="1.5"/></g><g transform="matrix(0 -.97277 .97277 0 -241.864 1164.06)" fill="none" stroke="#000000"><path d="M641.66 482.91v-96.115c0-16.432-3.595-32.958-11.726-43.778l-14.252-18.964c-3.47-28.5-19.644-48.175-26.267-48.175-6.624 0-22.798 19.675-26.267 48.175l-14.253 18.964c-8.131 10.82-11.726 27.346-11.726 43.778v96.116m538.006 166.828c33.116 0 44.15-19.574 54.83-47.954 8.325-22.125 11.672-51.535 11.39-61.072-1.146-38.772-24.515-57.292-51.972-57.292H89.407c-27.458 0-50.827 18.52-51.973 57.292-.282 9.537 3.066 38.947 11.39 61.072 10.68 28.38 21.715 47.954 54.83 47.954h485.76z" stroke-width="2.5"/><path d="M1078.473 649.504c-11.666 41.573-26.955 77.976-59.836 77.976h-342.53c-17.154 0-32.889 5.197-42.11 43.112m2.832-121.27c.58 169.95-17.972 316.857-39.758 459.47m12.273-80.004l129.265 23.987c28.802 5.345 52.493 16.67 52.305 53.305-.296 57.893-62.103 73.831-138.26 75.294-13.13.252-25.083-1.215-30.317-12.66l-24.987-54.638" stroke-width="2.5"/><path d="M597.895 1114.769H736.83v-28.034h51.649" stroke-width="2.5"/><path d="M590.475 1231.733c2.993-36.88 6.72-72.905 6.596-120.969-.09-35.227.597-76.445-7.656-76.445-8.254 0-7.566 41.218-7.657 76.445-.123 48.064 3.603 84.09 6.597 120.97z" stroke-width="2.5" stroke-linejoin="round"/><path d="M686.357 483.117c.077-5.988 2.303-10.826 10.49-10.885 8.659-.063 9.832 5.667 9.98 11.307M563.052 324.828h53.288" stroke-width="2.5"/><path d="M568.264 304.006h42.246m-45.146 10.827h49.643" stroke-width="1.5"/><path d="M626.834 339.154l-11.493 5.413c.699 1.386 3.163 1.978 5.121 1.093l8.059-3.644m-5.476-8.734l-11.494 5.414c.7 1.385 3.164 1.977 5.121 1.092l8.059-3.644m-5.476-8.734l-11.494 5.414c.7 1.385 3.164 1.977 5.122 1.092l8.058-3.644" stroke-width="2.5"/><path d="M637.826 358.801v124.61" stroke-width="1.5"/><path d="M642.184 390.957h3.71v8.422h-3.887m.177 4.238h3.71v8.422h-3.887m.177 25.56h3.71v8.422h-3.887m.177 4.238h3.71v8.422h-3.887m.177 19.73h3.71v5m-7.95-124.257h3.71l1.767 8.422h-3.887" stroke-width="2.5" stroke-linejoin="round"/><path d="M1099.084 645.491v-35.148H749.222v38.69" stroke-width="2.5"/><path d="M653.138 649.74c-.065 26.78-4.327 60.476-18.14 112.252" stroke-width="1.5"/><path d="M546.044 778.42h86.954m-17.657-73.377H627v67.714h-11.66zm4.463 77.267h6.479c2.507 0 3.107 1.51 3.062 2.474l-1.261 26.786c-.102 2.159-.509 5.139-2.499 5.33-4.108.396-8.6-14.086-8.579-26.985.008-4.594.677-7.605 2.798-7.605z" stroke-width="2.5"/><path d="M630.64 823.124h-82.606m20.831 193.17h41.645" stroke-width="1.5"/><path d="M606.97 1019.522c0 .31-.084.562-.187.562-.104 0-.188-.251-.188-.562 0-.31.084-.562.188-.562.103 0 .187.252.187.562z" stroke-width="1.5" stroke-linecap="round" stroke-linejoin="round"/><path d="M582.23 1108.88h14.252" stroke-width="2.5"/><path d="M604.846 1056.107c4.154-9.675 7.74-20.596 13.993-25.653" stroke-width="1.5"/><path d="M631.583 1032.317v75.096m0 7.33v56.093m26.224-133.337v70.414m0 6.33v58.444m26.223-130.086v64.479m0 7.496v59.882m26.224-126.193v59.148m0 7.163v53.219m26.224-115.532v28.997m0 33.65v45.555m26.223-93.21v13.339m0 5.997v64.53m-117.76-116.336v28.152m26.715-22.655v28.152m26.715-22.988v28.152" stroke-width="1.5" stroke-linecap="round"/><path d="M589.52 1016.461v-193.73m6.5 193.73c1.153-62.626 1.73-127.557 1.996-193.73m3.44 193.73c3.028-62.978 4.62-128.112 5.889-193.73m-1.126 193.73c7.329-64.577 9.794-129.153 10.954-193.73m2.807 119.943c2.076-40.076 4.922-85.538 6.188-119.943m-32.984-172.756v14.841m17.315 1.06h42.168" stroke-width="1.5"/><path d="M1071.524 610.398v7.42h-4.594v-7.067m-108.012-.353v7.42h-4.594v-7.067m-64.666-.353v7.42h-4.594v-7.067m-106.127-.353v7.42h-4.594v-7.067m118.378 38.635c-1.157 5.468-.831 10.772 0 16.019l18.61-15.548" stroke-width="2.5"/><path d="M709.324 649.74c.035 26.682-.37 52.633-1 78.21m23.121-78.21c.036 26.682-.37 52.633-1 78.21m23.122-78.21c.035 26.682-.37 52.633-1 78.21m23.121-78.21c.036 26.682-.37 52.633-1 78.21m23.122-78.21c.035 26.682-.37 52.633-1 78.21m23.122-78.21c.035 26.682-.37 52.633-1 78.21m23.121-78.21c.036 26.682-.37 52.633-1 78.21m23.122-78.21c.035 26.682-.37 52.633-1 78.21m23.121-78.21c.036 26.682-.37 52.633-.999 78.21m23.121-78.21c.035 26.682-.37 52.633-1 78.21m23.122-78.21c.035 26.682-.37 52.633-1 78.21m23.121-78.21c.036 26.682-.37 52.633-1 78.21m23.122-78.21c.035 26.682-.37 52.633-1 78.21m23.122-78.21c.035 26.682-.37 52.633-1 78.21m23.121-78.21c.035 26.682-.37 52.633-1 78.21m23.122-78.21c.032 24.35-.303 48.092-.84 71.497m17.83-71.498a2762.88 2762.88 0 0 1-.44 51.822m-364.865-51.35c.036 26.682-.37 52.633-1 78.211m-15.255-78.212c.036 26.683-.37 52.634-1 78.212" stroke-width="1.5"/><path d="M930.852 609.809c.86-12.92 5.821-13.076 6.596 0" stroke-width="2.5"/><path d="M934.15 610.84v6.036" stroke-width="2.5" stroke-linecap="round"/><path d="M600.682 483.41v165.913m17.657-165.913v165.913m17.657-165.913v165.913m17.658-165.913v165.913M671.31 483.41v165.913m17.657-165.913v165.913m17.658-165.913v165.913m14.347-165.913v165.913m14.359-165.913v165.913M749.69 483.41v126.933m16.236-127.266v166.246m22.465-166.246v166.246m22.464-166.246v166.246m22.464-166.246v166.246m22.465-166.246v166.246m22.464-166.246v166.246m22.464-166.246v166.246m22.464-166.246v166.246m22.465-166.246v166.246m22.464-166.246v166.246m22.464-166.246v166.246m22.464-166.246v166.246m22.465-166.246v166.246m22.464-166.246v166.246m22.464-166.246v166.246m18.611-166.246v127.846m15.077-121.65v143.644" stroke-width="1.5"/><path d="M1129.192 501.525v100.137" stroke-width="1.5" stroke-linecap="round"/><path d="M100.356 649.504c11.666 41.573 26.955 77.976 59.837 77.976h342.53c17.153 0 32.888 5.197 42.11 43.112M542 649.322c-.58 169.95 17.972 316.857 39.758 459.47m-12.272-80.004l-129.265 23.987c-28.803 5.345-52.493 16.67-52.306 53.305.296 57.893 62.103 73.831 138.26 75.294 13.13.252 25.083-1.215 30.318-12.66l24.986-54.638" stroke-width="2.5"/><path d="M580.934 1114.769H442v-28.034h-51.648m102.12-603.618c-.076-5.988-2.302-10.826-10.489-10.885-8.66-.063-9.833 5.667-9.981 11.307m79.993-144.385l11.494 5.413c-.7 1.386-3.164 1.978-5.122 1.093l-8.058-3.644m5.476-8.734l11.493 5.414c-.699 1.385-3.163 1.977-5.12 1.092l-8.06-3.644m5.476-8.734l11.494 5.414c-.7 1.385-3.164 1.977-5.121 1.092l-8.059-3.644" stroke-width="2.5"/><path d="M541.004 358.801v124.61" stroke-width="1.5"/><path d="M536.645 390.957h-3.71v8.422h3.887m-.177 4.238h-3.71v8.422h3.887m-.177 25.56h-3.71v8.422h3.887m-.177 4.238h-3.71v8.422h3.887m-.177 19.73h-3.71v5m7.95-124.257h-3.71l-1.766 8.422h3.887" stroke-width="2.5" stroke-linejoin="round"/><path d="M79.745 645.491v-35.148h349.862v38.69" stroke-width="2.5"/><path d="M525.691 649.74c.065 26.78 4.328 60.476 18.14 112.252" stroke-width="1.5"/><path d="M547.414 778.42v-86.842c0-15.054 9.76-25.764 21.572-25.764h40.857c11.813 0 21.572 10.71 21.572 25.764v86.843m-84.25-77.626h84.5" stroke-width="2.5"/><path d="M552.368 696.424c-.558-15.54 4.62-26.446 24.28-26.446h25.533c19.66 0 24.839 10.906 24.28 26.446h-37.046zm15.285 76.333v-67.714H611.176v67.714h-21.761zm-4.164-67.714h-11.66v67.714h11.66zm-4.464 77.267h-6.478c-2.508 0-3.108 1.51-3.063 2.474l1.262 26.786c.101 2.159.508 5.139 2.498 5.33 4.109.396 8.6-14.086 8.579-26.985-.008-4.594-.677-7.605-2.798-7.605z" stroke-width="2.5"/><path d="M571.86 1019.522c0 .31.083.562.187.562.103 0 .187-.251.187-.562 0-.31-.084-.562-.187-.562-.104 0-.188.252-.188.562z" stroke-width="1.5" stroke-linecap="round" stroke-linejoin="round"/><path d="M573.983 1056.107c-4.153-9.675-7.74-20.596-13.992-25.653" stroke-width="1.5"/><path d="M547.246 1032.317v75.096m0 7.33v56.093M521.023 1037.5v70.414m0 6.33v58.444m-26.224-130.086v64.479m0 7.496v59.882m-26.224-126.193v59.148m0 7.163v53.219m-26.223-115.532v28.997m0 33.65v45.555m-26.224-93.21v13.339m0 5.997v64.53m117.76-116.336v28.152m-26.714-22.655v28.152m-26.715-22.988v28.152" stroke-width="1.5" stroke-linecap="round"/><path d="M582.81 1016.461c-1.154-62.626-1.73-127.558-1.997-193.73m-3.439 193.73c-3.029-62.978-4.62-128.112-5.89-193.73m1.127 193.73c-7.33-64.577-9.795-129.153-10.955-193.73m-2.807 119.943c-2.076-40.076-4.922-85.538-6.188-119.943m32.984-172.756v14.841m-17.314 1.06h-42.169" stroke-width="1.5"/><path d="M107.305 610.398v7.42h4.594v-7.067m108.013-.353v7.42h4.593v-7.067m64.666-.353v7.42h4.594v-7.067m106.128-.353v7.42h4.593v-7.067M286.11 649.386c1.156 5.468.83 10.772 0 16.019l-18.61-15.548" stroke-width="2.5"/><path d="M469.506 649.74c-.036 26.682.37 52.633 1 78.21m-23.122-78.21c-.035 26.682.37 52.633 1 78.21m-23.121-78.21c-.036 26.682.37 52.633.999 78.21m-23.121-78.21c-.035 26.682.37 52.633 1 78.21m-23.122-78.21c-.035 26.682.37 52.633 1 78.21m-23.121-78.21c-.036 26.682.37 52.633 1 78.21m-23.122-78.21c-.035 26.682.37 52.633 1 78.21m-23.121-78.21c-.036 26.682.37 52.633.999 78.21m-23.121-78.21c-.035 26.682.37 52.633 1 78.21m-23.122-78.21c-.035 26.682.37 52.633 1 78.21m-23.121-78.21c-.036 26.682.37 52.633 1 78.21m-23.122-78.21c-.035 26.682.37 52.633 1 78.21m-23.122-78.21c-.035 26.682.37 52.633 1 78.21m-23.121-78.21c-.035 26.682.37 52.633 1 78.21m-23.122-78.21c-.035 26.682.37 52.633 1 78.21m-23.121-78.21c-.032 24.35.302 48.092.84 71.497m-17.831-71.498a2762.88 2762.88 0 0 0 .44 51.822m364.865-51.35c-.035 26.682.37 52.633 1 78.211m15.255-78.212c-.035 26.683.37 52.634 1 78.212" stroke-width="1.5"/><path d="M247.977 609.809c-.86-12.92-5.82-13.076-6.596 0" stroke-width="2.5"/><path d="M244.68 610.84v6.036" stroke-width="2.5" stroke-linecap="round"/><path d="M578.148 483.41v165.913M560.49 483.41v165.913M542.833 483.41v165.913M525.176 483.41v165.913M507.518 483.41v165.913M489.861 483.41v165.913M472.204 483.41v165.913M457.857 483.41v165.913m-14.36-165.913v165.913M429.139 483.41v126.933m-16.236-127.266v166.246m-22.464-166.246v166.246m-22.465-166.246v166.246M345.51 483.077v166.246m-22.464-166.246v166.246M300.58 483.077v166.246m-22.465-166.246v166.246m-22.464-166.246v166.246m-22.464-166.246v166.246m-22.465-166.246v166.246M188.26 483.077v166.246m-22.464-166.246v166.246M143.33 483.077v166.246m-22.465-166.246v166.246M98.402 483.077v166.246m-18.61-166.246v127.846m-15.078-121.65v143.644" stroke-width="1.5"/><path d="M49.638 501.525v100.137" stroke-width="1.5" stroke-linecap="round"/><path d="M594.008 354.56a3.534 3.534 0 1 1-7.067 0 3.534 3.534 0 0 1 7.067 0z" stroke-width="1.5" stroke-linecap="round" stroke-linejoin="round"/><path d="M595.775 399.674a5.3 5.3 0 1 1-10.6 0 5.3 5.3 0 0 1 10.6 0z" stroke-width="1.5" stroke-linecap="round" stroke-linejoin="round"/><path d="M589.418 1035.203v196.177" stroke-width="1.5"/><path d="M545.776 800.88l-3.578.16c-.546.024-.945-.187-1.067-1.672-.214-2.607-.318-5.218-.41-7.267-.091-2.048-.22-4.658-.239-7.273-.01-1.49.368-1.736.915-1.76l3.578-.16" stroke-width="2.5"/><path d="M507.928 1115.565c.1.698-.18 1.391-.624 1.548-.444.157-.885-.281-.985-.98a2.023 2.023 0 0 1-.01-.48l.814.196z" stroke-width="2.5" stroke-linecap="round" stroke-linejoin="round"/><path d="M564.065 1115.565c.1.698-.18 1.391-.624 1.548-.444.157-.885-.281-.985-.98a2.023 2.023 0 0 1-.01-.48l.814.196z" stroke-width="2.5" stroke-linecap="round" stroke-linejoin="round"/><path d="M615.351 1115.565c.1.698-.18 1.391-.623 1.548-.445.157-.886-.281-.986-.98a2.023 2.023 0 0 1-.01-.48l.815.196z" stroke-width="2.5" stroke-linecap="round" stroke-linejoin="round"/><path d="M671.488 1115.565c.1.698-.18 1.391-.624 1.548-.444.157-.885-.281-.985-.98a2.023 2.023 0 0 1-.01-.48l.814.196z" stroke-width="2.5" stroke-linecap="round" stroke-linejoin="round"/><path d="M481.033 483.75V649.5m216.764-166.09v165.913" stroke-width="1.5"/></g><g transform="matrix(.97277 0 0 .97277 -17.617 4.124)"><path d="M1118 211.625c0 15.257-12.368 27.625-27.625 27.625s-27.625-12.368-27.625-27.625S1075.118 184 1090.375 184 1118 196.368 1118 211.625z" fill="none" stroke="#000000" stroke-width="2.5" stroke-linecap="round"/><path d="M1113.695 211.625c0 12.88-10.44 23.32-23.32 23.32s-23.32-10.44-23.32-23.32 10.44-23.32 23.32-23.32 23.32 10.44 23.32 23.32z" fill="none" stroke="#000000" stroke-width="1.5000073703296002" stroke-linecap="round"/><path d="M1092.138 211.625a1.763 1.763 0 1 1-3.526 0 1.763 1.763 0 0 1 3.526 0z" fill="none" stroke="#000000" stroke-width="1.4999374962282002" stroke-linecap="round"/><path d="M1135.754 172.819l-15.874-37.528c-5.202-13.636-12.905-15.38-29.63-15.38s-24.428 1.744-29.63 15.38l-15.874 37.528" fill="none" stroke="#000000" stroke-width="2.5"/><path d="M1106.003 126.673v21.965c7.095.974 13.059 3.902 19.16 8.188l-9.349-21.535c-1.656-3.816-5.298-6.893-9.81-8.618z" fill="none" stroke="#000000" stroke-width="2.5" stroke-miterlimit="3.5"/><path d="M1103.352 186.822h35.797m.796 9.369h-26.429" fill="none" stroke="#000000" stroke-width="1.5"/><path d="M1095 108.875v11.046" fill="none" stroke="#000000" stroke-width="2.5"/><path d="M1099.932 89.53v19.413m17.657-19.412v19.412m17.657-19.412v19.412m17.658-19.412v19.412m17.657-19.412v19.412m17.657-19.412v18.833m17.658-18.833v18.833m14.347-18.833v18.833m14.359-18.833v18.833m14.359-18.833v18.932m16.236-19.266v19.167m22.465-19.167v19.167m22.464-19.167v19.167m22.464-19.167v19.167m22.465-19.167v19.167m22.464-19.167v19.167m22.464-19.167v19.167m22.464-19.167v19.167m22.465-19.167v19.167m22.464-19.167v19.167m22.464-19.167v19.167m22.465-19.167v19.167m22.464-19.167v19.167m22.464-19.167v19.746m22.464-19.746v20.246m18.611-20.246v19.846m15.077-17.54v16.534" fill="none" stroke="#000000" stroke-width="1.5"/><path d="M1628.442 92.796v13.986" fill="none" stroke="#000000" stroke-width="1.5" stroke-linecap="round"/><path d="M1197.047 89.53v18.834" fill="none" stroke="#000000" stroke-width="1.5"/><path d="M1140.533 262.728c3.693 4.763 10.328 7.752 39.628 6.737L1525.5 257.5c30.792-1.067 51.443 5.862 51.75 9.75.506 6.408-32.13 8.945-55.75 9.75L1140 290" fill="none" stroke="#000000" stroke-width="2.5"/><path d="M1573.625 270.75l-435.75 13.75" fill="none" stroke="#000000" stroke-width="1.5"/><path d="M1442.25 108.875l-43.125 152.875m38.125-152.875l-43.125 152.875" fill="none" stroke="#000000" stroke-width="2.5"/><g transform="rotate(-1.897 -3505.357 -3941.469)"><path d="M1070.863 422.05v19.788m22.121-19.787v19.787m22.122-19.787v19.787m22.121-19.787v19.787m22.122-19.787v19.787m22.122-19.787v19.787m22.121-19.787v19.787m22.122-19.787v19.787m22.121-19.787v19.787m22.122-19.787v19.787m22.122-19.787v19.787m22.121-19.787v19.787m22.122-19.787v19.787m22.122-19.787v19.787m22.121-19.787v19.787m22.202-19.787l.09 18.34m17.107-15.018c.014 4.682.042 9.342.068 13.981m-365.66-16.832v19.787m-16.255-19.787v19.787" fill="none" stroke="#000000" stroke-width="1.5"/></g><path d="M1188.5 108.75l-51.75 66.75m44.933-66.932l-47.231 60.922m3.673 11.635L1289 177.5c7.41-.178 7.287-5.889 0-6l-147.75-2.25" fill="none" stroke="#000000" stroke-width="2.5"/><path d="M1137.205 175.42h156.977" fill="none" stroke="#000000" stroke-width="1.5"/><g transform="translate(516.188 -877.166)"><path d="M631.583 1046.282v11.131m26.224-10.721v10.72m26.223-10.391v9.309m26.224-8.065v7.648m26.224-7.716v7.563m26.223-6.801v5.385m-117.76-7.892v11.235m26.715-10.334v9.58m26.715-9.808v9.473" fill="none" stroke="#000000" stroke-width="1.5" stroke-linecap="round"/></g><path d="M1138.375 182.5c11.388 4.795 20.3 19.187 20.5 39.75.122 12.616-2.699 30.925-17.375 37.375m56.969-79.688l-39.492 40.88m33.752-40.964l-34.502 35.714m-58.602 119.87c-.372 5.012-1.07 13.5-3.188 13.5h-12.374c-2.118 0-2.816-8.488-3.188-13.5m56.5-50.062l50.5 107.25" fill="none" stroke="#000000" stroke-width="2.5"/><path d="M1135.125 298.25L1173 385.5c2.448 5.639 4.08 12.336 4.333 16.017.378 5.524-1.456 8.065-3.89 6.01l-74.953-63.286m-1.365 4.759l77.5 65.438c3.45 2.913 6.874 3.15 9.69 3.784m247.488-328.628c.049-2.691 1.224-4.557 3.535-4.507 2.352.05 3.719 1.882 3.801 4.596" fill="none" stroke="#000000" stroke-width="2.5"/><path d="M1137.25 280.75L1433.75 109m-226.375-.25l184.211 153.29" fill="none" stroke="#000000" stroke-width="1px"/><path d="M1148.5 328.5l7.25-2.75m21.5 71l10.5-4.375" fill="none" stroke="#000000" stroke-width="1.5"/><path d="M1121.825 330.276c3.997-12.28 5.98-22.547 7.675-32.526H1051c1.695 9.979 3.678 20.245 7.675 32.526h31.575zm-31.575-32.173v31.643m6.28-31.643v31.643m6.28-31.643v31.643m6.279-31.643v31.643m6.28-31.643v31.643m6.28-31.643v31.643" fill="none" stroke="#000000" stroke-width="2.5"/><path d="M1100.437 269.431c0 5.557-4.505 10.062-10.062 10.062-5.557 0-10.062-4.505-10.062-10.062 0-5.557 4.505-10.062 10.062-10.062 5.557 0 10.062 4.505 10.062 10.062z" fill="none" stroke="#000000" stroke-width="2.5000123823680003" stroke-linecap="round"/><path d="M1104.125 292.125h14.125" fill="none" stroke="#000000" stroke-width="1.5" stroke-linecap="round"/><path d="M1106.357 234.021c8.749 15.277 19.774 24.814 33.941 26.428" fill="none" stroke="#000000" stroke-width="1.5"/><path d="M1145.425 237.38a3.359 3.359 0 1 1-6.718 0 3.359 3.359 0 0 1 6.718 0z" fill="#000000" stroke="#000000" stroke-width="1.5" stroke-linecap="round" stroke-linejoin="round"/><path d="M1144.717 209.272a3.359 3.359 0 1 1-6.717 0 3.359 3.359 0 0 1 6.717 0z" fill="#000000" stroke="#000000" stroke-width="1.5" stroke-linecap="round" stroke-linejoin="round"/><path d="M1110.373 238.147a.264.264 0 1 1-.527 0 .264.264 0 0 1 .527 0z" fill="none" stroke="#000000" stroke-width="1.5" stroke-linecap="round"/><path d="M1110.373 241.727a.264.264 0 1 1-.527 0 .264.264 0 0 1 .527 0z" fill="none" stroke="#000000" stroke-width="1.5" stroke-linecap="round"/><path d="M1117.268 246.809a.264.264 0 1 1-.528 0 .264.264 0 0 1 .528 0z" fill="none" stroke="#000000" stroke-width="1.5" stroke-linecap="round"/><path d="M1117.268 250.39a.264.264 0 1 1-.528 0 .264.264 0 0 1 .528 0z" fill="none" stroke="#000000" stroke-width="1.5" stroke-linecap="round"/><path d="M1125.134 252.996a.264.264 0 1 1-.527 0 .264.264 0 0 1 .527 0z" fill="none" stroke="#000000" stroke-width="1.5" stroke-linecap="round"/><path d="M1125.134 256.577a.264.264 0 1 1-.527 0 .264.264 0 0 1 .527 0z" fill="none" stroke="#000000" stroke-width="1.5" stroke-linecap="round"/><path d="M1133 256.974a.264.264 0 1 1-.527 0 .264.264 0 0 1 .528 0z" fill="none" stroke="#000000" stroke-width="1.5" stroke-linecap="round"/><path d="M1133 260.554a.264.264 0 1 1-.527 0 .264.264 0 0 1 .528 0z" fill="none" stroke="#000000" stroke-width="1.5" stroke-linecap="round"/><path d="M1175.5 108.5l-66 55" fill="none" stroke="#000000"/><path d="M1183.5 425.75c.48-10.327 1.12-17.784 2.625-25.5 9.178-47.075 16.055-48.319 21.995-47.633 5.94.687 12.347 3.482 10.433 51.405-.313 7.855-1.408 15.259-3.32 25.419-1.524 8.1-6.943 7.946-16.875 6.794-9.932-1.153-15.24-2.252-14.858-10.485z" fill="none" stroke="#000000" stroke-width="2.5"/><path d="M1187.75 433.938l-.813 6.687c-.985 8.111-.18 14.466 8 15.5 7.817.988 12.093-2.333 13.25-12.75l.75-6.75" fill="none" stroke="#000000" stroke-width="2.5"/><path d="M1096.433 133.932a6.058 6.058 0 1 1-12.116 0 6.058 6.058 0 0 1 12.116 0z" fill="none" stroke="#000000" stroke-width="1.5" stroke-linecap="round"/><path d="M1090.374 140.27v7.894" fill="none" stroke="#000000" stroke-width="1.5"/><path d="M1091.837 133.932a1.462 1.462 0 1 1-2.924 0 1.462 1.462 0 0 1 2.924 0z" fill="none" stroke="#000000" stroke-linecap="round"/><path d="M1090.374 128.25v4.301m0 2.696v4.873m5.76-6.2h-4.45m-2.828 0h-4.24" fill="none" stroke="#000000"/><path d="M1123.875 210.375c-.102 6.152-.874 12.136-1.625 18.125h8.875c1.099-6.35 1.473-12.267 1.75-18.125z" fill="none" stroke="#000000" stroke-width="1.5"/><path d="M1125.953 213.375c-.205 3.892-.627 8.002-1.063 12.125m3.294-12.125c-.204 3.892-.626 8.002-1.062 12.125m3.294-12.125c-.204 3.892-.626 8.002-1.062 12.125" fill="none" stroke="#000000" stroke-width="1.5" stroke-linecap="round"/><path d="M1105.34 178.778l9.458 5.171c.75-.922.62-3.037-.53-3.668l-5.48-3.005c-1.169-.641-2.587.533-3.447 1.502z" fill="none" stroke="#000000" stroke-width="2.5"/><path d="M1115.339 181.949l2.332 1.36c.75-.923.62-3.038-.53-3.669l-5.48-3.005c-.72-.394-1.533-.102-2.253.407" fill="none" stroke="#000000" stroke-width="2.5"/><path d="M1118.253 181.415l2.29 1.252c.751-.922.62-3.037-.53-3.668l-5.48-3.005c-.77-.423-1.65-.056-2.406.521" fill="none" stroke="#000000" stroke-width="2.5"/><path d="M1115.947 161.764l-2.758 2.478c3.994.784 7.665 1.96 10.253 3.58l2.36-2.435c-3.037-1.548-6.16-2.98-9.855-3.623z" fill="none" stroke="#000000" stroke-width="1.5"/><path d="M1116.89 163.537a27.832 27.832 0 0 1 5.745 2.011" fill="none" stroke="#000000" stroke-width="1.5" stroke-linecap="round"/><path d="M1194.5 366c5.687 4.901 12.658 7.643 23.5 3.875" fill="none" stroke="#000000" stroke-width="1.5"/><path d="M1055.5 335.25c-9.038-27.213-12.816-50.096-15.25-69.563-2.333-18.66-1.313-42.63.04-67.817 1.898-35.32 11.709-38.586 35.958-40.274 9.673-.674 18.646-.56 27.872-.008 24.36 1.456 34.189 4.899 36.09 40.282 1.353 25.187 2.373 49.156.04 67.817-2.434 19.467-6.212 42.35-15.25 69.563h-34.75z" fill="none" stroke="#000000" stroke-width="2.5" stroke-linejoin="round"/><path d="M1078.563 148.014v-22.48c3.649-.881 8.355-1.194 11.687-1.194 3.332 0 8.038.313 11.687 1.194v22.48c-3.444-.223-7.427-.26-11.687-.26s-8.243.037-11.687.26z" fill="none" stroke="#000000" stroke-width="2.5"/><path d="M1074.497 126.673v21.965c-7.094.974-13.059 3.902-19.16 8.188l9.349-21.535c1.656-3.816 5.298-6.893 9.81-8.618z" fill="none" stroke="#000000" stroke-width="2.5" stroke-miterlimit="3.5"/><path d="M1077.148 186.822h-35.797m-.795 9.369h26.428" fill="none" stroke="#000000" stroke-width="1.5"/><path d="M599.763 89.875c-35.995 0-62.977 3.881-63.013 9.375-.059 8.978 39.2 9.525 63.366 9.525h980.268c24.166 0 63.425-.547 63.366-9.525-.036-5.494-27.018-9.375-63.013-9.375H1090.25zm485.737-.75c0-24.94.33-44.5 4.75-44.5s4.75 19.56 4.75 44.5m-9.5 19.75v11.046" fill="none" stroke="#000000" stroke-width="2.5"/><path d="M539.305 102.75h1101.89m-560.627-13.22v19.413m-17.657-19.412v19.412m-17.657-19.412v19.412m-17.657-19.412v19.412m-17.658-19.412v19.412M992.282 89.53v18.833m-17.657-18.833v18.833m-14.347-18.833v18.833m-14.36-18.833v18.833M931.56 89.531v18.932m-16.236-19.266v19.167m-22.465-19.167v19.167m-22.464-19.167v19.167M847.93 89.197v19.167m-22.464-19.167v19.167M803 89.197v19.167m-22.464-19.167v19.167m-22.464-19.167v19.167m-22.465-19.167v19.167m-22.464-19.167v19.167M690.68 89.197v19.167m-22.464-19.167v19.167M645.75 89.197v19.167m-22.464-19.167v19.746m-22.464-19.746v20.246m-18.61-20.246v19.846m-15.078-17.54v16.534" fill="none" stroke="#000000" stroke-width="1.5"/><path d="M552.058 92.796v13.986" fill="none" stroke="#000000" stroke-width="1.5" stroke-linecap="round"/><path d="M983.453 89.53v18.834" fill="none" stroke="#000000" stroke-width="1.5"/><path d="M1039.967 262.728c-3.693 4.763-10.328 7.752-39.628 6.737L655 257.5c-30.792-1.067-51.443 5.862-51.75 9.75-.506 6.408 32.13 8.945 55.75 9.75l381.5 13" fill="none" stroke="#000000" stroke-width="2.5"/><path d="M606.875 270.75l435.75 13.75" fill="none" stroke="#000000" stroke-width="1.5"/><path d="M738.25 108.875l43.125 152.875M743.25 108.875l43.125 152.875" fill="none" stroke="#000000" stroke-width="2.5"/><g transform="scale(-1 1) rotate(-1.897 -4595.607 61898.25)"><path d="M1070.863 422.05v19.788m22.121-19.787v19.787m22.122-19.787v19.787m22.121-19.787v19.787m22.122-19.787v19.787m22.122-19.787v19.787m22.121-19.787v19.787m22.122-19.787v19.787m22.121-19.787v19.787m22.122-19.787v19.787m22.122-19.787v19.787m22.121-19.787v19.787m22.122-19.787v19.787m22.122-19.787v19.787m22.121-19.787v19.787m22.202-19.787l.09 18.34m17.107-15.018c.014 4.682.042 9.342.068 13.981m-365.66-16.832v19.787m-16.255-19.787v19.787" fill="none" stroke="#000000" stroke-width="1.5"/></g><path d="M992 108.75l51.75 66.75m-44.933-66.932l47.231 60.922m-3.673 11.635L891.5 177.5c-7.409-.178-7.286-5.889 0-6l147.75-2.25" fill="none" stroke="#000000" stroke-width="2.5"/><path d="M1043.296 175.42H886.318" fill="none" stroke="#000000" stroke-width="1.5"/><g transform="matrix(-1 0 0 1 1664.312 -877.166)"><path d="M631.583 1046.282v11.131m26.224-10.721v10.72m26.223-10.391v9.309m26.224-8.065v7.648m26.224-7.716v7.563m26.223-6.801v5.385m-117.76-7.892v11.235m26.715-10.334v9.58m26.715-9.808v9.473" fill="none" stroke="#000000" stroke-width="1.5" stroke-linecap="round"/></g><path d="M1042.125 182.5c-11.388 4.795-20.3 19.187-20.5 39.75-.122 12.616 2.699 30.925 17.375 37.375m-56.969-79.688l39.492 40.88m-33.752-40.964l34.502 35.714m20.852 69.808l-50.5 107.25m52.75-94.375L1007.5 385.5c-2.448 5.639-4.08 12.336-4.333 16.017-.378 5.524 1.456 8.065 3.89 6.01l74.953-63.286m1.365 4.759l-77.5 65.438c-3.45 2.913-6.874 3.15-9.69 3.784M748.697 89.594c-.049-2.691-1.224-4.557-3.535-4.507-2.352.05-3.719 1.882-3.801 4.596" fill="none" stroke="#000000" stroke-width="2.5"/><path d="M1043.25 280.75L746.75 109m226.375-.25L788.914 262.04" fill="none" stroke="#000000" stroke-width="1px"/><path d="M1032 328.5l-7.25-2.75m-21.5 71l-10.5-4.375" fill="none" stroke="#000000" stroke-width="1.5"/><path d="M1083.97 298.103v31.643m-6.28-31.643v31.643m-6.279-31.643v31.643m-6.28-31.643v31.643m-6.279-31.643v31.643" fill="none" stroke="#000000" stroke-width="2.5"/><path d="M1080.5 292.125c-4.19-6.912-7.49-13.519-7.543-22.89-.055-9.696 5.587-15.485 17.293-15.485s17.348 5.79 17.293 15.485c-.053 9.371-3.354 15.978-7.543 22.89h-9.75z" fill="none" stroke="#000000" stroke-width="1.5"/><path d="M1076.375 292.125h-14.125" fill="none" stroke="#000000" stroke-width="1.5" stroke-linecap="round"/><path d="M1074.143 234.021c-8.749 15.277-19.774 24.814-33.941 26.428" fill="none" stroke="#000000" stroke-width="1.5"/><path d="M1035.076 237.38a3.359 3.359 0 1 0 6.717 0 3.359 3.359 0 0 0-6.717 0z" fill="#000000" stroke="#000000" stroke-width="1.5" stroke-linecap="round" stroke-linejoin="round"/><path d="M1035.783 209.272a3.359 3.359 0 1 0 6.717 0 3.359 3.359 0 0 0-6.717 0z" fill="#000000" stroke="#000000" stroke-width="1.5" stroke-linecap="round" stroke-linejoin="round"/><path d="M1070.127 238.147a.264.264 0 1 0 .527 0 .264.264 0 0 0-.527 0z" fill="none" stroke="#000000" stroke-width="1.5" stroke-linecap="round"/><path d="M1070.127 241.727a.264.264 0 1 0 .527 0 .264.264 0 0 0-.527 0z" fill="none" stroke="#000000" stroke-width="1.5" stroke-linecap="round"/><path d="M1063.233 246.809a.264.264 0 1 0 .527 0 .264.264 0 0 0-.527 0z" fill="none" stroke="#000000" stroke-width="1.5" stroke-linecap="round"/><path d="M1063.233 250.39a.264.264 0 1 0 .527 0 .264.264 0 0 0-.527 0z" fill="none" stroke="#000000" stroke-width="1.5" stroke-linecap="round"/><path d="M1055.366 252.996a.264.264 0 1 0 .528 0 .264.264 0 0 0-.528 0z" fill="none" stroke="#000000" stroke-width="1.5" stroke-linecap="round"/><path d="M1055.366 256.577a.264.264 0 1 0 .528 0 .264.264 0 0 0-.528 0z" fill="none" stroke="#000000" stroke-width="1.5" stroke-linecap="round"/><path d="M1047.5 256.974a.264.264 0 1 0 .527 0 .264.264 0 0 0-.528 0z" fill="none" stroke="#000000" stroke-width="1.5" stroke-linecap="round"/><path d="M1047.5 260.554a.264.264 0 1 0 .527 0 .264.264 0 0 0-.528 0z" fill="none" stroke="#000000" stroke-width="1.5" stroke-linecap="round"/><path d="M1080.065 242.771c3.566 1.468 6.782 1.591 10.185 1.591 3.403 0 6.62-.123 10.185-1.59" fill="none" stroke="#000000" stroke-width="1.5" stroke-linecap="round"/><path d="M1005 108.5l66 55" fill="none" stroke="#000000"/><path d="M997 425.75c-.48-10.327-1.12-17.784-2.625-25.5-9.178-47.075-16.055-48.319-21.995-47.633-5.94.687-12.347 3.482-10.433 51.405.313 7.855 1.408 15.259 3.32 25.419 1.524 8.1 6.943 7.946 16.875 6.794 9.932-1.153 15.24-2.252 14.858-10.485z" fill="none" stroke="#000000" stroke-width="2.5"/><path d="M992.75 433.938l.813 6.687c.985 8.111.18 14.466-8 15.5-7.817.988-12.093-2.333-13.25-12.75l-.75-6.75" fill="none" stroke="#000000" stroke-width="2.5"/><path d="M1056.625 210.375c.102 6.152.874 12.136 1.625 18.125h-8.875c-1.098-6.35-1.473-12.267-1.75-18.125z" fill="none" stroke="#000000" stroke-width="1.5"/><path d="M1054.547 213.375c.205 3.892.627 8.002 1.063 12.125m-3.294-12.125c.204 3.892.626 8.002 1.062 12.125m-3.294-12.125c.204 3.892.627 8.002 1.062 12.125" fill="none" stroke="#000000" stroke-width="1.5" stroke-linecap="round"/><path d="M1075.16 178.778l-9.458 5.171c-.75-.922-.62-3.037.53-3.668l5.48-3.005c1.169-.641 2.587.533 3.448 1.502z" fill="none" stroke="#000000" stroke-width="2.5"/><path d="M1065.161 181.949l-2.332 1.36c-.75-.923-.62-3.038.53-3.669l5.48-3.005c.72-.394 1.533-.102 2.253.407" fill="none" stroke="#000000" stroke-width="2.5"/><path d="M1062.247 181.415l-2.29 1.252c-.75-.922-.62-3.037.53-3.668l5.48-3.005c.77-.423 1.65-.056 2.406.521" fill="none" stroke="#000000" stroke-width="2.5"/><path d="M1064.553 161.764l2.758 2.478c-3.994.784-7.665 1.96-10.253 3.58l-2.36-2.435c3.037-1.548 6.16-2.98 9.855-3.623z" fill="none" stroke="#000000" stroke-width="1.5"/><path d="M1063.61 163.537a27.832 27.832 0 0 0-5.745 2.011" fill="none" stroke="#000000" stroke-width="1.5" stroke-linecap="round"/><path d="M986 366c-5.687 4.901-12.658 7.643-23.5 3.875" fill="none" stroke="#000000" stroke-width="1.5"/><path d="M1080.065 245.82c3.566 1.468 6.782 1.592 10.185 1.592 3.403 0 6.62-.124 10.185-1.591m-20.37 3.05c3.566 1.466 6.782 1.59 10.185 1.59 3.403 0 6.62-.124 10.185-1.59" fill="none" stroke="#000000" stroke-width="1.5" stroke-linecap="round"/><path d="M1290.471 211.625c0 110.51-89.586 200.097-200.096 200.097s-200.097-89.587-200.097-200.097 89.587-200.097 200.097-200.097 200.096 89.587 200.096 200.097z" fill="none" stroke="#000000" stroke-width="1.0000049107392" stroke-linecap="round"/></g><path d="M1042.957 47.945v43.163m0 18.708v10.902" fill="none" stroke="#000000" stroke-width="1.5"/></svg>