<svg xmlns="http://www.w3.org/2000/svg" viewBox="0 0 1330.8 1077.41"><defs><style>.cls-1,.cls-10,.cls-2,.cls-44,.cls-58,.cls-59,.cls-6,.cls-60,.cls-7,.cls-8,.cls-9{fill:none;}.cls-1,.cls-10,.cls-11,.cls-2,.cls-3,.cls-44,.cls-57,.cls-58,.cls-59,.cls-6,.cls-8,.cls-9{stroke:#000;}.cls-1,.cls-10,.cls-2,.cls-3,.cls-44,.cls-57,.cls-58,.cls-59,.cls-6,.cls-7,.cls-8,.cls-9{stroke-miterlimit:10;}.cls-2{stroke-width:0.88px;}.cls-11,.cls-3{font-size:10px;}.cls-3{fill:#1e00d7;}.cls-11,.cls-19,.cls-3,.cls-45{font-family:MyriadPro-Regular, Myriad Pro;}.cls-4{letter-spacing:0em;}.cls-5{letter-spacing:0.01em;}.cls-6{stroke-width:1.54px;}.cls-7{stroke:#0023eb;}.cls-8{stroke-width:0.95px;}.cls-9{stroke-width:0.93px;}.cls-10{stroke-width:0.75px;}.cls-12{letter-spacing:-0.01em;}.cls-13{letter-spacing:0em;}.cls-14{letter-spacing:-0.01em;}.cls-15{letter-spacing:0em;}.cls-16{letter-spacing:0.03em;}.cls-17{letter-spacing:-0.04em;}.cls-18{letter-spacing:-0.01em;}.cls-19{font-size:12px;}.cls-20{letter-spacing:0.01em;}.cls-21{letter-spacing:0em;}.cls-22{letter-spacing:-0.01em;}.cls-23{letter-spacing:0em;}.cls-24{letter-spacing:-0.01em;}.cls-25{letter-spacing:0em;}.cls-26{letter-spacing:0em;}.cls-27{letter-spacing:-0.01em;}.cls-28{letter-spacing:0.01em;}.cls-29{letter-spacing:-0.01em;}.cls-30{letter-spacing:-0.04em;}.cls-31{letter-spacing:0em;}.cls-32{letter-spacing:0em;}.cls-33{letter-spacing:-0.01em;}.cls-34{letter-spacing:0em;}.cls-35{letter-spacing:-0.01em;}.cls-36{letter-spacing:0em;}.cls-37{letter-spacing:0.01em;}.cls-38{letter-spacing:0.01em;}.cls-39{letter-spacing:-0.01em;}.cls-40{letter-spacing:-0.01em;}.cls-41{letter-spacing:-0.01em;}.cls-42{letter-spacing:-0.01em;}.cls-43{letter-spacing:0em;}.cls-44{stroke-width:1.62px;}.cls-45{font-size:19.44px;}.cls-46{letter-spacing:0.01em;}.cls-47{letter-spacing:0em;}.cls-48{letter-spacing:0em;}.cls-49{letter-spacing:0.02em;}.cls-50{letter-spacing:-0.01em;}.cls-51{letter-spacing:0em;}.cls-52{letter-spacing:0em;}.cls-53{letter-spacing:-0.01em;}.cls-54{letter-spacing:0em;}.cls-55{letter-spacing:-0.01em;}.cls-56{letter-spacing:0.01em;}.cls-58{stroke-width:0.71px;}.cls-59{stroke-width:0.71px;}</style></defs><title>Blueprint</title><g id="Text"><path class="cls-1" d="M765.87,522.3v-5.73L654.28,529.73l-.32,0v-3.45s.11-.65.59-.61,2.26,0,2.26,0v-5.62l-2.67,0s-.18.06-.18-.23V516s0-.15.22-.15h2.63v-5.74h-2.57a.28.28,0,0,1-.29-.29V506s-.06-.2.2-.2h2.66v-15.9s.25-12.07-3.28-13.44c-5-.43-14.38.38-15.9-1.35-2.61-3-2.26-5.54-2.26-5.54s-.1-.38,1.25-.38,0-1.23,0-1.23-1.31-.31-1.36-.77,0-17.53,0-17.53-.36-2-1.5-2.41a16.24,16.24,0,0,0-3.76-.5s-2.14-.14-2.14-1.91V420.26c0-1,1.7-3,1.7-3s35.7-35.16,78.86-33.76c41.68,1.35,59.78,15.1,79.28,33.17a6.53,6.53,0,0,1,2.09,4.79v25.73l-4.74.62s-1.62.27-1.66,1.66.33,17.44.33,17.44-.48,1.14-1.47,1.26v1.21h1.58s.18-.16.18.81v1.51s.9,5.5-6.61,5.5h-9.5s-2.1-.05-2.1,6.68.09,8.08.09,8.08h2.64s.53-.16.58.48,0,3.51,0,3.51.21.44-.26.45h-3v5.76h2.85s.53-.05.53.32v3.64s.05.48-.37.48h-3v5.78h2.81s.37,0,.31.4,0,3.39,0,3.39,0,.42-.31.42h-2.84v5.73" transform="translate(-53.53 -38.11)"/><path class="cls-1" d="M765.72,521.88h2.82s.29,0,.29.26v3.48s0,.32-.29.29-2.81,0-2.81,0v6.81a24.88,24.88,0,0,0,2.83,2s.32.2.32.32v1.26s.08.28-.32.35-1,.16-1.09.49.08.77.12.74a9.56,9.56,0,0,1,1,.06s.3,0,.35.21.43,13.71.43,13.71a.73.73,0,0,1-.54.68c-.54.15-114,0-114,0s-1.44-.1-1.27-1.85l.28-11.4a1.59,1.59,0,0,1,1.56-1.19l0-1.05s.78,0-.66-.12c0,0-.47.09-.51-.52s0-1.62,0-1.67.06-.39.38-.37,111.09-12.51,111.09-12.51" transform="translate(-53.53 -38.11)"/><path class="cls-1" d="M767.7,537.45" transform="translate(-53.53 -38.11)"/><line class="cls-1" x1="603.29" y1="491.32" x2="603.29" y2="495.83"/><path class="cls-1" d="M655.56,537.48" transform="translate(-53.53 -38.11)"/><path class="cls-1" d="M670.83,535.94" transform="translate(-53.53 -38.11)"/><line class="cls-1" x1="712.2" y1="487.8" x2="601.89" y2="498.95"/><line class="cls-1" x1="712.36" y1="453.84" x2="603.29" y2="467.64"/><polyline class="cls-1" points="712.31 464.04 603.28 477.7 603.28 471.95 712.31 458.28"/><path class="cls-1" d="M765.84,502.15" transform="translate(-53.53 -38.11)"/><polyline class="cls-1" points="712.37 474.25 603.28 487.59 603.28 481.97 712.37 468.47"/><polyline class="cls-1" points="583.09 431.02 728.73 431.26 728.73 430.05 583.09 429.79"/><polyline class="cls-1" points="574.34 406.68 736.27 406.68 736.27 382.88 574.34 382.88"/><path class="cls-1" d="M639.41,420.31H775.62a7.43,7.43,0,0,0,6.38-3.16.59.59,0,0,0-.08-.75c-24.53-24.05-46.7-29.75-78.32-29.75-27.77,0-60.06,23.33-67.74,29.19C635.87,415.83,633,418.63,639.41,420.31Z" transform="translate(-53.53 -38.11)"/><polyline class="cls-1" points="601.85 500 714.05 500 714.17 499.33 602.03 499.33"/><rect class="cls-1" x="580.67" y="385.54" width="143.7" height="18.47"/><path class="cls-1" d="M650.19,434.58l-.84,2.54h-1.08L651,429h1.25l2.76,8.08h-1.12l-.86-2.54Zm2.66-.82-.8-2.33c-.18-.53-.3-1-.42-1.48h0c-.12.47-.24,1-.41,1.46l-.79,2.34Z" transform="translate(-53.53 -38.11)"/><path class="cls-1" d="M656.15,428.61h1.06v8.52h-1.06Z" transform="translate(-53.53 -38.11)"/><path class="cls-1" d="M659,432.89c0-.61,0-1.09,0-1.57h.92l0,.95h0a2,2,0,0,1,1.83-1.07,1.71,1.71,0,0,1,1.63,1.16h0a2.29,2.29,0,0,1,.66-.76,2,2,0,0,1,1.27-.41c.78,0,1.92.5,1.92,2.52v3.41h-1v-3.27c0-1.13-.42-1.79-1.26-1.79a1.39,1.39,0,0,0-1.26.95,1.81,1.81,0,0,0-.08.53v3.59h-1v-3.48c0-.92-.41-1.58-1.21-1.58a1.45,1.45,0,0,0-1.31,1.06,1.42,1.42,0,0,0-.08.52v3.49h-1Z" transform="translate(-53.53 -38.11)"/><path class="cls-1" d="M674.24,434.17a2.84,2.84,0,0,1-2.89,3.08,2.77,2.77,0,0,1-2.78-3,2.84,2.84,0,0,1,2.88-3.07A2.75,2.75,0,0,1,674.24,434.17Zm-4.59.06c0,1.27.72,2.23,1.75,2.23s1.76-.95,1.76-2.25c0-1-.49-2.22-1.74-2.22S669.65,433.14,669.65,434.23Z" transform="translate(-53.53 -38.11)"/><path class="cls-1" d="M675.58,432.89c0-.61,0-1.09,0-1.57h.94l.06,1h0a2.15,2.15,0,0,1,1.92-1.08c.8,0,2.05.48,2.05,2.47v3.45h-1.06v-3.35c0-.94-.35-1.71-1.34-1.71a1.55,1.55,0,0,0-1.49,1.57v3.49h-1.06Z" transform="translate(-53.53 -38.11)"/><path class="cls-1" d="M687.24,428.61v7c0,.52,0,1.1,0,1.5h-.94l0-1h0a2.1,2.1,0,0,1-2,1.14c-1.4,0-2.49-1.19-2.49-3,0-1.93,1.2-3.11,2.6-3.11a2,2,0,0,1,1.75.88h0v-3.47Zm-1,5.07a1.85,1.85,0,0,0,0-.44,1.55,1.55,0,0,0-1.52-1.21c-1.09,0-1.74,1-1.74,2.23s.59,2.15,1.72,2.15a1.6,1.6,0,0,0,1.55-1.26,1.82,1.82,0,0,0,0-.46Z" transform="translate(-53.53 -38.11)"/><path class="cls-1" d="M698.4,433.57c-.06-1.13-.13-2.5-.13-3.49h0c-.29.94-.61,2-1,3.07l-1.43,3.92H695l-1.32-3.85c-.38-1.15-.7-2.18-.92-3.14h0c0,1-.08,2.35-.16,3.57l-.22,3.47h-1l.56-8.08h1.33l1.38,3.91c.34,1,.6,1.88.82,2.72h0c.22-.82.5-1.7.86-2.72l1.44-3.91h1.33l.5,8.08h-1Z" transform="translate(-53.53 -38.11)"/><path class="cls-1" d="M702.52,429.69a.63.63,0,0,1-.67.65.62.62,0,0,1-.64-.65.64.64,0,0,1,.66-.66A.63.63,0,0,1,702.52,429.69Zm-1.18,7.44v-5.8h1.06v5.8Z" transform="translate(-53.53 -38.11)"/><path class="cls-1" d="M704.15,428.61h1.06v8.52h-1.06Z" transform="translate(-53.53 -38.11)"/><path class="cls-1" d="M708,434h0c.14-.2.34-.46.5-.66l1.71-2h1.26l-2.23,2.39,2.55,3.42h-1.29l-2-2.78-.54.6v2.18h-1v-8.52h1Z" transform="translate(-53.53 -38.11)"/><path class="cls-1" d="M717.43,428.8a8,8,0,0,0-1.5,4.92,8.12,8.12,0,0,0,1.5,4.86h-.82A7.75,7.75,0,0,1,715,433.7a7.94,7.94,0,0,1,1.57-4.91Z" transform="translate(-53.53 -38.11)"/><path class="cls-1" d="M719.64,429v4.8c0,1.8.8,2.57,1.88,2.57s2-.79,2-2.57V429h1.06v4.73c0,2.48-1.31,3.49-3.06,3.49s-2.9-.94-2.9-3.45V429Z" transform="translate(-53.53 -38.11)"/><path class="cls-1" d="M726.33,432.89c0-.61,0-1.09,0-1.57h.94l.06,1h0a2.15,2.15,0,0,1,1.92-1.08c.8,0,2.05.48,2.05,2.47v3.45h-1.06v-3.35c0-.94-.35-1.71-1.34-1.71a1.55,1.55,0,0,0-1.49,1.57v3.49h-1.06Z" transform="translate(-53.53 -38.11)"/><path class="cls-1" d="M732.84,436.05a3,3,0,0,0,1.4.41c.76,0,1.12-.37,1.12-.86s-.3-.77-1.07-1.06c-1.06-.38-1.55-.95-1.55-1.64a1.8,1.8,0,0,1,2-1.7,2.69,2.69,0,0,1,1.42.36l-.25.77a2.25,2.25,0,0,0-1.19-.35c-.62,0-1,.36-1,.79s.34.7,1.09,1c1,.37,1.52.88,1.52,1.74,0,1-.8,1.75-2.16,1.75a3.31,3.31,0,0,1-1.63-.41Z" transform="translate(-53.53 -38.11)"/><path class="cls-1" d="M738.16,431.32l.78,3c.16.65.31,1.25.42,1.85h0c.13-.59.32-1.21.52-1.83l.95-3h.89l.9,2.9c.22.7.38,1.31.52,1.9h0a17.51,17.51,0,0,1,.44-1.88l.83-2.91h1l-1.87,5.8h-1l-.89-2.77a19.44,19.44,0,0,1-.52-1.91h0a17.2,17.2,0,0,1-.53,1.92l-.94,2.76h-1l-1.75-5.8Z" transform="translate(-53.53 -38.11)"/><path class="cls-1" d="M747,434.41a1.85,1.85,0,0,0,2,2,3.77,3.77,0,0,0,1.61-.3l.19.76a4.73,4.73,0,0,1-1.94.37,2.71,2.71,0,0,1-2.85-2.94c0-1.75,1-3.12,2.72-3.12a2.44,2.44,0,0,1,2.4,2.72,2.58,2.58,0,0,1,0,.49Zm3.09-.76a1.5,1.5,0,0,0-1.46-1.7,1.73,1.73,0,0,0-1.62,1.7Z" transform="translate(-53.53 -38.11)"/><path class="cls-1" d="M753.05,434.41a1.85,1.85,0,0,0,2,2,3.77,3.77,0,0,0,1.61-.3l.19.76a4.73,4.73,0,0,1-1.94.37,2.71,2.71,0,0,1-2.85-2.94c0-1.75,1-3.12,2.72-3.12a2.44,2.44,0,0,1,2.4,2.72,2.58,2.58,0,0,1,0,.49Zm3.09-.76a1.5,1.5,0,0,0-1.46-1.7,1.73,1.73,0,0,0-1.62,1.7Z" transform="translate(-53.53 -38.11)"/><path class="cls-1" d="M759.75,429.93v1.39h1.51v.8h-1.51v3.13c0,.72.2,1.13.79,1.13a2,2,0,0,0,.61-.07l0,.8a2.87,2.87,0,0,1-.94.14,1.51,1.51,0,0,1-1.14-.44,2.27,2.27,0,0,1-.41-1.52v-3.17h-.9v-.8h.9v-1.08Z" transform="translate(-53.53 -38.11)"/><path class="cls-1" d="M763,434.41a1.85,1.85,0,0,0,2,2,3.77,3.77,0,0,0,1.61-.3l.19.76a4.73,4.73,0,0,1-1.94.37,2.71,2.71,0,0,1-2.85-2.94c0-1.75,1-3.12,2.72-3.12a2.44,2.44,0,0,1,2.4,2.72,2.58,2.58,0,0,1,0,.49Zm3.09-.76a1.5,1.5,0,0,0-1.46-1.7,1.73,1.73,0,0,0-1.62,1.7Z" transform="translate(-53.53 -38.11)"/><path class="cls-1" d="M768.39,432.89c0-.61,0-1.09,0-1.57h.94l.06,1h0a2.15,2.15,0,0,1,1.92-1.08c.8,0,2.05.48,2.05,2.47v3.45h-1.05v-3.35c0-.94-.35-1.71-1.34-1.71a1.55,1.55,0,0,0-1.49,1.57v3.49h-1.05Z" transform="translate(-53.53 -38.11)"/><path class="cls-1" d="M777.19,436.39a1.82,1.82,0,0,1-1.55-2h1.76v-.76h-1.75a1.75,1.75,0,0,1,1.5-1.7h.25v-.77h-.21a2.82,2.82,0,0,0-2.56,3.11,2.69,2.69,0,0,0,2.56,2.93h.21v-.84Z" transform="translate(-53.53 -38.11)"/><circle class="cls-1" cx="589.83" cy="399.02" r="0.83"/><circle class="cls-1" cx="587.12" cy="399.01" r="0.83"/><circle class="cls-1" cx="584.2" cy="399.01" r="0.83"/><circle class="cls-1" cx="731.61" cy="394.78" r="2.88"/><circle class="cls-1" cx="709.24" cy="204.43" r="81.11" transform="translate(-56.49 -27.54) rotate(-0.85)"/><path class="cls-1" d="M635.76,182.23c-.9-3.27.53-6.47,2.05-9.5,5.73-11.41,25.72-46.46,71.43-46.46,54.65,0,72.81,48.24,72.81,48.24s6.5,13.47-6.23,13.47H652.4C651.62,188,637.51,188.56,635.76,182.23Z" transform="translate(-53.53 -38.11)"/><path class="cls-1" d="M635.39,226.68c-.9,3.27.53,6.47,2.05,9.5,5.73,11.41,25.72,46.46,71.43,46.46,54.65,0,72.81-48.24,72.81-48.24s6.5-13.47-6.23-13.47H652C651.25,220.93,637.14,220.35,635.39,226.68Z" transform="translate(-53.53 -38.11)"/><path class="cls-1" d="M643.79,204.43l15.58-7s-4.82,8,.39,15.53Z" transform="translate(-53.53 -38.11)"/><path class="cls-1" d="M781.2,204.43l-15.58-7s4.82,8-.39,15.53Z" transform="translate(-53.53 -38.11)"/><path class="cls-1" d="M685,157.14s6.57-4.19,19.68-6.15l-.66-3.93-8,1.56-.66-2.29Z" transform="translate(-53.53 -38.11)"/><circle class="cls-1" cx="666.69" cy="110.45" r="8.58"/><path class="cls-1" d="M683.18,249.86s6.68,4,19.84,5.62l-.55,3.95-8.07-1.34-.59,2.31Z" transform="translate(-53.53 -38.11)"/><circle class="cls-1" cx="720.21" cy="258.44" r="8.58" transform="translate(303.95 894.06) rotate(-81.44)"/><line class="cls-1" x1="661.95" y1="227.47" x2="671.24" y2="213.06"/><circle class="cls-1" cx="708.08" cy="735.43" r="81.11" transform="translate(-64.39 -27.5) rotate(-0.85)"/><circle class="cls-2" cx="654.56" cy="695.16" r="4.27"/><text class="cls-3" transform="translate(628.84 710.44)">Lase<tspan class="cls-4" x="18.51" y="0">r</tspan><tspan x="21.73" y="0">-</tspan><tspan class="cls-5" x="24.8" y="0">S</tspan><tspan x="29.79" y="0">ense </tspan></text><rect class="cls-6" x="689.1" y="661.45" width="5.54" height="15.43" transform="translate(-197.32 153.42) rotate(-14.29)"/><circle class="cls-2" cx="654.56" cy="695.16" r="57.97"/><rect class="cls-6" x="711.38" y="659.58" width="5.54" height="15.43" transform="translate(2.2 -93.16) rotate(4.59)"/></g><g id="Layer_5" data-name="Layer 5"><path class="cls-1" d="M984.54,242v-.14a251.93,251.93,0,0,1,3.39-35c8.43-49.07,29.85-78.18,41.9-87.86,5.43-.14,10.44-.17,16.38-.14l65.16.31h0l65.16.31c5.94,0,18-.21,22.95,3.14,14.51,11.89,36,47,37.54,120.43v.14c1.53,74.91-1.75,493.28-2.82,613.06a25.91,25.91,0,0,1-26,25.67l-100.45-.48h0L1007.26,881a25.91,25.91,0,0,1-25.79-25.91C981.55,746.49,982,328.13,984.54,242Z" transform="translate(-53.53 -38.11)"/><path class="cls-1" d="M1029.84,119H969.34l-.07,13.65S999,153.62,999,168" transform="translate(-53.53 -38.11)"/><line class="cls-1" x1="927.96" y1="802.64" x2="1180.8" y2="803.86"/><line class="cls-1" x1="1183.38" y1="265.76" x2="930.55" y2="264.55"/><path class="cls-7" d="M1029.83,121.1" transform="translate(-53.53 -38.11)"/><path class="cls-1" d="M1029.84,118.81l.11-23.45a6.53,6.53,0,0,1,2.11-4.78c19.59-18,37.76-31.64,79.44-32.79,43.17-1.19,78.7,34.14,78.7,34.14s1.69,2,1.69,3l-.12,24.53s0,.08,0,.11l-161.92-.89L1030,94.9l161.93.78" transform="translate(-53.53 -38.11)"/><path class="cls-1" d="M1180.34,94.93l-136.21-.65a7.43,7.43,0,0,1-6.37-3.19.59.59,0,0,1,.08-.74c24.64-23.93,46.84-29.53,78.46-29.38,27.77.13,60,23.62,67.59,29.51C1183.91,90.47,1186.81,93.29,1180.34,94.93Z" transform="translate(-53.53 -38.11)"/><rect class="cls-1" x="988.27" y="59.85" width="143.7" height="18.47"/><path class="cls-1" d="M1057.79,108.87l-.84,2.54h-1.08l2.76-8.08h1.25l2.76,8.08h-1.12l-.86-2.54Zm2.66-.81-.8-2.33c-.18-.53-.3-1-.42-1.48h0c-.12.47-.24,1-.41,1.46L1058,108Z" transform="translate(-53.53 -38.11)"/><path class="cls-1" d="M1063.76,102.89h1.06v8.52h-1.06Z" transform="translate(-53.53 -38.11)"/><path class="cls-1" d="M1066.59,107.18c0-.61,0-1.09,0-1.57h.92l0,.95h0a2,2,0,0,1,1.84-1.07,1.71,1.71,0,0,1,1.63,1.16h0a2.29,2.29,0,0,1,.66-.76,2,2,0,0,1,1.27-.41c.78,0,1.92.5,1.92,2.52v3.41h-1v-3.27c0-1.13-.42-1.79-1.26-1.79a1.39,1.39,0,0,0-1.26.95,1.81,1.81,0,0,0-.08.53v3.59h-1v-3.48c0-.92-.41-1.58-1.21-1.58a1.45,1.45,0,0,0-1.31,1.05,1.42,1.42,0,0,0-.08.52v3.49h-1Z" transform="translate(-53.53 -38.11)"/><path class="cls-1" d="M1081.85,108.47a2.84,2.84,0,0,1-2.89,3.08,2.77,2.77,0,0,1-2.78-3,2.84,2.84,0,0,1,2.88-3.07A2.75,2.75,0,0,1,1081.85,108.47Zm-4.59.06c0,1.27.72,2.23,1.75,2.23s1.76-.95,1.76-2.25c0-1-.49-2.22-1.74-2.22S1077.25,107.43,1077.25,108.52Z" transform="translate(-53.53 -38.11)"/><path class="cls-1" d="M1083.18,107.18c0-.61,0-1.09,0-1.57h.94l.06,1h0a2.15,2.15,0,0,1,1.92-1.08c.8,0,2.05.48,2,2.47v3.45h-1.06v-3.35c0-.94-.35-1.71-1.34-1.72a1.55,1.55,0,0,0-1.49,1.57v3.49h-1.06Z" transform="translate(-53.53 -38.11)"/><path class="cls-1" d="M1094.85,102.91v7c0,.52,0,1.1,0,1.5H1094l0-1h0a2.1,2.1,0,0,1-2,1.14c-1.4,0-2.49-1.19-2.49-3,0-1.93,1.2-3.11,2.6-3.11a2,2,0,0,1,1.75.88h0v-3.47Zm-1,5.07a1.85,1.85,0,0,0,0-.44,1.55,1.55,0,0,0-1.52-1.21c-1.09,0-1.74,1-1.74,2.23s.59,2.15,1.71,2.15a1.6,1.6,0,0,0,1.55-1.26,1.82,1.82,0,0,0,0-.46Z" transform="translate(-53.53 -38.11)"/><path class="cls-1" d="M1106,107.88c-.06-1.13-.13-2.5-.13-3.49h0c-.29.94-.61,2-1,3.07l-1.43,3.92h-.79l-1.32-3.85c-.38-1.15-.69-2.18-.92-3.14h0c0,1-.08,2.35-.16,3.57l-.22,3.47h-1l.57-8.08h1.33l1.38,3.91c.34,1,.6,1.88.81,2.72h0c.22-.82.5-1.7.86-2.72l1.44-3.91h1.33l.5,8.08h-1Z" transform="translate(-53.53 -38.11)"/><path class="cls-1" d="M1110.12,104a.63.63,0,0,1-.67.65.62.62,0,0,1-.64-.65.64.64,0,0,1,.66-.66A.63.63,0,0,1,1110.12,104Zm-1.18,7.44v-5.8H1110v5.8Z" transform="translate(-53.53 -38.11)"/><path class="cls-1" d="M1111.75,102.91h1.06v8.52h-1.06Z" transform="translate(-53.53 -38.11)"/><path class="cls-1" d="M1115.63,108.29h0c.14-.2.34-.46.5-.66l1.72-2h1.26L1116.9,108l2.55,3.42h-1.29l-2-2.78-.54.6v2.18h-1v-8.52h1Z" transform="translate(-53.53 -38.11)"/><path class="cls-1" d="M1125,103.11a8,8,0,0,0-1.5,4.92,8.12,8.12,0,0,0,1.5,4.86h-.82a7.75,7.75,0,0,1-1.57-4.87,7.94,7.94,0,0,1,1.57-4.9Z" transform="translate(-53.53 -38.11)"/><path class="cls-1" d="M1127.25,103.35v4.8c0,1.8.8,2.57,1.88,2.57s2-.79,2-2.57v-4.8h1.06v4.73c0,2.48-1.31,3.49-3.06,3.49s-2.9-.94-2.9-3.46v-4.76Z" transform="translate(-53.53 -38.11)"/><path class="cls-1" d="M1133.93,107.2c0-.61,0-1.09,0-1.57h.94l.06,1h0a2.15,2.15,0,0,1,1.92-1.08c.8,0,2.05.48,2,2.47v3.45h-1.06v-3.35c0-.94-.35-1.71-1.34-1.72a1.55,1.55,0,0,0-1.49,1.57v3.49h-1.06Z" transform="translate(-53.53 -38.11)"/><path class="cls-1" d="M1140.44,110.37a3,3,0,0,0,1.4.41c.76,0,1.12-.37,1.12-.86s-.3-.77-1.07-1.06c-1.06-.38-1.55-.95-1.55-1.64a1.8,1.8,0,0,1,2-1.7,2.69,2.69,0,0,1,1.41.36l-.25.77a2.25,2.25,0,0,0-1.19-.35c-.62,0-1,.36-1,.79s.34.7,1.09,1c1,.37,1.52.88,1.52,1.74,0,1-.8,1.75-2.16,1.75a3.31,3.31,0,0,1-1.63-.41Z" transform="translate(-53.53 -38.11)"/><path class="cls-1" d="M1145.76,105.64l.78,3c.16.65.31,1.25.42,1.85h0c.13-.59.32-1.21.52-1.83l.95-3h.89l.9,2.9c.22.7.38,1.31.51,1.9h0a17.51,17.51,0,0,1,.44-1.88l.83-2.91h1l-1.87,5.8h-1l-.89-2.77a19.44,19.44,0,0,1-.51-1.91h0a17.2,17.2,0,0,1-.53,1.92l-.94,2.76h-1l-1.75-5.81Z" transform="translate(-53.53 -38.11)"/><path class="cls-1" d="M1154.64,108.73a1.85,1.85,0,0,0,2,2,3.77,3.77,0,0,0,1.61-.3l.19.76a4.73,4.73,0,0,1-1.94.37,2.71,2.71,0,0,1-2.85-2.94c0-1.75,1-3.12,2.72-3.12a2.44,2.44,0,0,1,2.4,2.72,2.58,2.58,0,0,1,0,.49Zm3.09-.75a1.5,1.5,0,0,0-1.46-1.7,1.73,1.73,0,0,0-1.62,1.7Z" transform="translate(-53.53 -38.11)"/><path class="cls-1" d="M1160.65,108.74a1.85,1.85,0,0,0,2,2,3.77,3.77,0,0,0,1.61-.3l.19.76a4.73,4.73,0,0,1-1.94.37,2.71,2.71,0,0,1-2.85-2.94c0-1.75,1-3.12,2.72-3.12a2.44,2.44,0,0,1,2.4,2.72,2.58,2.58,0,0,1,0,.49Zm3.09-.75a1.5,1.5,0,0,0-1.46-1.7,1.73,1.73,0,0,0-1.62,1.7Z" transform="translate(-53.53 -38.11)"/><path class="cls-1" d="M1167.35,104.25v1.39h1.51v.8h-1.51v3.13c0,.72.2,1.13.79,1.13a2,2,0,0,0,.61-.07l0,.8a2.87,2.87,0,0,1-.94.14,1.51,1.51,0,0,1-1.14-.44,2.27,2.27,0,0,1-.41-1.52v-3.17h-.9v-.8h.9v-1.08Z" transform="translate(-53.53 -38.11)"/><path class="cls-1" d="M1170.56,108.74a1.85,1.85,0,0,0,2,2,3.77,3.77,0,0,0,1.61-.3l.19.76a4.73,4.73,0,0,1-1.94.37,2.71,2.71,0,0,1-2.85-2.94c0-1.75,1-3.12,2.72-3.12a2.44,2.44,0,0,1,2.4,2.72,2.58,2.58,0,0,1,0,.49Zm3.09-.75a1.5,1.5,0,0,0-1.46-1.7,1.73,1.73,0,0,0-1.62,1.7Z" transform="translate(-53.53 -38.11)"/><path class="cls-1" d="M1176,107.22c0-.61,0-1.09,0-1.57h.94l.06,1h0a2.15,2.15,0,0,1,1.92-1.08c.8,0,2.05.48,2,2.47v3.45h-1.05v-3.35c0-.94-.35-1.71-1.34-1.72A1.55,1.55,0,0,0,1177,108v3.49H1176Z" transform="translate(-53.53 -38.11)"/><path class="cls-1" d="M1184.79,110.72a1.82,1.82,0,0,1-1.55-2H1185V108h-1.75a1.75,1.75,0,0,1,1.5-1.7h.12l.13,0v-.77h-.21a2.82,2.82,0,0,0-2.56,3.11,2.69,2.69,0,0,0,2.56,2.93h.21v-.84Z" transform="translate(-53.53 -38.11)"/><circle class="cls-1" cx="997.43" cy="73.31" r="0.83"/><circle class="cls-1" cx="994.72" cy="73.29" r="0.83"/><circle class="cls-1" cx="991.8" cy="73.29" r="0.83"/><circle class="cls-1" cx="1034.56" cy="106.82" r="2.88" transform="translate(869.25 1102.74) rotate(-89.72)"/><path class="cls-1" d="M1257.42,311.66" transform="translate(-53.53 -38.11)"/><path class="cls-1" d="M1184.65,188.77" transform="translate(-53.53 -38.11)"/><path class="cls-1" d="M1257.56,248.2" transform="translate(-53.53 -38.11)"/><path class="cls-1" d="M1222,157.17c-.18.23,87.63,31,124.46,45.09,53.62,20.51,38.3,390.72,22.85,382.68l-3.35-.9a10.38,10.38,0,0,1-7.18-6.84c-2-6.17-5.6-17.35-10.39-31.92-9.76-29.73-13.56-149.28-24.24-205.08-.81-4.21-10.9-13.74-9.8-17.65,2.7-9.63,10.27-13.44,8.35-31.06-4.58-42-67-37.06-75.83-34.54-4.87,1.39-7.16,5.38-10.31,8" transform="translate(-53.53 -38.11)"/><path class="cls-1" d="M1291.55,341.56" transform="translate(-53.53 -38.11)"/><path class="cls-1" d="M1316.21,282.83" transform="translate(-53.53 -38.11)"/><path class="cls-1" d="M1342.58,584.27" transform="translate(-53.53 -38.11)"/><line class="cls-1" x1="1183.49" y1="204.98" x2="931.02" y2="203.76"/><polygon class="cls-1" points="279.28 797.51 272.09 813.88 278.58 797.22 261.92 803.71 278.29 796.52 261.92 789.33 278.58 795.82 272.09 779.16 279.28 795.53 286.47 779.16 279.98 795.82 296.64 789.33 280.27 796.52 296.64 803.71 279.98 797.22 286.47 813.88 279.28 797.51"/><path class="cls-1" d="M209.49,829S331.73,843,446.41,829" transform="translate(-53.53 -38.11)"/><path class="cls-1" d="M441,168.75c.08-14.42,29.55-34.67,29.55-34.67v-8.85s-37.47,3.91-43.71,14.46c9.55,15.24,19.76,38.94,24.69,68.53a251.93,251.93,0,0,1,3.22,35v.14c2.17,86.12.57,504.48.12,613.07A25.91,25.91,0,0,1,429,882.21H228.07a25.91,25.91,0,0,1-25.91-25.79c-.45-108.59-2.05-526.95.12-613.07v-.14c1.88-73.38,23.55-108.43,38.12-120.25,2-1.37,5.25-2.12,8.76-2.54" transform="translate(-53.53 -38.11)"/><path class="cls-8" d="M248.34,120.53c2.3-1.62,6.87,31.36,10.58,32a76.73,76.73,0,0,1,11.89.66,4.47,4.47,0,0,1,3.76,4.28l.2,6.93,2.26.07.14,4.79h-2.32l.05,5,2.31,0,.12,4.68h-2.47v5.55l.35.35h.46c1.62,0,1.73.27,1.69.39s.28,4.12,0,4a17.51,17.51,0,0,0-2.66.19s-.39.31-.39.54.15,4.58.15,4.58a.86.86,0,0,0,.89.39c.69,0,2,.15,1.81.39a13.6,13.6,0,0,0-.15,3l-.16.68-2.36.63-.08,4.09.47,1.08,2.58.1-.17,2.54-1.29.39L274.57,209l-.37,2.47-.42,14.77-60.88,24.61a5.31,5.31,0,0,0-3.32,4.81c-1.91,90.9-.45,488,0,592.1.06,13.85,10.92,25.05,24.28,25.05H422.06c13.36,0,24.22-11.2,24.28-25.05.42-105.49,1.92-511.93-.11-595.6v-.14c-.18-7.41-54.14-25.62-54.81-29.78-.6-3.72,0-7.26-.23-10.64-.07-1.17-.52-2.33-.55-3.46,0-.59-2.66-1.06-2.67-1.63,0-1.53-.24-4-.19-5.45,0-.49,3.16-.05,3.18-.53.08-1.72-.14-3.47,0-5.1,0-.53-2.9.07-2.85-.45s-.06-2.72,0-3.28c0-.17,2.75.11,2.77-.06.21-1.83,0-4.07.09-5.83,0-.27-3,0-3-.12.21-1.38,0-2.89.18-4.22,0-.14,2.83,0,2.85-.15.31-1.88-.09-3.89.31-5.68,0-.1-3.4,0-3.4-.07,0-1.29,0-3,0-4.22,0-.13,3,0,3-.17.16-1.8.09-3.71.09-5.46,0-.33-3.21,0-3.2-.26,0-.82.05-5.65,0-6.35a7.28,7.28,0,0,1,4.78-4.72c2.84-1,8.19.11,12.27-2,9.32-4.73,21.37-12.77,24.05-15.17" transform="translate(-53.53 -38.11)"/><path class="cls-1" d="M454.83,246.35" transform="translate(-53.53 -38.11)"/><path class="cls-9" d="M282.6,115.32" transform="translate(-53.53 -38.11)"/><path class="cls-1" d="M387,196.08" transform="translate(-53.53 -38.11)"/><path class="cls-1" d="M389,211.65" transform="translate(-53.53 -38.11)"/><path class="cls-1" d="M387.16,196.5v-5.73H390c.31,0,.31-.42.31-.42s-.06-3,0-3.39-.31-.4-.31-.4h-2.81v-5.78h3c.42,0,.37-.48.37-.48v-3.64c0-.37-.53-.32-.53-.32h-2.85v-5.76h3c.48,0,.26-.45.26-.45s.05-2.88,0-3.51-.58-.48-.58-.48h-2.64s-.09-1.34-.09-8.08,2.1-6.68,2.1-6.68h9.5c7.51,0,6.61-5.5,6.61-5.5v-1.51c0-1-.18-.81-.18-.81h-1.58v-1.21c1-.11,1.47-1.26,1.47-1.26s-.37-16-.33-17.44,1.66-1.66,1.66-1.66l4.74-.62V95.65A6.53,6.53,0,0,0,409,90.86C389.5,72.79,371.4,59,329.72,57.69c-43.16-1.4-78.86,33.76-78.86,33.76s-1.7,2-1.7,3V119c0,1.77,2.14,1.91,2.14,1.91a16.24,16.24,0,0,1,3.76.5c1.14.44,1.5,2.41,1.5,2.41s-.06,17.07,0,17.53,1.36.77,1.36.77,1.35,1.23,0,1.23-1.25.38-1.25.38-.35,2.55,2.26,5.54c1.51,1.74,10.93.93,15.9,1.35,3.53,1.37,3.28,13.44,3.28,13.44v15.9h-2.66c-.27,0-.2.2-.2.2V184a.28.28,0,0,0,.29.29h2.57V190h-2.63c-.26,0-.22.15-.22.15V194c0,.29.18.23.18.23l2.67,0v5.62s-1.78,0-2.26,0-.59.61-.59.61,0,3,0,3.22a.24.24,0,0,0,.24.2l2.61-.12v4.54l-2.18.23c-.33,0-.38.37-.38.37s0,1.11,0,1.67.51.52.51.52c1.44.07.66.12.66.12l0,1.05a1.59,1.59,0,0,0-1.56,1.19l-.28,11.4c-.17,1.75,1.27,1.85,1.27,1.85l51,.05a.81.81,0,0,0,.8-.8v-1.21a.59.59,0,0,0-.59-.59h-40.8a2.07,2.07,0,0,1-2.07-2.07l.13-73.56a2.46,2.46,0,0,0-2.43-2.46l-18.47-.21a2.43,2.43,0,0,1-2.4-2.43V122.74a2.82,2.82,0,0,0-2.6-2.81l-2.8-.21c-2.35-.51-3.87-1.14-3.86-5.64l.16-15.41c-.19-4,4.76-6.19,9-6.19l139.11.11c4,.13,7.34,3.39,7.34,5.74v17.56a3.84,3.84,0,0,1-3.28,3.8l-2.76.41a2.58,2.58,0,0,0-2.2,2.55v21.15a1.71,1.71,0,0,1-1.71,1.71H383.11a2.47,2.47,0,0,0-2.47,2.47l.09,74.18a2,2,0,0,1-2,2H338.83a.61.61,0,0,0-.61.61V226a.8.8,0,0,0,.8.8c26.26,0,50.83,0,51.08-.06a.73.73,0,0,0,.54-.68s-.39-13.45-.43-13.71-.35-.21-.35-.21a9.56,9.56,0,0,0-1-.06s-.23-.41-.12-.74.69-.42,1.09-.49.32-.35.32-.35v-1.26c0-.13-.32-.32-.32-.32a24.88,24.88,0,0,1-2.83-2v-6.81s2.52,0,2.81,0,.29-.29.29-.29v-3.48c0-.26-.29-.26-.29-.26H387" transform="translate(-53.53 -38.11)"/><path class="cls-1" d="M276.86,211.68" transform="translate(-53.53 -38.11)"/><path class="cls-1" d="M292.13,210.14" transform="translate(-53.53 -38.11)"/><path class="cls-1" d="M387.13,176.35" transform="translate(-53.53 -38.11)"/><rect class="cls-1" x="246.99" y="151.14" width="64.58" height="33.74"/><rect class="cls-1" x="246.99" y="119.1" width="64.58" height="28.65"/><rect class="cls-10" x="246.99" y="80.78" width="64.58" height="32.49"/><text class="cls-11" transform="translate(258.73 98.52)"><tspan class="cls-12">C</tspan><tspan class="cls-13" x="5.69" y="0">ompu</tspan><tspan class="cls-14" x="30.72" y="0">t</tspan><tspan x="33.97" y="0">er</tspan></text><text class="cls-11" transform="translate(266.33 138.23)">B<tspan class="cls-15" x="5.42" y="0">a</tspan><tspan x="10.2" y="0">t</tspan><tspan class="cls-14" x="13.51" y="0">t</tspan><tspan x="16.76" y="0">e</tspan><tspan class="cls-16" x="21.77" y="0">r</tspan><tspan x="25.29" y="0">y</tspan></text><text class="cls-11" transform="translate(271.12 169.11)">Laser</text><text class="cls-11" transform="translate(257.76 70.06)"><tspan class="cls-17">L</tspan><tspan x="4.33" y="0">CD Displ</tspan><tspan class="cls-18" x="39.92" y="0">a</tspan><tspan x="44.66" y="0">y</tspan></text><polyline class="cls-1" points="234.21 188.65 234.21 144.83 246.99 144.83"/><polyline class="cls-1" points="242.95 188.7 242.95 186.09 236.4 186.09 236.28 146.97 246.88 146.97"/><line class="cls-1" x1="258.73" y1="151.14" x2="258.73" y2="147.74"/><line class="cls-1" x1="258.73" y1="119.1" x2="258.73" y2="113.27"/><line class="cls-1" x1="257.76" y1="80.78" x2="257.76" y2="78.18"/><rect class="cls-1" x="204.44" y="59.09" width="143.15" height="18.14"/><circle class="cls-1" cx="350.87" cy="68.16" r="2.88"/><polyline class="cls-1" points="350.87 71.04 349.93 78.95 341.97 80.93 341.99 88.48 311.57 88.48"/><text class="cls-11" transform="translate(318.8 87.9)">LED</text><line class="cls-1" x1="279.28" y1="184.89" x2="279.28" y2="796.52"/><path class="cls-1" d="M217.17,158.3c.18.23-87.78,30.58-124.68,44.49C38.77,223.05,52.32,593.33,67.81,585.36l3.35-.89a10.38,10.38,0,0,0,7.21-6.8c2-6.16,5.69-17.32,10.54-31.87,9.91-29.69,14.28-149.21,25.23-205,.83-4.2,11-13.68,9.89-17.6-2.65-9.64-10.21-13.49-8.2-31.1,4.78-41.93,67.19-36.74,76-34.17,4.86,1.42,7.13,5.42,10.27,8.07" transform="translate(-53.53 -38.11)"/><path class="cls-1" d="M146.7,342.35" transform="translate(-53.53 -38.11)"/><path class="cls-1" d="M122.31,283.51" transform="translate(-53.53 -38.11)"/><path class="cls-1" d="M94.5,584.82" transform="translate(-53.53 -38.11)"/><text class="cls-19" transform="translate(712.23 590.75)">Laser ele<tspan class="cls-20" x="43.54" y="0">c</tspan><tspan x="49.07" y="0">t</tspan><tspan class="cls-21" x="53.04" y="0">r</tspan><tspan x="57.01" y="0">ical ci</tspan><tspan class="cls-22" x="84.54" y="0">r</tspan><tspan x="88.34" y="0">cuit</tspan><tspan x="0" y="14.4">is a</tspan><tspan class="cls-20" x="15.89" y="14.4">c</tspan><tspan x="21.42" y="14.4">ti</tspan><tspan class="cls-23" x="28.2" y="14.4">va</tspan><tspan class="cls-24" x="39.66" y="14.4">t</tspan><tspan x="43.56" y="14.4">ed via </tspan><tspan class="cls-24" x="75.79" y="14.4">c</tspan><tspan x="81.09" y="14.4">o</tspan><tspan class="cls-25" x="87.68" y="14.4">n</tspan><tspan class="cls-26" x="94.29" y="14.4">ta</tspan><tspan class="cls-20" x="104.05" y="14.4">c</tspan><tspan x="109.58" y="14.4">ts</tspan><tspan x="0" y="28.8">only when lid is secu</tspan><tspan class="cls-22" x="102.79" y="28.8">r</tspan><tspan x="106.59" y="28.8">e</tspan><tspan class="cls-27" x="112.61" y="28.8">d</tspan><tspan class="cls-26" x="119.25" y="28.8">.</tspan></text><path class="cls-1" d="M754.73,635.73s-44.7-18-64.22-1.21" transform="translate(-53.53 -38.11)"/><polygon points="632.39 601.77 635.96 591.63 637.43 596.1 642.04 597.03 632.39 601.77"/><text class="cls-19" transform="translate(453.17 373.98)"><tspan class="cls-28">S</tspan><tspan x="5.99" y="0">c</tspan><tspan class="cls-29" x="11.36" y="0">r</tspan><tspan x="15.17" y="0">olling </tspan><tspan class="cls-30" x="46.14" y="0">L</tspan><tspan class="cls-31" x="51.34" y="0">CD </tspan><tspan class="cls-28" x="68.83" y="0">S</tspan><tspan x="74.82" y="0">c</tspan><tspan class="cls-27" x="80.19" y="0">r</tspan><tspan class="cls-32" x="84" y="0">een</tspan><tspan x="0" y="14.4">p</tspan><tspan class="cls-29" x="6.83" y="14.4">r</tspan><tspan x="10.63" y="14.4">o</tspan><tspan class="cls-33" x="17.22" y="14.4">g</tspan><tspan class="cls-34" x="23.86" y="14.4">r</tspan><tspan class="cls-32" x="27.72" y="14.4">ammed via POS</tspan></text><path class="cls-1" d="M566.38,443s9.61,45.51,41.55,27.6" transform="translate(-53.53 -38.11)"/><polygon points="560.32 428.63 554.15 437.43 553.93 432.74 549.75 430.59 560.32 428.63"/><text class="cls-19" transform="translate(323.11 909.41)">Laser measu<tspan class="cls-29" x="61.85" y="0">r</tspan><tspan x="65.65" y="0">es milk </tspan><tspan class="cls-35" x="102.78" y="0">t</tspan><tspan x="106.68" y="0">empe</tspan><tspan class="cls-34" x="135.54" y="0">r</tspan><tspan class="cls-23" x="139.4" y="0">a</tspan><tspan x="145.14" y="0">tu</tspan><tspan class="cls-27" x="155.72" y="0">r</tspan><tspan class="cls-32" x="159.53" y="0">e and</tspan><tspan x="0" y="14.4">qua</tspan><tspan class="cls-36" x="19.15" y="14.4">n</tspan><tspan class="cls-32" x="25.76" y="14.4">ti</tspan><tspan class="cls-37" x="32.54" y="14.4">t</tspan><tspan x="36.62" y="14.4">y (as a fun</tspan><tspan class="cls-38" x="86.41" y="14.4">c</tspan><tspan x="91.94" y="14.4">tion of distan</tspan><tspan class="cls-35" x="157.89" y="14.4">c</tspan><tspan x="163.2" y="14.4">e)</tspan></text><text class="cls-19" transform="translate(0.65 10.04)"><tspan class="cls-39">C</tspan><tspan x="6.83" y="0">ompu</tspan><tspan class="cls-35" x="36.86" y="0">t</tspan><tspan x="40.76" y="0">er </tspan><tspan class="cls-35" x="53.24" y="0">c</tspan><tspan x="58.55" y="0">o</tspan><tspan class="cls-36" x="65.14" y="0">n</tspan><tspan class="cls-32" x="71.75" y="0">t</tspan><tspan class="cls-29" x="75.72" y="0">r</tspan><tspan x="79.52" y="0">ols ca</tspan><tspan class="cls-40" x="107.4" y="0">r</tspan><tspan x="111.26" y="0">a</tspan><tspan class="cls-41" x="117.05" y="0">f</tspan><tspan x="120.4" y="0">e eleme</tspan><tspan class="cls-23" x="159.83" y="0">n</tspan><tspan x="166.44" y="0">ts</tspan><tspan x="0" y="14.4">and also </tspan><tspan class="cls-29" x="44.26" y="14.4">r</tspan><tspan x="48.06" y="14.4">el</tspan><tspan class="cls-42" x="56.9" y="14.4">a</tspan><tspan class="cls-33" x="62.59" y="14.4">y</tspan><tspan x="68.17" y="14.4">s d</tspan><tspan class="cls-36" x="82.23" y="14.4">a</tspan><tspan class="cls-32" x="87.97" y="14.4">ta </tspan><tspan class="cls-35" x="100.27" y="14.4">t</tspan><tspan x="104.17" y="14.4">o POS </tspan><tspan class="cls-41" x="136.41" y="14.4">f</tspan><tspan x="139.76" y="14.4">or moni</tspan><tspan class="cls-33" x="178.88" y="14.4">t</tspan><tspan x="182.78" y="14.4">o</tspan><tspan class="cls-43" x="189.37" y="14.4">r</tspan><tspan class="cls-31" x="193.34" y="14.4">ing</tspan></text><path class="cls-1" d="M209.1,73.81c-5.49,31.84,10.39,39.58,20.17,41.39" transform="translate(-53.53 -38.11)"/><polygon points="182.79 77.56 172.54 80.81 175.22 76.95 173.2 72.7 182.79 77.56"/><text class="cls-19" transform="translate(401.21 21.84)">LED flashes when milk is <tspan class="cls-23" x="123.51" y="0">w</tspan><tspan class="cls-31" x="132.3" y="0">a</tspan><tspan class="cls-43" x="138.08" y="0">r</tspan><tspan x="142.05" y="0">m or emp</tspan><tspan class="cls-37" x="190.51" y="0">t</tspan><tspan x="194.59" y="0">y</tspan></text><path class="cls-1" d="M474.8,73.71s-18.59,26.7-42.3,31.84" transform="translate(-53.53 -38.11)"/><polygon points="371.96 68.28 381.29 62.94 379.49 67.28 382.36 71 371.96 68.28"/><path class="cls-44" d="M932.73,960.9h405.46v153.81H931.3S932.89,960.9,932.73,960.9Z" transform="translate(-53.53 -38.11)"/><line class="cls-44" x1="877.77" y1="1023.09" x2="1284.66" y2="1023.09"/><text class="cls-45" transform="translate(884.59 969.17)">Noah <tspan class="cls-46" x="47.75" y="0">R</tspan><tspan class="cls-47" x="58.44" y="0">a</tspan><tspan class="cls-48" x="67.73" y="0">tzan</tspan></text><text class="cls-45" transform="translate(885.23 1018.4)">09/15/2017</text><text class="cls-45" transform="translate(1077.45 969.34)">Sma<tspan class="cls-49" x="35.17" y="0">r</tspan><tspan x="41.99" y="0">t </tspan><tspan class="cls-50" x="52.55" y="0">C</tspan><tspan class="cls-51" x="63.69" y="0">a</tspan><tspan class="cls-52" x="73.06" y="0">r</tspan><tspan class="cls-51" x="79.32" y="0">a</tspan><tspan class="cls-53" x="88.69" y="0">f</tspan><tspan class="cls-51" x="94.12" y="0">e</tspan></text><line class="cls-44" x1="1072.65" y1="922.24" x2="1072.65" y2="1075.27"/><text class="cls-45" transform="translate(1078.99 1017.8)">C. <tspan class="cls-54" x="19.42" y="0">A</tspan><tspan class="cls-48" x="31.26" y="0">mb</tspan><tspan class="cls-55" x="58.54" y="0">r</tspan><tspan x="64.7" y="0">ose</tspan></text><text class="cls-45" transform="translate(885.82 1069.65)"><tspan class="cls-56">S</tspan><tspan x="9.7" y="0">cale 1:1</tspan></text><text class="cls-45" transform="translate(1078.54 1070.26)">Units: cm</text><line class="cls-44" x1="879.02" y1="972.47" x2="1284.27" y2="972.47"/><path class="cls-57" d="M896.7,400.15" transform="translate(-53.53 -38.11)"/><line class="cls-58" x1="577.61" y1="316.63" x2="577.61" y2="302.46"/><line class="cls-58" x1="738" y1="313.77" x2="738" y2="299.59"/><line class="cls-59" x1="631.32" y1="308.11" x2="590.04" y2="308.11"/><polygon points="591.07 304.59 584.96 308.11 591.07 311.64 591.07 304.59"/><line class="cls-59" x1="680.57" y1="307.4" x2="728.67" y2="307.4"/><polygon points="727.64 310.92 733.74 307.4 727.64 303.87 727.64 310.92"/><text class="cls-19" transform="translate(646.64 312.35)">6.2</text><line class="cls-58" x1="783.43" y1="345.76" x2="797.6" y2="345.67"/><line class="cls-58" x1="785.28" y1="513.13" x2="799.45" y2="513.04"/><line class="cls-59" x1="791.68" y1="407.46" x2="791.68" y2="358.14"/><polygon points="795.2 359.17 791.68 353.06 788.15 359.17 795.2 359.17"/><line class="cls-59" x1="792.34" y1="445.38" x2="792.34" y2="503.76"/><polygon points="788.81 502.73 792.34 508.83 795.86 502.73 788.81 502.73"/><text class="cls-19" transform="translate(784.51 431.71) rotate(-0.35)">6.8</text><line class="cls-58" x1="873.43" y1="11.76" x2="887.6" y2="11.67"/><line class="cls-58" x1="876.52" y1="845.97" x2="890.69" y2="845.88"/><line class="cls-59" x1="881.68" y1="366.31" x2="881.68" y2="24.14"/><polygon points="885.2 25.17 881.68 19.06 878.15 25.17 885.2 25.17"/><line class="cls-59" x1="882.34" y1="460.82" x2="882.34" y2="832.76"/><polygon points="878.81 831.73 882.34 837.84 885.86 831.73 878.81 831.73"/><text class="cls-19" transform="translate(874.51 422.47) rotate(-0.35)">31</text><line class="cls-58" x1="928.06" y1="877.11" x2="928.06" y2="862.94"/><line class="cls-58" x1="1177.06" y1="876.47" x2="1177.06" y2="862.3"/><line class="cls-59" x1="1022.71" y1="870.59" x2="938.49" y2="870.59"/><polygon points="939.52 867.06 933.41 870.59 939.52 874.12 939.52 867.06"/><line class="cls-59" x1="1068.41" y1="869.1" x2="1167.73" y2="869.1"/><polygon points="1166.69 872.63 1172.8 869.1 1166.69 865.58 1166.69 872.63"/><text class="cls-19" transform="translate(1042.26 874.24)">9</text><line class="cls-58" x1="602.61" y1="809.16" x2="602.61" y2="794.99"/><line class="cls-58" x1="708.61" y1="809.66" x2="708.61" y2="795.49"/><line class="cls-59" x1="636.62" y1="802.82" x2="613.04" y2="802.82"/><polygon points="614.07 799.3 607.96 802.82 614.07 806.35 614.07 799.3"/><line class="cls-59" x1="671.12" y1="802.45" x2="694.28" y2="802.45"/><polygon points="693.24 805.97 699.35 802.45 693.24 798.92 693.24 805.97"/><text class="cls-19" transform="translate(644.97 806.72)"><tspan xml:space="preserve"> 4.5 </tspan></text><path class="cls-60" d="M303.24,907.46" transform="translate(-53.53 -38.11)"/><path class="cls-1" d="M360.37,952.05s-47.7,10.31-42.69-42.46" transform="translate(-53.53 -38.11)"/><polygon points="265.08 864.47 267.9 874.84 264.16 872 259.83 873.85 265.08 864.47"/></g></svg>