<svg id="Layer_1" data-name="Layer 1" xmlns="http://www.w3.org/2000/svg" viewBox="0 0 1276 1264">
  <title>blueprint-2</title>
  <g>
    <path d="M388.12,542.06h-93.5c-16,0-32.06,3.5-42.59,11.41l-18.45,13.86c-27.72,3.38-46.86,19.11-46.86,25.55s19.14,22.18,46.86,25.55L252,632.3c10.53,7.91,26.6,11.41,42.59,11.41h93.5M550.4,120.35c0-32.21-19-42.95-46.65-53.34-21.52-8.1-50.13-11.35-59.41-11.08-37.72,1.11-55.73,23.85-55.73,50.56v972.79c0,26.71,18,49.44,55.73,50.56,9.28.27,37.89-3,59.41-11.08,27.61-10.39,46.65-21.12,46.65-53.34V120.35Z" fill="none" stroke="#000" stroke-width="2.5"/>
    <path d="M550.18,117.14C590.62,128.49,626,143.36,626,175.34v333.2c0,16.69,5.06,32,41.94,41m-118-2.75c165.32-.56,308.23,17.48,447,38.68m-77.83-11.94,23.33-125.75c5.2-28,16.22-51.06,51.85-50.88,56.32.29,71.82,60.41,73.24,134.5.25,12.77-1.18,24.4-12.32,29.49l-53.15,24.31" fill="none" stroke="#000" stroke-width="2.5"/>
    <path d="M1002.77,584.63V449.48H975.5V399.23" fill="none" stroke="#000" stroke-width="2.5"/>
    <path d="M1116.55,591.85c-35.88-2.91-70.92-6.54-117.68-6.42-34.27.09-74.36-.58-74.36,7.45s40.1,7.36,74.36,7.45c46.76.12,81.8-3.5,117.68-6.42Z" fill="none" stroke="#000" stroke-linejoin="round" stroke-width="2.5"/>
    <path d="M388.32,498.58c-5.82-.07-10.53-2.24-10.59-10.2-.06-8.42,5.51-9.56,11-9.71M234.34,618.52V566.69" fill="none" stroke="#000" stroke-width="2.5"/>
    <path d="M214.09,613.45v-41.1m10.53,43.92V568" fill="none" stroke="#000" stroke-width="1.5"/>
    <path d="M248.28,556.48l5.27,11.18c1.35-.68,1.92-3.08,1.06-5l-3.54-7.84m-8.5,5.33,5.27,11.18c1.35-.68,1.92-3.08,1.06-5l-3.54-7.84m-8.5,5.33L242.12,575c1.35-.68,1.92-3.08,1.06-5l-3.54-7.84" fill="none" stroke="#000" stroke-width="2.5"/>
    <path d="M267.39,545.79H388.61" fill="none" stroke="#000" stroke-width="1.5"/>
    <path d="M298.67,541.55v-3.61h8.19v3.78m4.12-.17v-3.61h8.19v3.78m24.86-.17v-3.61h8.19v3.78m4.12-.17v-3.61h8.19v3.78m19.19-.17v-3.61h4.86m-120.87,7.73v-3.61l8.19-1.72v3.78" fill="none" stroke="#000" stroke-linejoin="round" stroke-width="2.5"/>
    <path d="M546.27,97.09H512.08V437.42h37.64" fill="none" stroke="#000" stroke-width="2.5"/>
    <path d="M550.41,530.89c26.05.06,58.83,4.21,109.2,17.65" fill="none" stroke="#000" stroke-width="1.5"/>
    <path d="M675.58,635.07V550.48M604.2,567.66V556.32h65.87v11.34Zm75.16-4.34V557c0-2.44,1.47-3,2.41-3l26.06,1.23c2.1.1,5,.5,5.18,2.43.39,4-13.7,8.37-26.25,8.35-4.47,0-7.4-.66-7.4-2.72Z" fill="none" stroke="#000" stroke-width="2.5"/>
    <path d="M719.07,552.78v80.36M907,612.87V572.36" fill="none" stroke="#000" stroke-width="1.5"/>
    <path d="M910.12,575.8c.3,0,.55.08.55.18s-.24.18-.55.18-.55-.08-.55-.18S909.82,575.8,910.12,575.8Z" fill="none" stroke="#000" stroke-linecap="round" stroke-linejoin="round" stroke-width="1.5"/>
    <path d="M997,599.87V586" fill="none" stroke="#000" stroke-width="2.5"/>
    <path d="M945.71,577.87c-9.41-4-20-7.53-25-13.61" fill="none" stroke="#000" stroke-width="1.5"/>
    <path d="M922.57,551.86h73.05m7.13,0h54.57M927.61,526.35h68.5m6.16,0h56.85M932.57,500.84h62.72m7.29,0h58.25M938.08,475.33h57.54m7,0h51.77M942,449.82h28.21m32.73,0h44.31m-90.67-25.51h13m5.83,0h62.77M925,538.86h27.39m-22-26H957.7m-22.36-26h27.39" fill="none" stroke="#000" stroke-linecap="round" stroke-width="1.5"/>
    <path d="M907.14,592.78H718.69m188.45-6.32c-60.92-1.12-124.08-1.68-188.45-1.94m188.45-3.35c-61.26-2.95-124.62-4.49-188.45-5.73m188.45,1.1C844.32,569.4,781.5,567,718.69,565.88m116.68-2.73c-39-2-83.21-4.79-116.68-6M550.63,589.21h14.44m1-16.84v-41" fill="none" stroke="#000" stroke-width="1.5"/>
    <path d="M512.13,123.9h7.22v4.47h-6.87m-.34,105.07h7.22v4.47h-6.87m-.34,62.91h7.22v4.47h-6.87m-.34,103.24h7.22V413h-6.87m37.58-115.15a42.21,42.21,0,0,0,15.58,0l-15.12-18.1" fill="none" stroke="#000" stroke-width="2.5"/>
    <path d="M550.41,476.23c26,0,51.2.36,76.08,1m-76.08-22.49c26,0,51.2.36,76.08,1M550.41,433.2c26,0,51.2.36,76.08,1m-76.08-22.49c26,0,51.2.36,76.08,1m-76.08-22.49c26,0,51.2.36,76.08,1m-76.08-22.49c26,0,51.2.36,76.08,1m-76.08-22.49c26,0,51.2.36,76.08,1M550.41,325.6c26,0,51.2.36,76.08,1m-76.08-22.49c26,0,51.2.36,76.08,1m-76.08-22.49c26,0,51.2.36,76.08,1M550.41,261c26,0,51.2.36,76.08,1m-76.08-22.49c26,0,51.2.36,76.08,1M550.41,218c26,0,51.2.36,76.08,1m-76.08-22.49c26,0,51.2.36,76.08,1M550.41,175c26,0,51.2.36,76.08,1m-76.08-22.49c23.69,0,46.78.29,69.55.82M550.4,136.92q25.21,0,50.41.43m-50,354.93c26,0,51.2.36,76.08,1m-76.08,14.84c26,0,51.2.36,76.08,1" fill="none" stroke="#000" stroke-width="1.5"/>
    <path d="M511.56,260.74c-12.57-.84-12.72-5.66,0-6.42" fill="none" stroke="#000" stroke-width="2.5"/>
    <path d="M512.56,257.53h5.87" fill="none" stroke="#000" stroke-linecap="round" stroke-width="2.5"/>
    <path d="M388.6,581.92H550M388.6,564.74H550M388.6,547.57H550M388.6,530.39H550M388.6,513.21H550M388.6,496H550M388.6,478.86H550m-161.4-14H550m-161.4-14H550M388.6,437H512.08m-123.8-15.79H550M388.28,399.32H550M388.28,377.47H550M388.28,355.62H550M388.28,333.76H550M388.28,311.91H550M388.28,290.06H550M388.28,268.21H550M388.28,246.35H550M388.28,224.5H550M388.28,202.65H550M388.28,180.8H550M388.28,158.94H550M388.28,137.09H550M388.28,115.24H550M388.28,97.13H512.65M394.31,82.47H534" fill="none" stroke="#000" stroke-width="1.5"/>
    <path d="M406.23,67.8h97.41" fill="none" stroke="#000" stroke-linecap="round" stroke-width="1.5"/>
    <path d="M550.18,1068.62c40.44-11.35,75.85-26.22,75.85-58.21V677.21c0-16.69,5.06-32,41.94-41M550,639c165.32.56,308.23-17.48,447-38.68m-77.83,11.94L942.47,738c5.2,28,16.22,51.06,51.85,50.88,56.32-.29,71.82-60.41,73.24-134.5.25-12.77-1.18-24.4-12.32-29.49L1002.1,600.6" fill="none" stroke="#000" stroke-width="2.5"/>
    <path d="M1002.77,601.13V736.28H975.5v50.24M388.32,687.18c-5.82.07-10.53,2.24-10.59,10.2-.06,8.42,5.51,9.57,11,9.71M248.28,629.28l5.27-11.18c1.35.68,1.92,3.08,1.06,5l-3.54,7.84m-8.5-5.33,5.27-11.18c1.35.68,1.92,3.08,1.06,5l-3.54,7.84m-8.5-5.33,5.27-11.18c1.35.68,1.92,3.08,1.06,5l-3.54,7.84" fill="none" stroke="#000" stroke-width="2.5"/>
    <path d="M267.39,640H388.61" fill="none" stroke="#000" stroke-width="1.5"/>
    <path d="M298.67,644.21v3.61h8.19V644m4.12.17v3.61h8.19V644m24.86.17v3.61h8.19V644m4.12.17v3.61h8.19V644m19.19.17v3.61h4.86m-120.87-7.73v3.61l8.19,1.72v-3.78" fill="none" stroke="#000" stroke-linejoin="round" stroke-width="2.5"/>
    <path d="M546.27,1088.67H512.08V748.33h37.64" fill="none" stroke="#000" stroke-width="2.5"/>
    <path d="M550.41,654.87c26.05-.06,58.83-4.21,109.2-17.65" fill="none" stroke="#000" stroke-width="1.5"/>
    <path d="M675.58,633.74H591.1c-14.64,0-25.06-9.49-25.06-21V573c0-11.49,10.42-21,25.06-21h84.48m-75.51,82v-82.2" fill="none" stroke="#000" stroke-width="2.5"/>
    <path d="M595.82,628.92c-15.12.54-25.73-4.49-25.73-23.62V580.46c0-19.12,10.61-24.16,25.73-23.62v72.08ZM670.07,614H604.2V571.71h65.87V614ZM604.2,618.1v11.34h65.87V618.1Zm75.16,4.34v6.3c0,2.44,1.47,3,2.41,3l26.06-1.23c2.1-.1,5-.49,5.18-2.43.39-4-13.7-8.37-26.25-8.35-4.47,0-7.4.66-7.4,2.72Z" fill="none" stroke="#000" stroke-width="2.5"/>
    <path d="M910.12,610c.3,0,.55-.08.55-.18s-.24-.18-.55-.18-.55.08-.55.18.25.18.55.18Z" fill="none" stroke="#000" stroke-linecap="round" stroke-linejoin="round" stroke-width="1.5"/>
    <path d="M945.71,607.89c-9.41,4-20,7.53-25,13.61" fill="none" stroke="#000" stroke-width="1.5"/>
    <path d="M922.57,633.9h73.05m7.13,0h54.57M927.61,659.41h68.5m6.16,0h56.85M932.57,684.92h62.72m7.29,0h58.25M938.08,710.43h57.54m7,0h51.77M942,735.94h28.21m32.73,0h44.31m-90.67,25.51h13m5.83,0h62.77M925,646.89h27.39m-22,26H957.7m-22.36,26h27.39" fill="none" stroke="#000" stroke-linecap="round" stroke-width="1.5"/>
    <path d="M907.14,599.3c-60.92,1.12-124.08,1.68-188.45,1.94m188.45,3.35c-61.26,2.95-124.62,4.49-188.45,5.73m188.45-1.1c-62.82,7.13-125.64,9.53-188.45,10.66m116.68,2.73c-39,2-83.21,4.79-116.68,6M550.63,596.55h14.44m1,16.84v41" fill="none" stroke="#000" stroke-width="1.5"/>
    <path d="M512.13,1061.86h7.22v-4.47h-6.87m-.34-105.07h7.22v-4.47h-6.87m-.34-62.91h7.22v-4.47h-6.87m-.34-103.24h7.22v-4.47h-6.87m37.58,115.15a42.25,42.25,0,0,1,15.58,0L550.52,906" fill="none" stroke="#000" stroke-width="2.5"/>
    <path d="M550.41,709.52c26,0,51.2-.36,76.08-1M550.41,731c26,0,51.2-.36,76.08-1m-76.08,22.49c26,0,51.2-.36,76.08-1m-76.08,22.49c26,0,51.2-.36,76.08-1M550.41,795.6c26,0,51.2-.36,76.08-1m-76.08,22.49c26,0,51.2-.36,76.08-1m-76.08,22.49c26,0,51.2-.36,76.08-1m-76.08,22.49c26,0,51.2-.36,76.08-1m-76.08,22.49c26,0,51.2-.36,76.08-1M550.41,903.2c26,0,51.2-.36,76.08-1m-76.08,22.49c26,0,51.2-.36,76.08-1m-76.08,22.49c26,0,51.2-.36,76.08-1m-76.08,22.49c26,0,51.2-.36,76.08-1m-76.08,22.49c26,0,51.2-.36,76.08-1m-76.08,22.49c26,0,51.2-.36,76.08-1m-76.08,22.49c23.69,0,46.78-.29,69.55-.82m-69.55,17.35q25.21,0,50.41-.43m-50-354.93c26,0,51.2-.36,76.08-1m-76.08-14.84c26,0,51.2-.36,76.08-1" fill="none" stroke="#000" stroke-width="1.5"/>
    <path d="M511.56,925c-12.57.84-12.72,5.66,0,6.42" fill="none" stroke="#000" stroke-width="2.5"/>
    <path d="M512.56,928.23h5.87" fill="none" stroke="#000" stroke-linecap="round" stroke-width="2.5"/>
    <path d="M388.6,603.84H550M388.6,621H550M388.6,638.19H550M388.6,655.37H550M388.6,672.55H550M388.6,689.72H550M388.6,706.9H550m-161.4,14H550m-161.4,14H550m-161.4,14H512.08m-123.8,15.79H550M388.28,786.44H550M388.28,808.29H550M388.28,830.14H550M388.28,852H550M388.28,873.85H550M388.28,895.7H550M388.28,917.55H550M388.28,939.41H550M388.28,961.26H550M388.28,983.11H550M388.28,1005H550m-161.72,21.85H550m-161.72,21.85H550m-161.72,21.85H550m-161.72,18.1H512.65m-118.34,14.67H534" fill="none" stroke="#000" stroke-width="1.5"/>
    <path d="M406.23,1118h97.41" fill="none" stroke="#000" stroke-linecap="round" stroke-width="1.5"/>
    <path d="M263.26,588.41a3.44,3.44,0,1,1,.11,6.87h-.11a3.44,3.44,0,0,1,0-6.87Z" fill="none" stroke="#000" stroke-linecap="round" stroke-linejoin="round" stroke-width="1.5"/>
    <path d="M307.15,586.69a5.16,5.16,0,1,1,0,10.31h0a5.16,5.16,0,0,1,0-10.31Z" fill="none" stroke="#000" stroke-linecap="round" stroke-linejoin="round" stroke-width="1.5"/>
    <path d="M925.37,592.88h190.84" fill="none" stroke="#000" stroke-width="1.5"/>
    <path d="M697.43,635.33l.16,3.48c0,.53-.18.92-1.63,1-2.54.21-5.08.31-7.07.4s-4.53.21-7.07.23c-1.45,0-1.69-.36-1.71-.89l-.16-3.48" fill="none" stroke="#000" stroke-width="2.5"/>
    <path d="M1003.55,672.15a1.39,1.39,0,0,1,1.51.61c.15.43-.27.86-1,1a2,2,0,0,1-.47,0l.19-.79Z" fill="none" stroke="#000" stroke-linecap="round" stroke-linejoin="round" stroke-width="2.5"/>
    <path d="M1003.55,617.54a1.39,1.39,0,0,1,1.51.61c.15.43-.27.86-1,1a2,2,0,0,1-.47,0l.19-.79Z" fill="none" stroke="#000" stroke-linecap="round" stroke-linejoin="round" stroke-width="2.5"/>
    <path d="M1003.55,567.65a1.39,1.39,0,0,1,1.51.61c.15.43-.27.86-1,1a2,2,0,0,1-.47,0l.19-.79Z" fill="none" stroke="#000" stroke-linecap="round" stroke-linejoin="round" stroke-width="2.5"/>
    <path d="M1003.55,513a1.39,1.39,0,0,1,1.51.61c.15.43-.27.86-1,1a2,2,0,0,1-.47,0l.19-.79Z" fill="none" stroke="#000" stroke-linecap="round" stroke-linejoin="round" stroke-width="2.5"/>
    <path d="M388.94,698.31H550.17M388.6,487.45H550" fill="none" stroke="#000" stroke-width="1.5"/>
  </g>
</svg>
