<svg id="Layer_1" data-name="Layer 1" xmlns="http://www.w3.org/2000/svg" viewBox="0 0 1600 1200">
  <title>blueprint-1</title>
  <g>
    <path d="M827,548.56a26.87,26.87,0,1,1-26.87-26.87A26.87,26.87,0,0,1,827,548.56Z" fill="none" stroke="#000" stroke-linecap="round" stroke-width="2.5"/>
    <path d="M822.81,548.56a22.68,22.68,0,1,1-22.68-22.69A22.68,22.68,0,0,1,822.81,548.56Z" fill="none" stroke="#000" stroke-linecap="round" stroke-width="1.5"/>
    <path d="M801.84,548.56a1.71,1.71,0,1,1-1.71-1.71A1.71,1.71,0,0,1,801.84,548.56Z" fill="none" stroke="#000" stroke-linecap="round" stroke-width="1.5"/>
    <path d="M844.26,510.81,828.82,474.3c-5.06-13.26-12.55-15-28.82-15s-23.76,1.7-28.82,15l-15.44,36.51" fill="none" stroke="#000" stroke-width="2.5"/>
    <path d="M815.32,465.92v21.37c6.9.95,12.7,3.8,18.64,8l-9.09-20.95c-1.61-3.71-5.15-6.71-9.54-8.38Z" fill="none" stroke="#000" stroke-miterlimit="3.5" stroke-width="2.5"/>
    <path d="M812.75,524.43h34.82m.77,9.11H822.63" fill="none" stroke="#000" stroke-width="1.5"/>
    <path d="M804.62,448.61v10.75" fill="none" stroke="#000" stroke-width="2.5"/>
    <path d="M809.42,429.79v18.88m17.18-18.88v18.88m17.18-18.88v18.88m17.18-18.88v18.88m17.18-18.88v18.88m17.18-18.88v18.32m17.18-18.32v18.32m14-18.32v18.32m14-18.32v18.32m14-18.32v18.42m15.79-18.74v18.65M992,429.47v18.65m21.85-18.65v18.65m21.85-18.65v18.65m21.85-18.65v18.65m21.85-18.65v18.65m21.85-18.65v18.65m21.85-18.65v18.65M1145,429.47v18.65m21.85-18.65v18.65m21.85-18.65v18.65m21.85-18.65v18.65m21.85-18.65v18.65m21.85-18.65v19.21m21.85-19.21v19.69m18.1-19.69v19.31m14.67-17.06v16.08" fill="none" stroke="#000" stroke-width="1.5"/>
    <path d="M1323.54,433v13.61" fill="none" stroke="#000" stroke-linecap="round" stroke-width="1.5"/>
    <path d="M903.89,429.79v18.32" fill="none" stroke="#000" stroke-width="1.5"/>
    <path d="M848.91,598.27c3.59,4.63,10,7.54,38.55,6.55l335.94-11.64c30-1,50,5.7,50.34,9.48.49,6.23-31.26,8.7-54.23,9.48L848.4,624.8" fill="none" stroke="#000" stroke-width="2.5"/>
    <path d="M1270.21,606.07,846.33,619.45" fill="none" stroke="#000" stroke-width="1.5"/>
    <path d="M1142.42,448.61l-42,148.71m37.09-148.71-42,148.71" fill="none" stroke="#000" stroke-width="2.5"/>
    <path d="M919.21,603.57l.64,19.24m20.87-19.95.64,19.24m20.87-19.95.64,19.24m20.87-19.95.64,19.24m20.87-19.95.64,19.24M1026.75,600l.64,19.24m20.87-19.95.64,19.24m20.87-19.95.64,19.24m20.87-19.95.64,19.24m20.87-19.95.64,19.24m20.87-19.95.64,19.24m20.87-19.95.64,19.24M1177.3,595l.64,19.24m20.87-19.95.64,19.24m20.87-19.95.64,19.24m20.95-20,.68,17.83m16.15-15.15q.25,6.83.52,13.59m-356.05-4.59.64,19.24m-16.44-18.71.64,19.24" fill="none" stroke="#000" stroke-width="1.5"/>
    <path d="M895.57,448.49l-50.34,64.93m43.71-65.11L843,507.57m3.57,11.32,146.77-3.53c7.21-.17,7.09-5.73,0-5.84l-143.73-2.19" fill="none" stroke="#000" stroke-width="2.5"/>
    <path d="M845.68,513.34h152.7" fill="none" stroke="#000" stroke-width="1.5"/>
    <path d="M856,507.21V518m25.51-10.43V518M907,507.93V517m25.51-7.85v7.44M958,509.07v7.36m25.51-6.62v5.24m-114.55-7.68V518.3m26-10.05v9.32m26-9.54v9.22" fill="none" stroke="#000" stroke-linecap="round" stroke-width="1.5"/>
    <path d="M846.81,520.23c11.08,4.66,19.75,18.66,19.94,38.67.12,12.27-2.63,30.08-16.9,36.36m55.42-77.52L866.86,557.5m32.83-39.85-33.56,34.74M809.12,669c-.36,4.88-1,13.13-3.1,13.13H794c-2.06,0-2.74-8.26-3.1-13.13m55-48.7L895,724.63" fill="none" stroke="#000" stroke-width="2.5"/>
    <path d="M843.65,632.83,880.5,717.7a55.15,55.15,0,0,1,4.22,15.58c.37,5.37-1.42,7.85-3.78,5.85L808,677.56m-1.33,4.63,75.39,63.66c3.36,2.83,6.69,3.06,9.43,3.68m240.75-319.68c0-2.62,1.19-4.43,3.44-4.38s3.62,1.83,3.7,4.47" fill="none" stroke="#000" stroke-width="2.5"/>
    <path d="M845.72,615.8l288.43-167.07m-220.21-.24L1093.13,597.6" fill="none" stroke="#000"/>
    <path d="M856.66,662.25l7.05-2.68m20.91,69.07,10.21-4.26" fill="none" stroke="#000" stroke-width="1.5"/>
    <path d="M830.72,664a211,211,0,0,0,7.47-31.64H761.82A211,211,0,0,0,769.28,664h61.43ZM800,632.68v30.78m6.11-30.78v30.78m6.11-30.78v30.78m6.11-30.78v30.78m6.11-30.78v30.78m6.11-30.78v30.78" fill="none" stroke="#000" stroke-width="2.5"/>
    <path d="M809.91,604.79a9.79,9.79,0,1,1-9.79-9.79A9.79,9.79,0,0,1,809.91,604.79Z" fill="none" stroke="#000" stroke-linecap="round" stroke-width="2.5"/>
    <path d="M813.5,626.87h13.74" fill="none" stroke="#000" stroke-linecap="round" stroke-width="1.5"/>
    <path d="M815.67,570.35c8.51,14.86,19.24,24.14,33,25.71" fill="none" stroke="#000" stroke-width="1.5"/>
    <path d="M853.67,573.61a3.27,3.27,0,1,1-3.27-3.27A3.27,3.27,0,0,1,853.67,573.61Z" stroke="#000" stroke-linecap="round" stroke-linejoin="round" stroke-width="1.5"/>
    <path d="M853,546.27a3.27,3.27,0,0,1-6.53.11s0-.07,0-.11a3.27,3.27,0,0,1,6.53,0Z" stroke="#000" stroke-linecap="round" stroke-linejoin="round" stroke-width="1.5"/>
    <path d="M819.58,574.36a.26.26,0,0,1-.51,0,.24.24,0,0,1,0,0,.26.26,0,0,1,.51,0Z" fill="none" stroke="#000" stroke-linecap="round" stroke-width="1.5"/>
    <path d="M819.58,577.84a.26.26,0,0,1-.51,0,.24.24,0,0,1,0,0,.26.26,0,0,1,.51,0Z" fill="none" stroke="#000" stroke-linecap="round" stroke-width="1.5"/>
    <path d="M826.28,582.79a.26.26,0,0,1-.51,0h0a.26.26,0,0,1,.51,0Z" fill="none" stroke="#000" stroke-linecap="round" stroke-width="1.5"/>
    <path d="M826.28,586.27a.26.26,0,0,1-.51,0h0a.26.26,0,0,1,.51,0Z" fill="none" stroke="#000" stroke-linecap="round" stroke-width="1.5"/>
    <path d="M833.93,588.8a.26.26,0,0,1-.51,0,.24.24,0,0,1,0,0,.26.26,0,0,1,.51,0Z" fill="none" stroke="#000" stroke-linecap="round" stroke-width="1.5"/>
    <path d="M833.93,592.29a.26.26,0,0,1-.51,0,.24.24,0,0,1,0,0,.26.26,0,0,1,.51,0Z" fill="none" stroke="#000" stroke-linecap="round" stroke-width="1.5"/>
    <path d="M841.59,592.67a.26.26,0,0,1-.51,0,.24.24,0,0,1,0,0,.26.26,0,0,1,.51,0Z" fill="none" stroke="#000" stroke-linecap="round" stroke-width="1.5"/>
    <path d="M841.59,596.16a.26.26,0,1,1-.51,0,.24.24,0,0,1,0,0,.26.26,0,0,1,.51,0Z" fill="none" stroke="#000" stroke-linecap="round" stroke-width="1.5"/>
    <path d="M882.93,448.24l-64.2,53.5" fill="none" stroke="#000"/>
    <path d="M890.71,756.85c.47-10,1.09-17.3,2.55-24.81,8.93-45.79,15.62-47,21.4-46.34s12,3.39,10.15,50c-.3,7.64-1.37,14.84-3.23,24.73-1.48,7.88-6.75,7.73-16.42,6.61s-14.83-2.19-14.45-10.2Z" fill="none" stroke="#000" stroke-width="2.5"/>
    <path d="M894.85,764.82l-.79,6.5c-1,7.89-.18,14.07,7.78,15.08,7.6,1,11.76-2.27,12.89-12.4l.73-6.57" fill="none" stroke="#000" stroke-width="2.5"/>
    <path d="M806,473a5.89,5.89,0,0,1-11.79,0v0A5.89,5.89,0,0,1,806,473Z" fill="none" stroke="#000" stroke-linecap="round" stroke-width="1.5"/>
    <path d="M800.12,479.15v7.68" fill="none" stroke="#000" stroke-width="1.5"/>
    <path d="M801.54,473a1.42,1.42,0,0,1-2.84,0v0a1.42,1.42,0,0,1,2.84,0Z" fill="none" stroke="#000" stroke-linecap="round"/>
    <path d="M800.12,467.45v4.18m0,2.62V479m5.6-6H801.4m-2.75,0h-4.12" fill="none" stroke="#000"/>
    <path d="M832.71,547.34A162.6,162.6,0,0,1,831.13,565h8.63a139.53,139.53,0,0,0,1.7-17.63Z" fill="none" stroke="#000" stroke-width="1.5"/>
    <path d="M834.73,550.26c-.2,3.79-.61,7.78-1,11.79m3.2-11.79c-.2,3.79-.61,7.78-1,11.79m3.2-11.79c-.2,3.79-.61,7.78-1,11.79" fill="none" stroke="#000" stroke-linecap="round" stroke-width="1.5"/>
    <path d="M814.68,516.61l9.2,5c.73-.9.6-3-.52-3.57L818,515.15c-1.14-.62-2.52.52-3.35,1.46Z" fill="none" stroke="#000" stroke-width="2.5"/>
    <path d="M824.41,519.69l2.27,1.32c.73-.9.6-3-.52-3.57l-5.33-2.92a2.07,2.07,0,0,0-2.19.4" fill="none" stroke="#000" stroke-width="2.5"/>
    <path d="M827.24,519.17l2.23,1.22c.73-.9.6-3-.52-3.57l-5.33-2.92a2.18,2.18,0,0,0-2.34.51" fill="none" stroke="#000" stroke-width="2.5"/>
    <path d="M825,500.06l-2.68,2.41a30.6,30.6,0,0,1,10,3.48l2.3-2.37A33.39,33.39,0,0,0,825,500.06Z" fill="none" stroke="#000" stroke-width="1.5"/>
    <path d="M825.91,501.78a27.07,27.07,0,0,1,5.59,2" fill="none" stroke="#000" stroke-linecap="round" stroke-width="1.5"/>
    <path d="M901.41,698.73c5.53,4.77,12.31,7.43,22.86,3.77" fill="none" stroke="#000" stroke-width="1.5"/>
    <path d="M766.2,668.82c-8.79-26.47-12.47-48.73-14.83-67.67-2.27-18.15-1.28-41.47,0-66,1.85-34.36,11.39-37.54,35-39.18a205.68,205.68,0,0,1,27.11,0c23.7,1.42,33.26,4.77,35.11,39.19,1.32,24.5,2.31,47.82,0,66-2.37,18.94-6,41.2-14.83,67.67H766.2Z" fill="none" stroke="#000" stroke-linejoin="round" stroke-width="2.5"/>
    <path d="M788.63,486.68V464.81a56.22,56.22,0,0,1,22.74,0v21.87c-3.35-.22-7.22-.25-11.37-.25S792,486.46,788.63,486.68Z" fill="none" stroke="#000" stroke-width="2.5"/>
    <path d="M784.68,465.92v21.37c-6.9.95-12.7,3.8-18.64,8l9.09-20.95c1.61-3.71,5.15-6.71,9.54-8.38Z" fill="none" stroke="#000" stroke-miterlimit="3.5" stroke-width="2.5"/>
    <path d="M787.25,524.43H752.43m-.77,9.11h25.71" fill="none" stroke="#000" stroke-width="1.5"/>
    <path d="M322.87,430.12c-35,0-61.26,3.78-61.3,9.12-.06,8.73,38.13,9.27,61.64,9.27h953.58c23.51,0,61.7-.53,61.64-9.27,0-5.34-26.28-9.12-61.3-9.12H322.87Zm472.51-.73c0-24.26.32-43.29,4.62-43.29s4.62,19,4.62,43.29m-9.24,19.21v10.75" fill="none" stroke="#000" stroke-width="2.5"/>
    <path d="M264.06,442.65H1335.94M790.58,429.79v18.88m-17.18-18.88v18.88m-17.18-18.88v18.88m-17.18-18.88v18.88m-17.18-18.88v18.88M704.7,429.79v18.32m-17.18-18.32v18.32m-14-18.32v18.32m-14-18.32v18.32m-14-18.32v18.42m-15.79-18.74v18.65M608,429.47v18.65m-21.85-18.65v18.65m-21.85-18.65v18.65m-21.85-18.65v18.65m-21.85-18.65v18.65m-21.85-18.65v18.65m-21.85-18.65v18.65M455,429.47v18.65m-21.85-18.65v18.65m-21.85-18.65v18.65m-21.85-18.65v18.65M367.6,429.47v18.65m-21.85-18.65v19.21M323.9,429.47v19.69m-18.1-19.69v19.31m-14.67-17.06v16.08" fill="none" stroke="#000" stroke-width="1.5"/>
    <path d="M276.46,433v13.61" fill="none" stroke="#000" stroke-linecap="round" stroke-width="1.5"/>
    <path d="M696.11,429.79v18.32" fill="none" stroke="#000" stroke-width="1.5"/>
    <path d="M751.09,598.27c-3.59,4.63-10,7.54-38.55,6.55L376.6,593.19c-30-1-50,5.7-50.34,9.48-.49,6.23,31.26,8.7,54.23,9.48L751.6,624.8" fill="none" stroke="#000" stroke-width="2.5"/>
    <path d="M329.79,606.07l423.88,13.38" fill="none" stroke="#000" stroke-width="1.5"/>
    <path d="M457.58,448.61l42,148.71M462.45,448.61l42,148.71" fill="none" stroke="#000" stroke-width="2.5"/>
    <path d="M680.38,603.56l-.64,19.24m-20.87-19.95-.64,19.24m-20.87-19.95-.64,19.24m-20.87-19.95-.64,19.24m-20.87-19.95L593.71,620M572.84,600l-.64,19.24m-20.87-19.95-.64,19.24m-20.87-19.95-.64,19.24m-20.87-19.95-.64,19.24m-20.87-19.95-.64,19.24M465.3,596.44l-.64,19.24M443.8,595.73,443.16,615M422.29,595l-.64,19.24M400.78,594.3l-.64,19.24m-20.87-19.95-.64,19.24m-20.95-20L357,610.7m-16.15-15.15q-.25,6.83-.52,13.59m356.05-4.59-.64,19.24m16.44-18.71-.64,19.24" fill="none" stroke="#000" stroke-width="1.5"/>
    <path d="M704.43,448.49l50.34,64.93m-43.71-65.11L757,507.57m-3.57,11.32-146.77-3.53c-7.21-.17-7.09-5.73,0-5.84l143.73-2.19" fill="none" stroke="#000" stroke-width="2.5"/>
    <path d="M754.32,513.34H601.62" fill="none" stroke="#000" stroke-width="1.5"/>
    <path d="M744,507.21V518m-25.51-10.43V518M693,507.93V517m-25.51-7.85v7.44M642,509.07v7.36m-25.51-6.62v5.24m114.55-7.68V518.3m-26-10.05v9.32m-26-9.54v9.22" fill="none" stroke="#000" stroke-linecap="round" stroke-width="1.5"/>
    <path d="M753.19,520.23c-11.08,4.66-19.75,18.66-19.94,38.67-.12,12.27,2.63,30.08,16.9,36.36m-55.42-77.52,38.42,39.77m-32.83-39.85,33.56,34.74m20.28,67.91L705,724.63m51.31-91.81L719.5,717.7a55.15,55.15,0,0,0-4.22,15.58c-.37,5.37,1.42,7.85,3.78,5.85L792,677.56m1.33,4.63-75.39,63.66c-3.36,2.83-6.69,3.06-9.43,3.68M467.75,429.85c0-2.62-1.19-4.43-3.44-4.38s-3.62,1.83-3.7,4.47" fill="none" stroke="#000" stroke-width="2.5"/>
    <path d="M754.28,615.8,465.85,448.73m220.21-.24L506.87,597.6" fill="none" stroke="#000"/>
    <path d="M743.34,662.25l-7.05-2.68m-20.91,69.07-10.21-4.26" fill="none" stroke="#000" stroke-width="1.5"/>
    <path d="M793.89,632.68v30.78m-6.11-30.78v30.78m-6.11-30.78v30.78m-6.11-30.78v30.78m-6.11-30.78v30.78" fill="none" stroke="#000" stroke-width="2.5"/>
    <path d="M790.52,626.87c-4.08-6.72-7.29-13.15-7.34-22.27-.05-9.43,5.43-15.06,16.82-15.06s16.88,5.63,16.82,15.06c-.05,9.12-3.26,15.54-7.34,22.27h-19Z" fill="none" stroke="#000" stroke-width="1.5"/>
    <path d="M786.5,626.87H772.76" fill="none" stroke="#000" stroke-linecap="round" stroke-width="1.5"/>
    <path d="M784.33,570.35c-8.51,14.86-19.24,24.14-33,25.71" fill="none" stroke="#000" stroke-width="1.5"/>
    <path d="M746.33,573.61a3.27,3.27,0,0,0,6.53.11s0-.07,0-.11a3.27,3.27,0,0,0-6.53,0Z" stroke="#000" stroke-linecap="round" stroke-linejoin="round" stroke-width="1.5"/>
    <path d="M747,546.27a3.27,3.27,0,0,0,6.53.11s0-.07,0-.11a3.27,3.27,0,0,0-6.53,0Z" stroke="#000" stroke-linecap="round" stroke-linejoin="round" stroke-width="1.5"/>
    <path d="M780.42,574.36a.26.26,0,0,0,.51,0,.24.24,0,0,0,0,0,.26.26,0,0,0-.51,0Z" fill="none" stroke="#000" stroke-linecap="round" stroke-width="1.5"/>
    <path d="M780.42,577.84a.26.26,0,0,0,.51,0,.24.24,0,0,0,0,0,.26.26,0,0,0-.51,0Z" fill="none" stroke="#000" stroke-linecap="round" stroke-width="1.5"/>
    <path d="M773.72,582.79a.26.26,0,0,0,.51,0,.24.24,0,0,0,0,0,.26.26,0,0,0-.51,0Z" fill="none" stroke="#000" stroke-linecap="round" stroke-width="1.5"/>
    <path d="M773.72,586.27a.26.26,0,1,0,.51,0,.24.24,0,0,0,0,0,.26.26,0,0,0-.51,0Z" fill="none" stroke="#000" stroke-linecap="round" stroke-width="1.5"/>
    <path d="M766.07,588.8a.26.26,0,0,0,.51,0h0a.26.26,0,0,0-.51,0Z" fill="none" stroke="#000" stroke-linecap="round" stroke-width="1.5"/>
    <path d="M766.07,592.29a.26.26,0,0,0,.51,0h0a.26.26,0,0,0-.51,0Z" fill="none" stroke="#000" stroke-linecap="round" stroke-width="1.5"/>
    <path d="M758.41,592.67a.26.26,0,0,0,.51,0,.24.24,0,0,0,0,0,.26.26,0,0,0-.51,0Z" fill="none" stroke="#000" stroke-linecap="round" stroke-width="1.5"/>
    <path d="M758.41,596.16a.26.26,0,1,0,.51,0,.24.24,0,0,0,0,0,.26.26,0,0,0-.51,0Z" fill="none" stroke="#000" stroke-linecap="round" stroke-width="1.5"/>
    <path d="M790.09,578.86a32.5,32.5,0,0,0,19.82,0" fill="none" stroke="#000" stroke-linecap="round" stroke-width="1.5"/>
    <path d="M717.07,448.24l64.2,53.5" fill="none" stroke="#000"/>
    <path d="M709.29,756.85c-.47-10-1.09-17.3-2.55-24.81-8.93-45.79-15.62-47-21.4-46.34s-12,3.39-10.15,50c.3,7.64,1.37,14.84,3.23,24.73,1.48,7.88,6.75,7.73,16.42,6.61s14.83-2.19,14.45-10.2Z" fill="none" stroke="#000" stroke-width="2.5"/>
    <path d="M705.15,764.82l.79,6.5c1,7.89.18,14.07-7.78,15.08-7.6,1-11.76-2.27-12.89-12.4l-.73-6.57" fill="none" stroke="#000" stroke-width="2.5"/>
    <path d="M767.29,547.34A162.6,162.6,0,0,0,768.87,565h-8.63a139.7,139.7,0,0,1-1.7-17.63Z" fill="none" stroke="#000" stroke-width="1.5"/>
    <path d="M765.27,550.26c.2,3.79.61,7.78,1,11.79m-3.2-11.79c.2,3.79.61,7.78,1,11.79m-3.2-11.79c.2,3.79.61,7.78,1,11.79" fill="none" stroke="#000" stroke-linecap="round" stroke-width="1.5"/>
    <path d="M785.32,516.61l-9.2,5c-.73-.9-.6-3,.52-3.57l5.33-2.92C783.1,514.52,784.48,515.66,785.32,516.61Z" fill="none" stroke="#000" stroke-width="2.5"/>
    <path d="M775.59,519.69,773.33,521c-.73-.9-.6-3,.52-3.57l5.33-2.92a2.07,2.07,0,0,1,2.19.4" fill="none" stroke="#000" stroke-width="2.5"/>
    <path d="M772.76,519.17l-2.23,1.22c-.73-.9-.6-3,.52-3.57l5.33-2.92a2.18,2.18,0,0,1,2.34.51" fill="none" stroke="#000" stroke-width="2.5"/>
    <path d="M775,500.06l2.68,2.41a30.6,30.6,0,0,0-10,3.48l-2.3-2.37A33.39,33.39,0,0,1,775,500.06Z" fill="none" stroke="#000" stroke-width="1.5"/>
    <path d="M774.09,501.78a27.07,27.07,0,0,0-5.59,2" fill="none" stroke="#000" stroke-linecap="round" stroke-width="1.5"/>
    <path d="M698.59,698.73c-5.53,4.77-12.31,7.43-22.86,3.77" fill="none" stroke="#000" stroke-width="1.5"/>
    <path d="M790.09,581.82a32.48,32.48,0,0,0,19.82,0m-19.82,3a32.51,32.51,0,0,0,19.82,0" fill="none" stroke="#000" stroke-linecap="round" stroke-width="1.5"/>
    <path d="M994.77,548.56c0,107.5-87.15,194.65-194.65,194.65S605.47,656.06,605.47,548.56s87.15-194.65,194.65-194.65,194.65,87.15,194.65,194.65Z" fill="none" stroke="#000" stroke-linecap="round"/>
  </g>
  <path d="M1043,47.94V91.11m0,18.71v10.9" fill="none" stroke="#000" stroke-width="1.5"/>
</svg>
