<svg id="Layer_1" data-name="Layer 1" xmlns="http://www.w3.org/2000/svg" viewBox="0 0 1190 1193.97">
  <title>blueprint-2</title>
  <g>
    <path d="M201.46,588.53c-12.81-2.07-49-13.54-49-25.78s36.21-23.71,49-25.78m.12-.08a97.61,97.61,0,0,1,10.08-4.7m3.19-1.22q2.28-.83,4.56-1.56m2.82-.86q2.43-.71,4.85-1.32m3.19-.76c14.67-3.32,28.37-4,37.31-4.58l128.67-8m10.88-.68,11-.69m10.5-.66,24.16-1.51m8.92-.56,13.43-.84m14.76-.92,44.16-2.76,20-16.9a34.73,34.73,0,0,1,23.33-8.43h65.5c57,0,159.71,18.31,236.72,30.14,19.25,3,27.3,1.46,30.71-6.19,13.71-30.72,30.61-58.65,55-80,11.06-9.67,23.11-15,36-15.12,54-.59,87.62,69.52,86.85,123.52-.32,22.39-3.78,42.83-34.15,52.94-39.91,13.29-92.62,24.16-147.35,32.31-98.52,14.68-199.95,25.49-322.3,25.88-27.66.09-54.22,18.86-58.66,49.26l-57.92,1.4m-12.34.21c-12.54-.09-25.61-.8-37.47-1.88M391.3,689c-1.55-.28-3-.57-4.36-.86v-39M201.54,536.81V588.9" fill="none" stroke="#000" stroke-width="2.5"/>
    <path d="M570.92,480.09v50.07h72.59V479.93" fill="none" stroke="#000" stroke-width="2.5"/>
    <path d="M643.35,530.65V642.3m44.72-159.94V640.68M890.4,536.88h146" fill="none" stroke="#000" stroke-width="1.5"/>
    <path d="M1041.08,537.11a837.43,837.43,0,0,0-95.91-6.42c-29.82-.16-55.94,1-55.91,6,0,4.45,35.72,4.75,59.24,4.47,38.33-.46,64.91-2,92.58-4Z" fill="none" stroke="#000" stroke-linejoin="round" stroke-width="2.5"/>
    <path d="M958.75,530.9c-3.81.77-8.36,7.61,0,10m6.61-117.5v25.21H996.5v83.78m0,7.45v61.25" fill="none" stroke="#000" stroke-width="2.5"/>
    <path d="M991.92,532.3c-33.29-7.52-73.44-15-113.93-22.55" fill="none" stroke="#000" stroke-width="1.5"/>
    <path d="M920.93,540.7l7.62,64.82c1.7.87,5.94-.07,7.13-.65l-7.29-63.52m44.24-.65-2.75,57.36a13.35,13.35,0,0,0,6.48,0l2.75-57.2" fill="none" stroke="#000" stroke-width="2.5"/>
    <path d="M879.63,509.84v43.31h42.76m7.13,0h42.62m6.32,0h18m-88.69,0v64.16m-.23-29.1h18.69m7.62,0h36.3m6.81,0h19.5m-54.88,0v23.15m32.77-12.49v6.53" fill="none" stroke="#000" stroke-width="1.5"/>
    <path d="M996.44,448.66H1001v5.75h-3.56m-1,39.78H1001v5.75h-3.56m3.56,39.38v5.18h-3.56" fill="none" stroke="#000" stroke-width="2.5"/>
    <path d="M905.91,509c30.94,4.58,59.92,9.17,85.67,13.75m-49.1-74.28H965m41.16,0h52m-132.69,26h65.9m14.81,0h62.06m-156.06,26h79.19m14.81,0h70.77m-75.17,26h80.79m-80.79,28.19h78.5m-78.5,28.19h46.87m-76-154.91h60.81m-99.68,33.61h37.11m-51.69,26H967" fill="none" stroke="#000" stroke-linecap="round" stroke-width="1.5"/>
    <path d="M975.31,455.56c0-3.65,9.4-1.21,9.4,0s-9.4,3.65-9.4,0Z" fill="none" stroke="#000" stroke-width="2.5"/>
    <path d="M885.38,521.17c-.3,0-.55-.08-.55-.18s.25-.18.55-.18.55.08.55.18-.25.18-.55.18Z" fill="none" stroke="#000" stroke-linecap="round" stroke-linejoin="round" stroke-width="1.5"/>
    <path d="M885.38,547.58c-.3,0-.55-.08-.55-.18s.25-.18.55-.18.55.08.55.18-.25.18-.55.18Z" fill="none" stroke="#000" stroke-linecap="round" stroke-linejoin="round" stroke-width="1.5"/>
    <path d="M910.45,512.16a.37.37,0,1,1-.74,0s0,0,0,0a.37.37,0,0,1,.74,0Z" fill="none" stroke="#000" stroke-linecap="round" stroke-linejoin="round" stroke-width="1.5"/>
    <path d="M935.43,516.52a.37.37,0,1,1-.74,0s0,0,0,0a.37.37,0,0,1,.74,0Z" fill="none" stroke="#000" stroke-linecap="round" stroke-linejoin="round" stroke-width="1.5"/>
    <path d="M966.71,522.36a.37.37,0,0,1-.75,0h0a.37.37,0,0,1,.75,0Z" fill="none" stroke="#000" stroke-linecap="round" stroke-linejoin="round" stroke-width="1.5"/>
    <path d="M924.94,575.28a7.45,7.45,0,1,1-1.63-13" fill="none" stroke="#000" stroke-linecap="round" stroke-linejoin="round" stroke-width="1.5"/>
    <path d="M734.18,487.79v-8.14H738V488" fill="none" stroke="#000" stroke-width="2.5"/>
    <path d="M687.59,565.33H907.32M687.59,579.91l219.73-2.29m-219.73,15.9c76-.68,148.55-2.23,219.73-4.12M687.59,604.87c79.64-.27,149.28-4.18,219.73-7.79M687.59,626.58c77.48-3.26,151.73-8.12,219.73-17.42m-219.73,7.69q109.23-3.68,219.73-13.75M687.59,634c65-.72,160-11.15,219.73-19.48M687.82,552c65.1,0,129.4.07,191.47.63m-191.7-11.14c65.69.52,129.59,1.39,192.23,2.52m-192.23-12.6c68.3.17,132.49,1.24,192.23,4.47M687.59,521.79c64.08.71,128.15,2.59,192.23,7.56M687.59,511.7c64.88,2.29,129.18,5.74,192.23,11.69M687.59,500.47c64.08,3.83,128.15,9.69,192.23,17.19M687.59,492.45q96.57,6.75,192.23,20.85" fill="none" stroke="#000" stroke-width="1.5"/>
    <path d="M348.49,768.66c.59-34.76,20.63-57.94,54.43-59.26,33.26-1.29,78.22,21.36,81.91,41.68,2.62,14.44-31.74,27.33-74.52,38.8-19.33,5.18-37.33,7.9-48.1,4.61-8.87-2.71-14-11.18-13.72-25.83Z" fill="none" stroke="#000" stroke-width="2.5"/>
    <path d="M436.42,714.57l-68.54,7" fill="none" stroke="#000" stroke-width="1.5"/>
    <path d="M448.45,778.46a45.21,45.21,0,0,1-76.56,17.61m55.39-10.88a29.65,29.65,0,0,1-31.7,8.33" fill="none" stroke="#000" stroke-width="2.5"/>
    <path d="M201.08,588.22c38.21,35.33,115.91,55.71,196.25,62.15m15.51,1.07q26.19,1.52,52.43,1.07H511m11.06,0h30.43" fill="none" stroke="#000" stroke-width="2.5"/>
    <path d="M181.26,542.5v40.45m10.77-44v47.21" fill="none" stroke="#000" stroke-width="1.5"/>
    <path d="M222.39,604c3.69,4.71,2.52,7.93-.57,10.54l8.94,20.28c32.71,6.87,79.7,9.15,127.42,11.22M984.5,603.72V609h5.93v-6.79m-13.67-9.64H996.2m.51-1.85c8.89-.09,8.47,3.66,0,3.7m-54.16,17.13,16.66,21.77,9.48,6.81m-5.11-32.71-3.65,12.28,3.65,11.92,6.32,6.32" fill="none" stroke="#000" stroke-width="2.5"/>
    <path d="M969.27,640.48l.44-2.71h8.6c1.16,0,2.13-.11,2.49,1.12s-.89,2.42-5.55,3.35c-2.82.56-4-.4-6-1.76Z" fill="none" stroke="#000" stroke-width="2.5"/>
    <path d="M950.51,621.3l9.54-1.7m3.65,12.16-4.5,1.58" fill="none" stroke="#000" stroke-width="1.5"/>
    <path d="M357.87,458.32c0-4.64,26.9-10.78,60.19-11.18,49.9-.59,96.72,9.63,103.18,13.58-30.4,3.27-65.15,4.17-103.35,3.44-27.51-.53-60,.35-60-5.85Z" fill="none" stroke="#000" stroke-linejoin="round" stroke-width="2.5"/>
    <path d="M370.42,457.63c48-.53,95.17,0,140,3.61" fill="none" stroke="#000" stroke-linecap="round" stroke-width="1.5"/>
    <path d="M480.65,450.93l15.48.6m-.45,2,.24-2.86.67-.12,2.06,3.57" fill="none" stroke="#000" stroke-width="1.5"/>
    <path d="M594.9,642.39v-5c0-10.06-50.77-19.66-105.83-21.05-33.14-.84-55.54,4.71-55.54,12.9v7.05c0,10.32,37,11.07,51.76,11,48.56-.2,76.64-2.69,109.71-4.47,11.6-1.95,27.5-4.4,45.25-6,2.44-.22,2.6-2,0-2.55C618,629.12,592,625.92,564,623.92" fill="none" stroke="#000" stroke-width="2.5"/>
    <path d="M434.22,626c-1.36,8,45.62,8.65,76.87,8.6,27.9-.05,54.39-1,77.73-3.44" fill="none" stroke="#000" stroke-width="1.5"/>
    <path d="M441.45,626.58c13.21-4.08,30.27-4.71,49-4.59,37.75.24,67.29,4.1,96.52,8.46" fill="none" stroke="#000" stroke-linecap="round" stroke-width="1.6"/>
    <path d="M595.44,639.31a309,309,0,0,1,45.83-3.87" fill="none" stroke="#000" stroke-width="1.5"/>
    <path d="M371.17,462.79c3,2.22,6,4.3,8.39,9.85l60.17,142a37.4,37.4,0,0,1,2,6.72M389.94,463.48c-2,1.53-2,4.35-.34,8.17l58.55,135.94c1.71,4,3.57,3.36,3.61-.17l1.55-130.35c.06-4.7.18-9.77-3.1-12.3M463.28,617a10,10,0,0,1-1.63-5.16l1-127.94c0-3.18.12-4.11,1.63-.52L521.1,618m-68-133.17-38.45,43m-3.53-7.74,42.22-47.63m16-8.47a8,8,0,0,0,0,5.65L532.89,619" fill="none" stroke="#000" stroke-width="2.5"/>
    <path d="M473.19,463.89a10,10,0,0,0,.55,6.52l23.86,55.87a22.69,22.69,0,0,1-3.65.29m24.4,120.31-87.56,65.73m8.25,3,91.32-69.14M391.92,710.25V685.48l5.68-42c.33-2.45,13.41-2.56,13.84.56l6.62,48.11v17.88" fill="none" stroke="#000" stroke-width="2.5"/>
    <path d="M392.57,685.68a29,29,0,0,1,8.75-.91c6.36.2,10.85,1.77,16.17,3.71m-20.62-43a4,4,0,0,1-2.13-4c.14-2.72,4.14-4.93,9.86-4.9,5.32,0,9.72,2.17,9.72,4.86,0,1.55-.9,2.71-2.59,3.73" fill="none" stroke="#000" stroke-width="2.5"/>
    <path d="M201.18,542H408.62m10.94,0h32.71m9.73,0h26.9m11,0H687.69M201.42,588.4c58.87,20,131,27,195.28,27h43.77m202.82,0H531.4m-11.52,0H462.12m181.21-36.7H688m-44.88,50.9q22.44-.21,44.88-.69M644,528.83h43.68M532.65,505v88.77h-10.7m-10.94,0h-6.81m.24-14.83V615.4" fill="none" stroke="#000" stroke-width="1.5"/>
    <path d="M570.22,528c-16.62,0-33.36.38-37.33-22.37M567,481.8v41.74c-12.31-.06-25.33,2.61-30.55-19.53m38.8-23.86v8.6H639v-8.6m-63.74,12.9v32H639v-32Zm74.3,7.05v18.23c0,3.53,2.13,4.3,4.3,4.3h25.11c4.44,0,4.37-2.7,4.27-5.5-.37-10-12.53-22.77-27.14-23-5.83-.11-6.53,2.86-6.53,6ZM494.15,554.45c-9.07,4.88-15,12.57-15,23.88,0,19.29,17.39,28.07,37.85,30.29m11.5.58c48.55-.14,99.23-20.23,99.23-30.87S577,547.61,528.45,547.47a88.53,88.53,0,0,0-24.66,3.11" fill="none" stroke="#000" stroke-width="2.5"/>
    <path d="M599.2,592.53l14.33-6a1.19,1.19,0,0,1,1.54.66l3,7.2a1.19,1.19,0,0,1-.62,1.56l-14.33,6a1.19,1.19,0,0,1-1.54-.66l-3-7.2A1.19,1.19,0,0,1,599.2,592.53Z" fill="none" stroke="#000" stroke-linecap="round" stroke-linejoin="round" stroke-width="1.5"/>
    <path d="M396.22,513.52V638.19M396,547.74h15.3m11.35,0h29.75m-7.57-.34V511.28M396,552.56l-194.49-2.24M413,654.31c18.86,2,33,1.43,47.79,1.58v20.55c-8.79-.18-17.5-.35-28.82-.85V656.25M464.83,653V686.3m40.94,6.79V665.74m-4.5,27.36V668.17m0-8.88v-2.43h-32v26.51m22.25-172.18,41.1-2.55M493.37,485.9v21.4" fill="none" stroke="#000" stroke-width="1.5"/>
    <path d="M493.37,485.9v8.51" fill="none" stroke="#000" stroke-width="2.5"/>
    <path d="M381.87,478l24.44,158.2" fill="none" stroke="#000"/>
    <path d="M416.64,559.62l-160.79-1.51c-4.67,0-10.33,1.32-11.88,2.57,1.13,1.6,8.22,2.88,11.67,2.92l163.18,1.61m10.82.11,22.25.22m10.33.1,15,.15,0-5.59-15.08-.14m-9.85-.09-25-.24M462,594.59l15.71.14,0-5.59L462,589m-9.85-.08-12.16-.1m-11.31-.09-144.61-1.19c-4.67,0-10.33,1.32-11.88,2.57,1.13,1.6,8.22,2.88,11.67,2.92l147.25,1.29m11.19.1,10.34.09" fill="none" stroke="#000" stroke-linejoin="round" stroke-width="1.5"/>
    <path d="M312,625.73c-1.69,7.91,18.61,7.2,20,3.53C334.15,623.89,313,621.15,312,625.73Z" fill="none" stroke="#000" stroke-width="2.5"/>
    <path d="M233.85,586.49c3.5-3.41,25.68,0,23.67,3.21C254.8,594.13,229.55,590.68,233.85,586.49Z" fill="none" stroke="#000" stroke-width="1.5"/>
    <path d="M238.73,546l6.59.08a1.19,1.19,0,0,1,1.16,1.22l0,1.73a1.19,1.19,0,0,1-1.19,1.19l-6.59-.08a1.19,1.19,0,0,1-1.16-1.22l0-1.73A1.19,1.19,0,0,1,238.73,546Z" fill="none" stroke="#000" stroke-linecap="round" stroke-linejoin="round" stroke-width="2.5"/>
    <path d="M266.82,546.47l6.59.08a1.19,1.19,0,0,1,1.16,1.22l0,1.73a1.19,1.19,0,0,1-1.19,1.19l-6.59-.08a1.19,1.19,0,0,1-1.16-1.22l0-1.73A1.19,1.19,0,0,1,266.82,546.47Z" fill="none" stroke="#000" stroke-linecap="round" stroke-linejoin="round" stroke-width="2.5"/>
    <path d="M279,546.61l6.59.08a1.19,1.19,0,0,1,1.16,1.22l0,1.73a1.19,1.19,0,0,1-1.19,1.19l-6.59-.08a1.19,1.19,0,0,1-1.16-1.22l0-1.73A1.19,1.19,0,0,1,279,546.61Z" fill="none" stroke="#000" stroke-linecap="round" stroke-linejoin="round" stroke-width="2.5"/>
    <path d="M312.63,547.05l6.59.08a1.19,1.19,0,0,1,1.16,1.22l0,1.73a1.19,1.19,0,0,1-1.19,1.19l-6.59-.08a1.19,1.19,0,0,1-1.16-1.22l0-1.73A1.19,1.19,0,0,1,312.63,547.05Z" fill="none" stroke="#000" stroke-linecap="round" stroke-linejoin="round" stroke-width="2.5"/>
    <path d="M324.85,547.19l6.59.08a1.19,1.19,0,0,1,1.16,1.22l0,1.73a1.19,1.19,0,0,1-1.19,1.19l-6.59-.08a1.19,1.19,0,0,1-1.16-1.22l0-1.73A1.19,1.19,0,0,1,324.85,547.19Z" fill="none" stroke="#000" stroke-linecap="round" stroke-linejoin="round" stroke-width="2.5"/>
    <path d="M355.24,547.51l6.59.08a1.19,1.19,0,0,1,1.16,1.22l0,1.73a1.19,1.19,0,0,1-1.19,1.19l-6.59-.08a1.19,1.19,0,0,1-1.16-1.22l0-1.73A1.19,1.19,0,0,1,355.24,547.51Z" fill="none" stroke="#000" stroke-linecap="round" stroke-linejoin="round" stroke-width="2.5"/>
    <path d="M481.22,603.8h7a1.19,1.19,0,0,1,1.17,1.2v4.3a1.19,1.19,0,0,1-1.17,1.2h-7a1.19,1.19,0,0,1-1.17-1.2V605A1.19,1.19,0,0,1,481.22,603.8Z" fill="none" stroke="#000" stroke-linecap="round" stroke-linejoin="round" stroke-width="1.5"/>
    <path d="M650,639.47l1.7,12.77c.21,1.54,16.69-1.23,16.42-2.92l-1.86-11.27" fill="none" stroke="#000" stroke-linecap="round" stroke-linejoin="round" stroke-width="2.5"/>
    <rect x="374.41" y="621.19" width="16.05" height="13.13" fill="none" stroke="#000" stroke-linecap="round" stroke-width="1.5"/>
    <path d="M377.72,623.19v9.14m2.36-9.14v9.14m4.72-9.14v9.14m-2.36-9.14v9.14m4.72-9.14v9.14" fill="none" stroke="#000" stroke-width="1.5"/>
    <rect x="374.46" y="569.05" width="15.96" height="14.93" fill="none" stroke="#000" stroke-linecap="round" stroke-width="1.5"/>
    <path d="M377.75,571.32v10.39m2.35-10.39v10.39m4.69-10.39v10.39m-2.35-10.39v10.39m4.69-10.39v10.39" fill="none" stroke="#000" stroke-width="1.5"/>
    <rect x="374.41" y="523.86" width="16.05" height="13.13" fill="none" stroke="#000" stroke-linecap="round" stroke-width="1.5"/>
    <path d="M377.72,525.86V535m2.36-9.14V535m4.72-9.14V535m-2.36-9.14V535m4.72-9.14V535m-151,25.35v18.57c-5.8-.12-11.36-.2-17.69-.43V560.34Zm-13.13,3.12V575.8m4.29-12.34V575.8m4.29-12.34V575.8" fill="none" stroke="#000" stroke-width="1.5"/>
    <path d="M211.79,531.32l4.64,8.25c1.31-.6,1.16-4.13.29-5.66l-1.72-3a4.63,4.63,0,0,0-3.9-.83Zm7.57-2.32,4.64,8.25c1.31-.6,1.15-4.13.29-5.66l-1.72-3a4.63,4.63,0,0,0-3.9-.83Zm7.39-2.41,4.64,8.25c1.31-.6,1.16-4.13.29-5.66l-1.72-3a4.62,4.62,0,0,0-3.9-.83Z" fill="none" stroke="#000" stroke-width="2.5"/>
    <path d="M207.23,539.57a.26.26,0,0,1-.51,0,.26.26,0,0,1,0,0,.26.26,0,0,1,.51,0Z" fill="none" stroke="#000" stroke-linecap="round" stroke-width="1.5"/>
    <path d="M207.23,553.72a.26.26,0,1,1-.51,0,.26.26,0,0,1,0,0,.26.26,0,0,1,.51,0Z" fill="none" stroke="#000" stroke-linecap="round" stroke-width="1.5"/>
    <path d="M238.46,554.18a.26.26,0,0,1-.51,0,.26.26,0,0,1,0,0,.26.26,0,0,1,.51,0Z" fill="none" stroke="#000" stroke-linecap="round" stroke-width="1.5"/>
    <path d="M238.46,539.57a.26.26,0,0,1-.51,0,.26.26,0,0,1,0,0,.26.26,0,0,1,.51,0Z" fill="none" stroke="#000" stroke-linecap="round" stroke-width="1.5"/>
    <path d="M269.69,539.57a.26.26,0,1,1-.51,0,.26.26,0,0,1,0,0,.26.26,0,0,1,.51,0Z" fill="none" stroke="#000" stroke-linecap="round" stroke-width="1.5"/>
    <path d="M300.92,539.57a.26.26,0,0,1-.51,0,.26.26,0,0,1,0,0,.26.26,0,0,1,.51,0Z" fill="none" stroke="#000" stroke-linecap="round" stroke-width="1.5"/>
    <path d="M332.15,539.57a.26.26,0,1,1-.51,0h0a.26.26,0,0,1,.51,0Z" fill="none" stroke="#000" stroke-linecap="round" stroke-width="1.5"/>
    <path d="M363.37,539.57a.26.26,0,1,1-.51,0h0a.26.26,0,0,1,.51,0Z" fill="none" stroke="#000" stroke-linecap="round" stroke-width="1.5"/>
    <path d="M363.37,556a.26.26,0,1,1-.26-.26.26.26,0,0,1,.26.26Z" fill="none" stroke="#000" stroke-linecap="round" stroke-width="1.5"/>
    <path d="M332.15,555.57a.26.26,0,1,1-.51,0,.26.26,0,0,1,0,0,.26.26,0,0,1,.51,0Z" fill="none" stroke="#000" stroke-linecap="round" stroke-width="1.5"/>
    <path d="M300.92,554.64a.26.26,0,0,1-.51,0,.26.26,0,0,1,0,0,.26.26,0,0,1,.51,0Z" fill="none" stroke="#000" stroke-linecap="round" stroke-width="1.5"/>
    <path d="M269.69,555.11a.26.26,0,1,1-.51,0,.26.26,0,0,1,0,0,.26.26,0,0,1,.51,0Z" fill="none" stroke="#000" stroke-linecap="round" stroke-width="1.5"/>
    <path d="M207.23,587.12a.26.26,0,1,1-.51,0,.26.26,0,0,1,0,0,.26.26,0,0,1,.51,0Z" fill="none" stroke="#000" stroke-linecap="round" stroke-width="1.5"/>
    <path d="M207.23,592.59a.26.26,0,0,1-.51,0,.26.26,0,0,1,0,0,.26.26,0,0,1,.51,0Z" fill="none" stroke="#000" stroke-linecap="round" stroke-width="1.5"/>
    <path d="M238.46,601.81a.26.26,0,0,1-.51,0,.26.26,0,0,1,0,0,.26.26,0,0,1,.51,0Z" fill="none" stroke="#000" stroke-linecap="round" stroke-width="1.5"/>
    <path d="M238.46,595.86a.26.26,0,0,1-.51,0,.26.26,0,0,1,0,0,.26.26,0,0,1,.51,0Z" fill="none" stroke="#000" stroke-linecap="round" stroke-width="1.5"/>
    <path d="M269.69,601.54a.26.26,0,1,1-.51,0,.26.26,0,0,1,0,0,.26.26,0,1,1,.51,0Z" fill="none" stroke="#000" stroke-linecap="round" stroke-width="1.5"/>
    <path d="M269.69,608.67a.26.26,0,1,1-.51,0,.26.26,0,0,1,0,0,.26.26,0,0,1,.51,0Z" fill="none" stroke="#000" stroke-linecap="round" stroke-width="1.5"/>
    <path d="M300.92,606.4a.26.26,0,0,1-.51,0,.26.26,0,0,1,0,0,.26.26,0,0,1,.51,0Z" fill="none" stroke="#000" stroke-linecap="round" stroke-width="1.5"/>
    <path d="M300.92,613.2a.26.26,0,0,1-.51,0,.26.26,0,0,1,0,0,.26.26,0,0,1,.51,0Z" fill="none" stroke="#000" stroke-linecap="round" stroke-width="1.5"/>
    <path d="M332.15,609.44a.26.26,0,1,1-.51,0,.26.26,0,0,1,0,0,.26.26,0,0,1,.51,0Z" fill="none" stroke="#000" stroke-linecap="round" stroke-width="1.5"/>
    <path d="M332.15,616.31a.26.26,0,1,1-.51,0,.26.26,0,0,1,0,0,.26.26,0,0,1,.51,0Z" fill="none" stroke="#000" stroke-linecap="round" stroke-width="1.5"/>
    <path d="M363.37,611.58a.26.26,0,1,1-.26-.26A.26.26,0,0,1,363.37,611.58Z" fill="none" stroke="#000" stroke-linecap="round" stroke-width="1.5"/>
    <path d="M363.37,617.42a.26.26,0,1,1-.26-.26A.26.26,0,0,1,363.37,617.42Z" fill="none" stroke="#000" stroke-linecap="round" stroke-width="1.5"/>
    <path d="M392.61,618.63a.26.26,0,1,1-.51,0,.26.26,0,0,1,0,0,.26.26,0,1,1,.51,0Z" fill="none" stroke="#000" stroke-linecap="round" stroke-width="1.5"/>
    <path d="M392.61,612.26a.26.26,0,1,1-.51,0,.26.26,0,0,1,0,0,.26.26,0,0,1,.51,0Z" fill="none" stroke="#000" stroke-linecap="round" stroke-width="1.5"/>
    <path d="M357.91,626.16a2.37,2.37,0,0,1-4.74.1s0-.06,0-.1a2.37,2.37,0,0,1,4.74,0Z" fill="none" stroke="#000" stroke-linecap="round" stroke-width="1.5"/>
    <path d="M431.3,618.63a.26.26,0,1,1-.26-.26A.26.26,0,0,1,431.3,618.63Z" fill="none" stroke="#000" stroke-linecap="round" stroke-width="1.5"/>
    <path d="M431.3,611.92a.26.26,0,1,1-.51,0h0a.26.26,0,0,1,.51,0Z" fill="none" stroke="#000" stroke-linecap="round" stroke-width="1.5"/>
    <path d="M537.57,539.57a.26.26,0,1,1-.51,0h0a.26.26,0,0,1,.51,0Z" fill="none" stroke="#000" stroke-linecap="round" stroke-width="1.5"/>
    <path d="M571.7,539.57a.26.26,0,0,1-.51,0h0a.26.26,0,0,1,.51,0Z" fill="none" stroke="#000" stroke-linecap="round" stroke-width="1.5"/>
    <path d="M605.83,539.57a.26.26,0,0,1-.51,0,.24.24,0,0,1,0,0,.26.26,0,0,1,.51,0Z" fill="none" stroke="#000" stroke-linecap="round" stroke-width="1.5"/>
    <path d="M640,539.57a.26.26,0,0,1-.51,0h0a.26.26,0,0,1,.51,0Z" fill="none" stroke="#000" stroke-linecap="round" stroke-width="1.5"/>
    <path d="M537.57,544.68a.26.26,0,1,1-.51,0h0a.26.26,0,0,1,.51,0Z" fill="none" stroke="#000" stroke-linecap="round" stroke-width="1.5"/>
    <path d="M571.7,544.68a.26.26,0,0,1-.51,0h0a.26.26,0,0,1,.51,0Z" fill="none" stroke="#000" stroke-linecap="round" stroke-width="1.5"/>
    <path d="M605.83,544.68a.26.26,0,0,1-.51,0,.24.24,0,0,1,0,0,.26.26,0,0,1,.51,0Z" fill="none" stroke="#000" stroke-linecap="round" stroke-width="1.5"/>
    <path d="M640,544.68a.26.26,0,0,1-.51,0h0a.26.26,0,0,1,.51,0Z" fill="none" stroke="#000" stroke-linecap="round" stroke-width="1.5"/>
    <path d="M650.09,539.57a.26.26,0,1,1-.51,0,.24.24,0,0,1,0,0,.26.26,0,0,1,.51,0Z" fill="none" stroke="#000" stroke-linecap="round" stroke-width="1.5"/>
    <path d="M684.22,539.57a.26.26,0,0,1-.51,0h0a.26.26,0,0,1,.51,0Z" fill="none" stroke="#000" stroke-linecap="round" stroke-width="1.5"/>
    <path d="M650.09,544.68a.26.26,0,1,1-.51,0,.24.24,0,0,1,0,0,.26.26,0,0,1,.51,0Z" fill="none" stroke="#000" stroke-linecap="round" stroke-width="1.5"/>
    <path d="M684.22,544.68a.26.26,0,0,1-.51,0h0a.26.26,0,0,1,.51,0Z" fill="none" stroke="#000" stroke-linecap="round" stroke-width="1.5"/>
    <path d="M650.09,575.86a.26.26,0,1,1-.51,0,.24.24,0,0,1,0,0,.26.26,0,0,1,.51,0Z" fill="none" stroke="#000" stroke-linecap="round" stroke-width="1.5"/>
    <path d="M684.22,575.86a.26.26,0,0,1-.51,0h0a.26.26,0,0,1,.51,0Z" fill="none" stroke="#000" stroke-linecap="round" stroke-width="1.5"/>
    <path d="M650.09,581a.26.26,0,1,1-.51,0,.24.24,0,0,1,0,0,.26.26,0,0,1,.51,0Z" fill="none" stroke="#000" stroke-linecap="round" stroke-width="1.5"/>
    <path d="M684.22,581a.26.26,0,1,1-.51,0h0a.26.26,0,0,1,.51,0Z" fill="none" stroke="#000" stroke-linecap="round" stroke-width="1.5"/>
    <path d="M650.09,609.91a.26.26,0,1,1-.51,0,.24.24,0,0,1,0,0,.26.26,0,0,1,.51,0Z" fill="none" stroke="#000" stroke-linecap="round" stroke-width="1.5"/>
    <path d="M684.22,609.91a.26.26,0,0,1-.51,0h0a.26.26,0,0,1,.51,0Z" fill="none" stroke="#000" stroke-linecap="round" stroke-width="1.5"/>
    <path d="M650.09,626.28a.26.26,0,1,1-.51,0,.24.24,0,0,1,0,0,.26.26,0,0,1,.51,0Z" fill="none" stroke="#000" stroke-linecap="round" stroke-width="1.5"/>
    <path d="M684.22,625.67a.26.26,0,1,1-.51,0h0a.26.26,0,0,1,.51,0Z" fill="none" stroke="#000" stroke-linecap="round" stroke-width="1.5"/>
    <path d="M537.57,612.83a.26.26,0,1,1-.51,0h0a.26.26,0,0,1,.51,0Z" fill="none" stroke="#000" stroke-linecap="round" stroke-width="1.5"/>
    <path d="M571.7,612.83a.26.26,0,0,1-.51,0h0a.26.26,0,0,1,.51,0Z" fill="none" stroke="#000" stroke-linecap="round" stroke-width="1.5"/>
    <path d="M605.83,612.83a.26.26,0,0,1-.51,0,.24.24,0,0,1,0,0,.26.26,0,0,1,.51,0Z" fill="none" stroke="#000" stroke-linecap="round" stroke-width="1.5"/>
    <path d="M640,612.83a.26.26,0,0,1-.51,0h0a.26.26,0,0,1,.51,0Z" fill="none" stroke="#000" stroke-linecap="round" stroke-width="1.5"/>
    <path d="M537.57,617.94a.26.26,0,1,1-.51,0h0a.26.26,0,0,1,.51,0Z" fill="none" stroke="#000" stroke-linecap="round" stroke-width="1.5"/>
    <path d="M571.7,617.94a.26.26,0,0,1-.51,0h0a.26.26,0,0,1,.51,0Z" fill="none" stroke="#000" stroke-linecap="round" stroke-width="1.5"/>
    <path d="M605.83,617.94a.26.26,0,0,1-.51,0,.24.24,0,0,1,0,0,.26.26,0,0,1,.51,0Z" fill="none" stroke="#000" stroke-linecap="round" stroke-width="1.5"/>
    <path d="M640,617.94a.26.26,0,0,1-.51,0h0a.26.26,0,0,1,.51,0Z" fill="none" stroke="#000" stroke-linecap="round" stroke-width="1.5"/>
    <path d="M351.64,645.77l-.12,1.58m4.1-1.12-.12,1.58m4.1-1.12-.12,1.58m4.1-1.12-.12,1.58m4.1-1.12-.12,1.58m4.1-1.12-.12,1.58m8.08-.66-.12,1.58m-3.86-2-.12,1.58" fill="none" stroke="#000" stroke-linecap="round" stroke-width="2.5"/>
    <path d="M698.57,640.32v7.36" fill="none" stroke="#000"/>
    <path d="M697.29,643.43v5.29M492,694v5.55h3.61" fill="none" stroke="#000" stroke-width="2.5"/>
    <path d="M494.67,694.08v5" fill="none" stroke="#000" stroke-width="1.5"/>
  </g>
</svg>
