<svg id="Layer_1" data-name="Layer 1" xmlns="http://www.w3.org/2000/svg" viewBox="0 0 979.5 756.97"><defs><style>.cls-1{font-size:16px;}.cls-1,.cls-12,.cls-17,.cls-27,.cls-6,.cls-8{fill:#231f20;}.cls-1,.cls-12,.cls-17,.cls-27,.cls-6{font-family:CalistoMT, Calisto MT;}.cls-2{letter-spacing:0.03em;}.cls-3{letter-spacing:0.01em;}.cls-10,.cls-11,.cls-14,.cls-22,.cls-24,.cls-25,.cls-4,.cls-5,.cls-9{fill:#fff;}.cls-10,.cls-11,.cls-14,.cls-16,.cls-17,.cls-19,.cls-20,.cls-21,.cls-22,.cls-23,.cls-24,.cls-26,.cls-4,.cls-5,.cls-7,.cls-9{stroke:#231f20;stroke-miterlimit:10;}.cls-21,.cls-4{stroke-width:2px;}.cls-5{stroke-width:2.01px;}.cls-6{font-size:12px;}.cls-16,.cls-19,.cls-20,.cls-21,.cls-23,.cls-26,.cls-7{fill:none;}.cls-7{stroke-width:0.75px;}.cls-9{stroke-width:2.6px;}.cls-10{stroke-width:2.3px;}.cls-11{stroke-width:1.15px;}.cls-12,.cls-17{font-size:9.19px;}.cls-13{letter-spacing:0.11em;}.cls-14{stroke-width:1.11px;}.cls-15{letter-spacing:0.03em;}.cls-16,.cls-20{stroke-width:0.57px;}.cls-16{stroke-dasharray:3.48 1.16;}.cls-17{stroke-width:0.29px;}.cls-18{letter-spacing:-0.04em;}.cls-19{stroke-width:0.86px;}.cls-23,.cls-24{stroke-width:0.99px;}.cls-26{stroke-width:0.46px;}.cls-27{font-size:12.62px;}</style></defs><title>Blueprints for Punching Bag All in One</title><text class="cls-1" transform="translate(437.34 400.14)">Ma<tspan class="cls-2" x="23.35" y="0">r</tspan><tspan x="29.46" y="0">y Hannah Duhon</tspan><tspan x="11.72" y="39">The Punching Bag </tspan><tspan x="9.15" y="65">That Punches Back</tspan><tspan x="7.83" y="103">S</tspan><tspan class="cls-3" x="16.66" y="103">e</tspan><tspan x="24.21" y="103">ptember 16, 2017</tspan></text><rect class="cls-4" x="698.51" y="37.02" width="208.44" height="312.95" rx="15.81" ry="15.81"/><circle class="cls-4" cx="959.45" cy="202.42" r="19.05"/><line class="cls-4" x1="941.38" y1="195.84" x2="906.95" y2="195.84"/><line class="cls-4" x1="941.05" y1="208.99" x2="906.95" y2="208.99"/><circle class="cls-4" cx="645.75" cy="184.31" r="19.05"/><line class="cls-4" x1="663.82" y1="177.74" x2="698.25" y2="177.74"/><line class="cls-4" x1="664.15" y1="190.88" x2="698.25" y2="190.88"/><rect class="cls-5" x="794.1" y="349.97" width="17" height="315.14"/><rect class="cls-5" x="726.1" y="664.33" width="152.99" height="17.95"/><text class="cls-6" transform="matrix(0, -1, 1, 0, 589.66, 196.57)">3<tspan x="6.13" y="0"> </tspan><tspan x="9.17" y="0">f</tspan><tspan x="12.81" y="0">t</tspan><tspan x="16.43" y="0">.</tspan><tspan x="19.79" y="0"> </tspan></text><text class="cls-6" transform="matrix(0, -1, 1, 0, 613.98, 196.57)">6<tspan x="6.13" y="0"> </tspan><tspan x="9.18" y="0">i</tspan><tspan x="12.54" y="0">n</tspan><tspan x="19.18" y="0">.</tspan><tspan x="22.56" y="0"> </tspan></text><line class="cls-7" x1="619.19" y1="170.66" x2="619.19" y2="198.02"/><polygon class="cls-8" points="619.2 165.36 616.15 172.83 619.2 171.06 622.24 172.83 619.2 165.36"/><polygon class="cls-8" points="619.2 203.31 616.15 195.85 619.2 197.62 622.24 195.85 619.2 203.31"/><line class="cls-7" x1="611.44" y1="203.31" x2="626.95" y2="203.31"/><line class="cls-7" x1="611.44" y1="165.17" x2="626.95" y2="165.17"/><line class="cls-7" x1="586.32" y1="36.21" x2="608.07" y2="36.21"/><line class="cls-7" x1="597.19" y1="42.33" x2="597.19" y2="344.31"/><polygon class="cls-8" points="597.19 37.03 594.14 44.49 597.19 42.72 600.24 44.49 597.19 37.03"/><polygon class="cls-8" points="597.19 349.61 594.14 342.15 597.19 343.92 600.24 342.15 597.19 349.61"/><line class="cls-7" x1="586.32" y1="349.97" x2="608.07" y2="349.97"/><line class="cls-7" x1="906.95" y1="11.81" x2="906.95" y2="26.28"/><line class="cls-7" x1="901.11" y1="19.04" x2="703.78" y2="19.04"/><polygon class="cls-8" points="906.41 19.04 898.95 15.99 900.72 19.04 898.95 22.09 906.41 19.04"/><polygon class="cls-8" points="698.49 19.04 705.95 15.99 704.18 19.04 705.95 22.09 698.49 19.04"/><line class="cls-7" x1="698.25" y1="11.81" x2="698.25" y2="26.28"/><line class="cls-7" x1="920.02" y1="352.54" x2="928.19" y2="352.54"/><line class="cls-7" x1="924.05" y1="358.64" x2="924.05" y2="657.34"/><polygon class="cls-8" points="924.05 353.34 921 360.81 924.05 359.04 927.1 360.81 924.05 353.34"/><polygon class="cls-8" points="924.05 662.64 921 655.18 924.05 656.95 927.1 655.18 924.05 662.64"/><line class="cls-7" x1="920.85" y1="663.06" x2="928.17" y2="663.16"/><line class="cls-7" x1="924.05" y1="668.56" x2="924.05" y2="678.15"/><polygon class="cls-8" points="924.05 663.27 921 670.73 924.05 668.96 927.1 670.73 924.05 663.27"/><polygon class="cls-8" points="924.05 683.44 921 675.98 924.05 677.75 927.1 675.98 924.05 683.44"/><line class="cls-7" x1="919.93" y1="683.44" x2="928.17" y2="683.44"/><line class="cls-7" x1="919.93" y1="663.16" x2="928.17" y2="663.16"/><circle class="cls-4" cx="509.43" cy="659.18" r="76.5"/><rect class="cls-4" x="413.9" y="621.07" width="206.79" height="50.13" rx="23.74" ry="23.74" transform="translate(1021.77 1261.54) rotate(-180)"/><rect class="cls-4" x="426.07" y="670.32" width="182.45" height="38.23" transform="translate(1021.77 1348.14) rotate(-180)"/><path class="cls-4" d="M657.21,557.68c0-7.68,8.46-13.9,18.89-13.9S695,550,695,557.68s-8.46,13.9-18.89,13.9C664.12,571.58,657.21,565.36,657.21,557.68Z" transform="translate(-12.81 -30.73)"/><path class="cls-4" d="M519.1,712.56c189,87.75,157.05-152.23,161.61-141.54l-9.73.56c-4.36,8.23,16.27,198.19-132.94,137H527.45l-8.35,4" transform="translate(-12.81 -30.73)"/><path class="cls-4" d="M381,557.68c0-7.68-8.46-13.9-18.89-13.9s-18.89,6.22-18.89,13.9,8.46,13.9,18.89,13.9C374.08,571.58,381,565.36,381,557.68Z" transform="translate(-12.81 -30.73)"/><path class="cls-4" d="M367.23,571.58c4.36,8.23-16.27,198.19,132.94,137h27.29C329.93,806.72,363.14,559.06,357.5,571Z" transform="translate(-12.81 -30.73)"/><line class="cls-7" x1="682.19" y1="729.14" x2="682.19" y2="753.53"/><line class="cls-7" x1="675.98" y1="741.33" x2="336.09" y2="741.33"/><polygon class="cls-8" points="681.27 741.33 673.81 738.28 675.58 741.33 673.81 744.38 681.27 741.33"/><polygon class="cls-8" points="330.8 741.33 338.26 738.28 336.49 741.33 338.26 744.38 330.8 741.33"/><line class="cls-7" x1="330.4" y1="729.14" x2="330.4" y2="753.53"/><rect class="cls-9" x="334.62" y="88.71" width="147.05" height="225.48" rx="12.69" ry="12.69"/><rect class="cls-10" x="353.03" y="110.26" width="110.22" height="67.04" rx="4.09" ry="4.09"/><rect class="cls-11" x="357.29" y="192.47" width="36.83" height="16.1" rx="1.21" ry="1.21"/><text class="cls-12" transform="translate(360.32 203.44)">On/Of<tspan class="cls-13" x="27.27" y="0">f</tspan></text><rect class="cls-14" x="399.07" y="192.47" width="59.93" height="16.1" rx="1.21" ry="1.21"/><text class="cls-12" transform="translate(403.7 203.44)">Su<tspan class="cls-15" x="10.14" y="0">r</tspan><tspan x="13.66" y="0">prise Me!</tspan></text><rect class="cls-11" x="358.71" y="221.8" width="101.72" height="22.44" rx="1.21" ry="1.21"/><text class="cls-12" transform="translate(382.96 235.58)">Attack Speed</text><line class="cls-11" x1="366.75" y1="233" x2="373.07" y2="233"/><circle class="cls-16" cx="369.91" cy="233.02" r="6.65"/><text class="cls-17" transform="translate(446.07 235.98)">+</text><circle class="cls-16" cx="449.23" cy="233.02" r="6.65"/><rect class="cls-11" x="358.29" y="252.1" width="101.72" height="20.58" rx="1.21" ry="1.21"/><text class="cls-12" transform="translate(383.42 265.41)">Attack <tspan class="cls-18" x="28.28" y="0">F</tspan><tspan x="33.63" y="0">orce</tspan></text><line class="cls-11" x1="366.33" y1="262.98" x2="372.65" y2="262.98"/><circle class="cls-16" cx="369.49" cy="263.06" r="6.65"/><text class="cls-17" transform="translate(445.65 265.94)">+</text><circle class="cls-16" cx="448.81" cy="262.98" r="6.65"/><rect class="cls-11" x="357.67" y="281.83" width="101.72" height="19.87" rx="1.21" ry="1.21"/><text class="cls-12" transform="translate(384.67 294.53)">Attack Rate</text><line class="cls-11" x1="365.71" y1="291.73" x2="372.03" y2="291.73"/><circle class="cls-16" cx="368.87" cy="291.8" r="6.65"/><text class="cls-17" transform="translate(445.03 294.68)">+</text><circle class="cls-16" cx="448.19" cy="291.73" r="6.65"/><line class="cls-19" x1="307.34" y1="110.26" x2="318.43" y2="110.26"/><line class="cls-19" x1="312.89" y1="116.52" x2="312.89" y2="171.14"/><polygon class="cls-8" points="312.89 110.44 309.38 119.01 312.89 116.97 316.39 119.01 312.89 110.44"/><polygon class="cls-8" points="312.89 177.22 309.38 168.65 312.89 170.68 316.39 168.65 312.89 177.22"/><line class="cls-19" x1="307.34" y1="177.3" x2="318.43" y2="177.3"/><line class="cls-20" x1="309.26" y1="221.8" x2="358.71" y2="221.8"/><line class="cls-20" x1="312.89" y1="225.86" x2="312.89" y2="240.18"/><polygon class="cls-8" points="312.89 221.8 310.55 227.52 312.89 226.16 315.22 227.52 312.89 221.8"/><polygon class="cls-8" points="312.89 244.23 310.55 238.52 312.89 239.87 315.22 238.52 312.89 244.23"/><line class="cls-20" x1="309.26" y1="244.28" x2="360.1" y2="244.28"/><line class="cls-19" x1="352.97" y1="78.02" x2="352.97" y2="66.93"/><line class="cls-19" x1="359.34" y1="72.47" x2="457.05" y2="72.47"/><polygon class="cls-8" points="353.25 72.47 361.83 75.98 359.79 72.47 361.83 68.97 353.25 72.47"/><polygon class="cls-8" points="463.13 72.47 454.56 75.98 456.59 72.47 454.56 68.97 463.13 72.47"/><line class="cls-19" x1="463.26" y1="78.02" x2="463.26" y2="66.93"/><text class="cls-6" transform="matrix(0, -1, 1, 0, 306.01, 160.01)">1<tspan x="6.11" y="0">.</tspan><tspan x="9.48" y="0">5</tspan><tspan x="15.6" y="0"> </tspan><tspan x="18.67" y="0">i</tspan><tspan x="22.04" y="0">n</tspan><tspan x="28.66" y="0">.</tspan></text><text class="cls-6" transform="matrix(1, -0.01, 0.01, 1, 393.79, 68.66)">2<tspan x="6.11" y="0">.</tspan><tspan x="9.48" y="0">5</tspan><tspan x="15.6" y="0"> </tspan><tspan x="18.67" y="0">i</tspan><tspan x="22.04" y="0">n</tspan><tspan x="28.66" y="0">.</tspan></text><text class="cls-6" transform="matrix(0, -1, 1, 0, 305.53, 250.15)">.<tspan x="3.37" y="0">2</tspan><tspan x="9.5" y="0">5</tspan><tspan x="15.61" y="0"> </tspan><tspan x="18.68" y="0">i</tspan><tspan x="22.06" y="0">n</tspan><tspan x="28.68" y="0">.</tspan></text><text class="cls-6" transform="matrix(0, 0.99, -1, 0, 511.87, 188.74)">.<tspan x="3.37" y="0">2</tspan><tspan x="9.49" y="0"> </tspan><tspan x="12.55" y="0">i</tspan><tspan x="15.91" y="0">n</tspan><tspan x="22.56" y="0">.</tspan></text><line class="cls-20" x1="508.42" y1="192.47" x2="459" y2="192.47"/><line class="cls-20" x1="504.79" y1="196.56" x2="504.79" y2="204.49"/><polygon class="cls-8" points="504.79 192.5 502.46 198.22 504.79 196.86 507.13 198.22 504.79 192.5"/><polygon class="cls-8" points="504.79 208.54 502.46 202.83 504.79 204.18 507.13 202.83 504.79 208.54"/><line class="cls-20" x1="508.42" y1="208.57" x2="459" y2="208.57"/><rect class="cls-21" x="169.56" y="72.94" width="12.04" height="275.7"/><rect class="cls-21" x="157.49" y="348.64" width="28.98" height="15.06"/><rect class="cls-4" x="164.69" y="219.81" width="21.79" height="14.56" rx="7.28" ry="7.28"/><rect class="cls-4" x="164.69" y="176.12" width="21.79" height="14.56" rx="7.28" ry="7.28"/><rect class="cls-4" x="157.53" y="57.61" width="36.1" height="54.02" rx="4.25" ry="4.25"/><rect class="cls-22" x="159.26" y="58.9" width="32.7" height="50.93" rx="6.38" ry="6.38"/><rect class="cls-22" x="164.3" y="89.79" width="22.62" height="2.72" rx="1.21" ry="1.21"/><rect class="cls-22" x="178.06" y="82.34" width="8.86" height="3.64" rx="1.21" ry="1.21"/><rect class="cls-22" x="164.2" y="82.34" width="8.86" height="3.64" rx="1.21" ry="1.21"/><rect class="cls-22" x="164.3" y="96.63" width="22.62" height="2.72" rx="1.21" ry="1.21"/><rect class="cls-22" x="164.3" y="103.48" width="22.62" height="2.72" rx="1.21" ry="1.21"/><rect class="cls-22" x="163.36" y="63.77" width="24.51" height="15.14" rx="4.09" ry="4.09"/><path class="cls-23" d="M140.77,237.64h-73a5.84,5.84,0,0,0-5.3,3.28,8,8,0,0,0,.85,8.44c.94,1.33,3,1.68,4.61,1.68h72.83" transform="translate(-12.81 -30.73)"/><rect class="cls-24" x="30.79" y="194.8" width="24.08" height="42.56" rx="12.04" ry="12.04"/><path class="cls-25" d="M167.26,250.54s20.75-.37,27.25-.35c1.87,0,5.09-1.31,5.39-6.89h0c0-4.9-3.59-5.61-5.16-5.65-5.82-.16-28.15-.57-28.15-.57" transform="translate(-12.81 -30.73)"/><path class="cls-8" d="M167.26,250.54c3.07-.32,6.14-.52,9.21-.78l9.22-.12,9.16-.13a4.35,4.35,0,0,0,3.25-2.09,8.7,8.7,0,0,0,1.14-4.07,5.2,5.2,0,0,0-1.24-3.75,5,5,0,0,0-3.77-1.3L185,238.1c-3.07-.08-6.14-.09-9.21-.22s-6.13-.5-9.2-.82c3.08-.19,6.15-.29,9.23-.44s6.15.11,9.22.16l9.22.19a6.29,6.29,0,0,1,4.67,1.7,5.47,5.47,0,0,1,1.3,2.24,8.14,8.14,0,0,1,.32,2.51,10,10,0,0,1-1.35,4.7,5.68,5.68,0,0,1-4.24,2.7l-9.27.14-9.21.12C173.41,250.9,170.33,250.77,167.26,250.54Z" transform="translate(-12.81 -30.73)"/><rect class="cls-4" x="127.96" y="54.31" width="29.53" height="312.15" rx="10.21" ry="10.21"/><rect class="cls-4" x="48.57" y="190.71" width="138.21" height="13.44" rx="6.72" ry="6.72"/><rect class="cls-4" x="168.69" y="204.15" width="13.76" height="2.2" rx="1.1" ry="1.1"/><rect class="cls-4" x="30.77" y="176.13" width="24.08" height="42.56" rx="12.04" ry="12.04"/><rect class="cls-4" x="169.4" y="364.01" width="12.33" height="226.88"/><rect class="cls-4" x="120.07" y="590.33" width="111" height="12.92"/><line class="cls-7" y1="58.32" x2="37.5" y2="58.32"/><line class="cls-7" x1="18.75" y1="65.03" x2="18.75" y2="598.04"/><polygon class="cls-8" points="18.75 59.74 15.7 67.2 18.75 65.43 21.8 67.2 18.75 59.74"/><polygon class="cls-8" points="18.75 603.34 15.7 595.88 18.75 597.65 21.8 595.88 18.75 603.34"/><line class="cls-7" y1="603.96" x2="37.5" y2="603.96"/><text class="cls-6" transform="matrix(0, -1, 1, 0, 14.78, 347.61)">6<tspan x="6.13" y="0"> </tspan><tspan x="9.17" y="0">f</tspan><tspan x="12.81" y="0">t</tspan><tspan x="16.43" y="0">.</tspan><tspan x="19.79" y="0"> </tspan></text><line class="cls-7" x1="231.07" y1="618.82" x2="231.07" y2="633.29"/><line class="cls-7" x1="225.48" y1="626.06" x2="125.49" y2="626.06"/><polygon class="cls-8" points="230.78 626.06 223.32 623.01 225.09 626.06 223.32 629.11 230.78 626.06"/><polygon class="cls-8" points="120.19 626.06 127.66 623.01 125.88 626.06 127.66 629.11 120.19 626.06"/><line class="cls-7" x1="120.07" y1="618.82" x2="120.07" y2="633.29"/><line class="cls-7" x1="208.47" y1="54.31" x2="222.1" y2="54.31"/><line class="cls-7" x1="215.29" y1="59.75" x2="215.29" y2="106.27"/><polygon class="cls-8" points="215.28 54.46 212.24 61.92 215.28 60.15 218.33 61.92 215.28 54.46"/><polygon class="cls-8" points="215.28 111.56 212.24 104.1 215.28 105.87 218.33 104.1 215.28 111.56"/><line class="cls-7" x1="208.47" y1="111.63" x2="222.1" y2="111.63"/><text class="cls-6" transform="matrix(-0.02, 1, -1, -0.02, 221.41, 69.96)">5<tspan x="6.13" y="0"> </tspan><tspan x="9.18" y="0">i</tspan><tspan x="12.54" y="0">n</tspan><tspan x="19.18" y="0">.</tspan><tspan x="22.56" y="0"> </tspan></text><line class="cls-26" x1="157.53" y1="53.93" x2="157.53" y2="44.27"/><line class="cls-26" x1="160.87" y1="49.1" x2="190.34" y2="49.1"/><polygon class="cls-8" points="157.62 49.1 162.2 50.97 161.11 49.1 162.2 47.23 157.62 49.1"/><polygon class="cls-8" points="193.59 49.1 189.01 50.97 190.1 49.1 189.01 47.23 193.59 49.1"/><line class="cls-26" x1="193.63" y1="53.93" x2="193.63" y2="44.27"/><text class="cls-6" transform="matrix(1, 0.01, -0.01, 1, 162.26, 44.69)">3<tspan x="6.13" y="0"> </tspan><tspan x="9.18" y="0">i</tspan><tspan x="12.54" y="0">n</tspan><tspan x="19.18" y="0">.</tspan><tspan x="22.56" y="0"> </tspan></text><text class="cls-6" transform="matrix(1, 0.01, -0.01, 1, 162.9, 643.11)">9<tspan x="6.13" y="0"> </tspan><tspan x="9.18" y="0">i</tspan><tspan x="12.54" y="0">n</tspan><tspan x="19.18" y="0">.</tspan><tspan x="22.56" y="0"> </tspan></text><text class="cls-6" transform="matrix(1, 0.01, -0.01, 1, 484.55, 754.22)">2<tspan x="6.12" y="0">.</tspan><tspan x="9.49" y="0">8</tspan><tspan x="15.6" y="0"> </tspan><tspan x="18.67" y="0">f</tspan><tspan x="22.3" y="0">t</tspan><tspan x="25.91" y="0">.</tspan><tspan x="29.29" y="0"> </tspan></text><text class="cls-27" transform="matrix(1.27, 0.01, -0.01, 1, 792.41, 10.65)">2</text><text class="cls-27" transform="matrix(1.27, 0.01, -0.01, 1, 800.58, 10.69)"> </text><text class="cls-27" transform="matrix(1.27, 0.01, -0.01, 1, 804.67, 10.71)">f</text><text class="cls-27" transform="matrix(1.27, 0.01, -0.01, 1, 809.5, 10.73)">t<tspan x="3.81" y="0">.</tspan></text><text class="cls-6" transform="matrix(-0.02, 1, -1, -0.02, 934.71, 488.71)">2<tspan x="6.12" y="0">.</tspan><tspan x="9.49" y="0">5</tspan><tspan x="15.6" y="0"> </tspan><tspan x="18.67" y="0">f</tspan><tspan x="22.3" y="0">t</tspan><tspan x="25.91" y="0">.</tspan><tspan x="29.29" y="0"> </tspan></text><text class="cls-6" transform="matrix(-0.02, 1, -1, -0.02, 936.39, 662.02)">1<tspan x="6.13" y="0"> </tspan><tspan x="9.18" y="0">i</tspan><tspan x="12.54" y="0">n</tspan><tspan x="19.18" y="0">.</tspan><tspan x="22.56" y="0"> </tspan></text></svg>