<svg xmlns="http://www.w3.org/2000/svg" viewBox="0 0 363.09 406.16"><defs><style>.cls-1,.cls-2,.cls-3,.cls-4,.cls-5,.cls-6,.cls-8,.cls-9{fill:none;stroke:#231f20;stroke-miterlimit:10;}.cls-1{stroke-width:0.78px;}.cls-2{stroke-width:0.39px;}.cls-3{stroke-width:0.06px;}.cls-4{stroke-width:0.16px;}.cls-5{stroke-width:0.18px;}.cls-6{stroke-width:0.1px;}.cls-10,.cls-12,.cls-7{fill:#231f20;}.cls-8{stroke-width:0.09px;}.cls-9{stroke-width:0.09px;}.cls-10{font-size:8px;}.cls-10,.cls-12{font-family:MyriadPro-Regular, Myriad Pro;}.cls-11{letter-spacing:-0.09em;}.cls-12{font-size:14px;}</style></defs><title>Blueprint</title><g id="pockets"><path class="cls-1" d="M191,355.83h-2.94c-1.55,0-2.81-1.59-2.81-3.55V210.61a1.5,1.5,0,0,1,1.3-1.64h6a1.47,1.47,0,0,1,1.3,1.64c-.38,2.09-1,136.23,0,141.67C193.82,354.24,192.56,355.83,191,355.83Z"/><path class="cls-2" d="M184,352.16h-1.29c-.68,0-1.23-.91-1.23-2V269c0-.52.25-.94.57-.94h2.61c.31,0,.57.4.57.94-.17,1.2-.46,78,0,81.08C185.25,351.25,184.7,352.16,184,352.16Z"/><polygon class="cls-3" points="184.69 268.11 185.18 268.11 185.18 244.89 184.2 244.89 184.69 268.11"/><path class="cls-4" d="M185.55,209.91c.32-1.5,3.53-.93,3.53-.93V46.51c0-.54-.79-1-1.77-1h0c-1,0-1.77.44-1.77,1Z"/><rect class="cls-5" x="187.79" y="293.01" width="3.49" height="16.88" rx="1.1" ry="1.1"/><rect class="cls-6" x="169.27" y="336.03" width="11.91" height="9.92"/><line class="cls-6" x1="172.81" y1="356.65" x2="169.89" y2="356.65"/><polygon class="cls-7" points="170.18 356.28 170.02 356.65 170.18 357.02 169.3 356.65 170.18 356.28"/><line class="cls-6" x1="180.88" y1="356.65" x2="177.85" y2="356.65"/><polygon class="cls-7" points="180.6 356.28 180.76 356.65 180.6 357.02 181.48 356.65 180.6 356.28"/><line class="cls-8" x1="169.27" y1="357.81" x2="169.27" y2="355.53"/><line class="cls-9" x1="181.5" y1="357.81" x2="181.5" y2="355.49"/><text class="cls-10" transform="translate(172.81 358.63) scale(0.49 1)">1.5<tspan class="cls-11" x="9.86" y="0">”</tspan></text><text class="cls-12" transform="translate(169 402.66)">Side</text></g></svg>