<svg xmlns="http://www.w3.org/2000/svg" xmlns:xlink="http://www.w3.org/1999/xlink" viewBox="0 0 362.46 434.15"><defs><style>.cls-1,.cls-10,.cls-11,.cls-12,.cls-13,.cls-14,.cls-15,.cls-16,.cls-17,.cls-18,.cls-19,.cls-2,.cls-20,.cls-21,.cls-22,.cls-23,.cls-24,.cls-25,.cls-26,.cls-27,.cls-28,.cls-34,.cls-38,.cls-40,.cls-41,.cls-6,.cls-7,.cls-8,.cls-9{fill:none;}.cls-1,.cls-10,.cls-11,.cls-12,.cls-13,.cls-14,.cls-15,.cls-16,.cls-17,.cls-18,.cls-19,.cls-2,.cls-20,.cls-21,.cls-22,.cls-23,.cls-24,.cls-25,.cls-26,.cls-27,.cls-28,.cls-29,.cls-3,.cls-30,.cls-33,.cls-34,.cls-37,.cls-38,.cls-39,.cls-40,.cls-41,.cls-6,.cls-7,.cls-8,.cls-9{stroke:#231f20;stroke-miterlimit:10;}.cls-1{stroke-width:0.18px;}.cls-2,.cls-3{stroke-width:0.52px;}.cls-29,.cls-3,.cls-30,.cls-4{fill:#fff;}.cls-5{fill:url(#linear-gradient);}.cls-6{stroke-width:0.86px;}.cls-27,.cls-7{stroke-width:0.22px;}.cls-7{stroke-dasharray:1.03 1.03;}.cls-10,.cls-8,.cls-9{stroke-width:0.43px;}.cls-9{stroke-dasharray:1.72 1.72;}.cls-10{stroke-dasharray:1.7 1.7;}.cls-11{stroke-width:0.21px;stroke-dasharray:1.02;}.cls-12,.cls-13,.cls-14{stroke-width:0.09px;}.cls-13{stroke-dasharray:1 1;}.cls-14{stroke-dasharray:0.99 0.99;}.cls-15,.cls-16,.cls-17{stroke-width:0.11px;}.cls-16{stroke-dasharray:1.64 1.64;}.cls-17{stroke-dasharray:1.57 1.57;}.cls-18,.cls-19,.cls-20,.cls-23{stroke-width:0.07px;}.cls-19{stroke-dasharray:0.95 0.95;}.cls-20{stroke-dasharray:0.91 0.91;}.cls-21{stroke-width:0.21px;}.cls-22{stroke-width:0.05px;}.cls-23{stroke-dasharray:0.92;}.cls-24{stroke-width:0.22px;}.cls-25{stroke-width:0.19px;}.cls-26{stroke-width:0.18px;}.cls-28{stroke-width:0.21px;stroke-dasharray:1.01;}.cls-29{stroke-width:0.06px;}.cls-30{stroke-width:0.01px;}.cls-31{font-size:8px;}.cls-31,.cls-33,.cls-35,.cls-37,.cls-39,.cls-42,.cls-44{fill:#231f20;}.cls-31,.cls-42,.cls-44{font-family:MyriadPro-Regular, Myriad Pro;}.cls-32{letter-spacing:-0.09em;}.cls-33,.cls-38{stroke-width:0.25px;}.cls-34{stroke-width:0.45px;}.cls-36{letter-spacing:-0.09em;}.cls-37{stroke-width:0.22px;}.cls-39{stroke-width:0.16px;}.cls-40{stroke-width:0.5px;}.cls-41{stroke-width:0.47px;}.cls-42{font-size:2.17px;}.cls-43{letter-spacing:-0.09em;}.cls-44{font-size:14px;}.cls-45{letter-spacing:-0.03em;}.cls-46{letter-spacing:-0.01em;}.cls-47{letter-spacing:0em;}</style><linearGradient id="linear-gradient" x1="-127.64" y1="72.06" x2="-127.64" y2="69.97" gradientTransform="translate(-56.76 184.43) rotate(-90)" gradientUnits="userSpaceOnUse"><stop offset="0" stop-color="#58595b"/><stop offset="0.22" stop-color="#5a5b5d"/><stop offset="0.3" stop-color="#616264"/><stop offset="0.35" stop-color="#6c6d6f"/><stop offset="0.4" stop-color="#7d7e80"/><stop offset="0.44" stop-color="#939496"/><stop offset="0.47" stop-color="#aeafb1"/><stop offset="0.5" stop-color="#cdcfd0"/><stop offset="0.51" stop-color="#d1d3d4"/><stop offset="0.51" stop-color="#c2c4c5"/><stop offset="0.53" stop-color="#a8a9ab"/><stop offset="0.55" stop-color="#929396"/><stop offset="0.57" stop-color="#818285"/><stop offset="0.59" stop-color="#767779"/><stop offset="0.63" stop-color="#6f7073"/><stop offset="0.73" stop-color="#6d6e71"/><stop offset="1" stop-color="#58595b"/></linearGradient></defs><title>Blueprint</title><g id="pockets"><circle class="cls-1" cx="96.91" cy="435.21" r="1.06"/><path class="cls-2" d="M332.9,321.66s15.36-3.61,15.92-4.32.53-6.06.16-7.28a2.55,2.55,0,0,0-2.22-1.87c-1-.18-15.82-3.52-15.82-3.52l-89.25.28v17.13Z"/><path class="cls-2" d="M155.77,76.55s-3.61-23.34-4.32-24.19-6.06-.81-7.28-.24-1.69,1.83-1.87,3.37-3.53,24-3.53,24l.28,135.61h17.13Z"/><path class="cls-2" d="M240.82,76.55s-3.61-23.33-4.32-24.19-6.06-.8-7.28-.24-1.69,1.83-1.87,3.37-3.52,24-3.52,24l.28,135.61h17.13Z"/><path class="cls-3" d="M15.88,299.49H30.19c1.29,0,4.36,1.9,4.45,3.62L33.08,303a4.46,4.46,0,0,0-3.75-2.22c-1.89,0-7.66.1-10.69.1a3.94,3.94,0,0,0-3.5,2.22.61.61,0,0,0-.49-.27h-.79a.59.59,0,0,0-.46.23v-1.17C13.4,300.22,13.92,299.49,15.88,299.49Z"/><path class="cls-3" d="M33.94,320.81c0,2.11-.43,3.44-2.11,3.44H16.1c-2.3,0-2.7-1.38-2.7-2.65V321a.59.59,0,0,0,.46.23h.79a.6.6,0,0,0,.19,0c.67,1.15,2.72,1.91,4.32,1.9,1.94,0,9.82.11,11.61-.51a2.71,2.71,0,0,0,1.87-1.86A4.49,4.49,0,0,0,33.94,320.81Z"/><path class="cls-3" d="M13.86,302.87h.79a.61.61,0,0,1,.49.27,4.9,4.9,0,0,0-.41.95l-.15,6.9a1.94,1.94,0,0,0,0,1.2c0,.86,0,6.69,0,8.27a1.52,1.52,0,0,0,.22.78.6.6,0,0,1-.19,0h-.79a.59.59,0,0,1-.46-.23v-18A.59.59,0,0,1,13.86,302.87Z"/><path class="cls-3" d="M34.64,303.19a.76.76,0,0,0,0-.08"/><path class="cls-3" d="M41.4,302.87l7,.07s.18.61,3.68.15a5.78,5.78,0,0,1,2.83.17l84.08.11v17.81l-84.13-.24-2.19.35s-4.62-.92-5.77-.31l-6.51.92s-.73.24-2.63-1.18a5.72,5.72,0,0,1-2.45-.12c-.74-.38-1.13.62-1.41.22a4.49,4.49,0,0,1-1.29,0,41.11,41.11,0,0,1-.17-7.25.24.24,0,0,1,0,0,5.68,5.68,0,0,0,1.18-.1s1.62-.09,1.62-1.47-.36-1.56-1.21-1.56l-1.48.16a.12.12,0,0,0,0,0c.2-3.95.48-7.44.48-7.44l1.56.07C36.94,303.19,41,303.27,41.4,302.87Z"/><path class="cls-3" d="M34.14,310.28,18.64,312a6.62,6.62,0,0,1-4-1.08,1.52,1.52,0,0,0-.09,2.94c2.11.07,2-.49,4.69-.53,5.43-.07,13.72.26,14.47,0,0,0,1.62-.09,1.62-1.47S35,310.28,34.14,310.28Z"/><path class="cls-4" d="M13.86,302.87h.79a.61.61,0,0,1,.49.27.93.93,0,0,1,.16.53v16.8a.81.81,0,0,1-.46.77.6.6,0,0,1-.19,0h-.79a.59.59,0,0,1-.46-.23.91.91,0,0,1-.2-.58v-16.8a.91.91,0,0,1,.2-.58A.59.59,0,0,1,13.86,302.87Z"/><path class="cls-5" d="M13.86,302.87h.79a.61.61,0,0,1,.49.27.93.93,0,0,1,.16.53v16.8a.81.81,0,0,1-.46.77.6.6,0,0,1-.19,0h-.79a.59.59,0,0,1-.46-.23.91.91,0,0,1-.2-.58v-16.8a.91.91,0,0,1,.2-.58A.59.59,0,0,1,13.86,302.87Z"/><path class="cls-2" d="M13.86,302.87h.79a.61.61,0,0,1,.49.27.93.93,0,0,1,.16.53v16.8a.81.81,0,0,1-.46.77.6.6,0,0,1-.19,0h-.79a.59.59,0,0,1-.46-.23.91.91,0,0,1-.2-.58v-16.8a.91.91,0,0,1,.2-.58A.59.59,0,0,1,13.86,302.87Z"/><path class="cls-3" d="M44.11,320.77a7.23,7.23,0,0,1-.3,2.33s-5.49-.06-5.72-.39a5.43,5.43,0,0,1-.48-1,54.12,54.12,0,0,1,1-19S38.74,301,40,301h4.33s.47-.06.75.6.49,1.08.49,1.08S43.35,317.41,44.11,320.77Z"/><path class="cls-6" d="M140.49,215.16h99.72a1.37,1.37,0,0,1,1.37,1.37V349.93A12.08,12.08,0,0,1,229.5,362H151.2a12.08,12.08,0,0,1-12.08-12.08V216.52A1.37,1.37,0,0,1,140.49,215.16Z"/><path class="cls-7" d="M229.74,361.67h-78.3a12.08,12.08,0,0,1-12.08-12.08V216.18a1.37,1.37,0,0,1,1.37-1.37h99.72a1.37,1.37,0,0,1,1.37,1.37V349.59A12.08,12.08,0,0,1,229.74,361.67Z"/><polyline class="cls-8" points="237.32 274.29 238.18 274.29 238.18 275.15"/><path class="cls-9" d="M238.18,276.87V347a11.35,11.35,0,0,1-11.35,11.35H154.25A11.34,11.34,0,0,1,142.9,347V275.68"/><polyline class="cls-8" points="142.9 274.82 142.9 273.96 143.76 273.96"/><line class="cls-10" x1="145.46" y1="273.97" x2="236.47" y2="274.29"/><path class="cls-11" d="M237.92,273.46V218.77H142.64v54.36"/><line class="cls-12" x1="236.08" y1="273.96" x2="236.08" y2="273.45"/><line class="cls-13" x1="236.08" y1="272.45" x2="236.08" y2="238.96"/><polyline class="cls-12" points="236.08 238.46 236.08 237.96 235.58 237.96"/><line class="cls-14" x1="234.59" y1="237.96" x2="145.61" y2="237.96"/><polyline class="cls-12" points="145.11 237.96 144.61 237.96 144.61 238.46"/><line class="cls-13" x1="144.61" y1="239.46" x2="144.61" y2="272.95"/><line class="cls-12" x1="144.61" y1="273.45" x2="144.61" y2="273.96"/><line class="cls-15" x1="150.24" y1="273.96" x2="150.24" y2="273.19"/><line class="cls-16" x1="150.24" y1="271.55" x2="150.24" y2="252.66"/><polyline class="cls-15" points="150.24 251.84 150.24 251.07 151.01 251.07"/><line class="cls-17" x1="152.58" y1="251.07" x2="180.06" y2="251.07"/><polyline class="cls-15" points="180.84 251.07 181.61 251.07 181.61 251.84"/><line class="cls-16" x1="181.61" y1="253.48" x2="181.61" y2="272.37"/><line class="cls-15" x1="181.61" y1="273.19" x2="181.61" y2="273.96"/><line class="cls-18" x1="187.76" y1="273.96" x2="187.76" y2="273.49"/><line class="cls-19" x1="187.76" y1="272.54" x2="187.76" y2="252.01"/><polyline class="cls-18" points="187.76 251.53 187.76 251.07 188.22 251.07"/><line class="cls-20" x1="189.13" y1="251.07" x2="230.52" y2="251.07"/><polyline class="cls-18" points="230.97 251.07 231.43 251.07 231.43 251.53"/><line class="cls-19" x1="231.43" y1="252.49" x2="231.43" y2="273.02"/><line class="cls-18" x1="231.43" y1="273.49" x2="231.43" y2="273.96"/><rect class="cls-21" x="144.75" y="220.62" width="35.17" height="15.6"/><rect class="cls-21" x="200.91" y="220.62" width="35.17" height="15.6"/><rect class="cls-22" x="163.98" y="339.16" width="54.54" height="9.92"/><polygon class="cls-23" points="187.65 280.59 185.19 280.59 149.34 280.59 149.34 335.04 185.19 335.04 187.65 335.04 231.74 335.04 231.74 280.59 187.65 280.59"/><polygon class="cls-24" points="185.28 280.59 185.19 280.59 149.34 280.59 149.34 286.24 185.19 286.24 185.28 286.24 231.74 286.24 231.74 280.59 185.28 280.59"/><circle class="cls-25" cx="235.45" cy="276.55" r="1.6"/><circle class="cls-25" cx="235.45" cy="276.55" r="1.6"/><circle class="cls-8" cx="235.45" cy="276.55" r="1.3"/><circle class="cls-25" cx="229.83" cy="354.96" r="1.6"/><circle class="cls-8" cx="229.83" cy="354.96" r="1.3"/><circle class="cls-25" cx="151.85" cy="355.4" r="1.6"/><circle class="cls-8" cx="151.85" cy="355.4" r="1.3"/><path class="cls-12" d="M193.3,317.88h-5.24l-.12,0a.73.73,0,0,1,.07-.1l1.9-2a.39.39,0,0,1,.25-.11h6.72a.74.74,0,0,0,.82-.82q0-3.58,0-7.17a.73.73,0,0,0-.81-.82H193.7s-.1-.11-.08-.13q.49-1,1-1.94a.27.27,0,0,1,.2-.12h3.69a1.42,1.42,0,0,1,1.42,1.4c0,.69,0,1.38,0,2.08a.24.24,0,0,0,.16.16c.3,0,.6,0,.89.06a1.42,1.42,0,0,1,1.14,1.42q0,1.5,0,3a1.46,1.46,0,0,1-1.44,1.45c-.24,0-.59-.08-.71,0s0,.47,0,.72c0,.48,0,1,0,1.43a1.46,1.46,0,0,1-1.48,1.48Z"/><path class="cls-12" d="M187.69,316.81l.65-2c.26-.78.51-1.55.76-2.33,0,0-.05-.11-.08-.11h-2.84s-.09-.09-.08-.12q1.09-3.19,2.2-6.37a.28.28,0,0,1,.2-.15h4.69c.13,0,.16,0,.1.15q-.89,1.71-1.76,3.43s0,.11.07.11l2.87,0,.16,0a.82.82,0,0,1-.07.1l-6.72,7.08Z"/><path class="cls-12" d="M180.82,311.26q0,1.77,0,3.55a.75.75,0,0,0,.85.85H187s.12.11.11.15q-.31,1-.64,1.95a.22.22,0,0,1-.16.12h-6.29a1.47,1.47,0,0,1-1.45-1.46q0-5.17,0-10.34a1.42,1.42,0,0,1,1.43-1.43h7c.15,0,.2,0,.14.19-.22.62-.43,1.25-.66,1.87a.24.24,0,0,1-.18.13h-4.72a.74.74,0,0,0-.81.81Q180.82,309.45,180.82,311.26Z"/><circle class="cls-25" cx="145.4" cy="276.92" r="1.6"/><circle class="cls-25" cx="145.4" cy="276.92" r="1.6"/><circle class="cls-8" cx="145.4" cy="276.92" r="1.3"/><circle class="cls-25" cx="145.03" cy="347.2" r="1.6"/><circle class="cls-25" cx="145.03" cy="347.2" r="1.6"/><circle class="cls-8" cx="145.03" cy="347.2" r="1.3"/><circle class="cls-25" cx="235.42" cy="347.48" r="1.6"/><circle class="cls-25" cx="235.42" cy="347.48" r="1.6"/><circle class="cls-8" cx="235.42" cy="347.48" r="1.3"/><ellipse class="cls-26" cx="146.75" cy="240.17" rx="1.09" ry="1.12"/><ellipse class="cls-26" cx="234.04" cy="239.99" rx="1.09" ry="1.12"/><circle class="cls-27" cx="323.48" cy="313.86" r="1.23"/><circle class="cls-27" cx="316.25" cy="313.86" r="1.23"/><circle class="cls-27" cx="309.02" cy="313.86" r="1.23"/><circle class="cls-27" cx="301.78" cy="313.86" r="1.23"/><line class="cls-28" x1="237.9" y1="274.29" x2="237.85" y2="274.29"/><line class="cls-29" x1="195.66" y1="228.28" x2="195.65" y2="228.28"/><path class="cls-30" d="M185.42,230.72h0"/><path class="cls-30" d="M185.4,228.69a.23.23,0,0,0,0,0"/><text class="cls-31" transform="translate(259.99 134.95)">8<tspan class="cls-32" x="4.1" y="0">”</tspan></text><line class="cls-33" x1="266.51" y1="51.71" x2="259.57" y2="51.71"/><line class="cls-33" x1="266.4" y1="215.16" x2="259.46" y2="215.16"/><line class="cls-34" x1="263.58" y1="291.65" x2="263.58" y2="359.31"/><polygon class="cls-35" points="261.92 358.05 263.58 358.76 265.25 358.05 263.58 362 261.92 358.05"/><line class="cls-34" x1="263.58" y1="218" x2="263.58" y2="284.28"/><polygon class="cls-35" points="261.92 219.26 263.58 218.55 265.25 219.26 263.58 215.32 261.92 219.26"/><text class="cls-31" transform="translate(256.16 289.94)">12.5<tspan class="cls-36" x="13.97" y="0">”</tspan></text><line class="cls-37" x1="266.82" y1="215.16" x2="260.58" y2="215.16"/><line class="cls-37" x1="266.7" y1="362" x2="260.47" y2="362"/><line class="cls-38" x1="140.84" y1="368.35" x2="185.31" y2="368.35"/><polygon class="cls-35" points="141.54 369.28 141.15 368.35 141.54 367.43 139.35 368.35 141.54 369.28"/><text class="cls-31" transform="translate(185.22 370.39)">8.5<tspan class="cls-32" x="9.86" y="0">”</tspan></text><line class="cls-39" x1="139.02" y1="366.17" x2="139.02" y2="370.53"/><line class="cls-39" x1="241.8" y1="365.87" x2="241.8" y2="370.23"/><path class="cls-38" d="M241.8,368.35h-1.49"/><polygon class="cls-35" points="239.61 369.28 240 368.35 239.61 367.43 241.8 368.35 239.61 369.28"/><line class="cls-40" x1="263.04" y1="54.7" x2="263.04" y2="127.12"/><polygon class="cls-35" points="261.19 56.1 263.04 55.31 264.89 56.1 263.04 51.71 261.19 56.1"/><line class="cls-40" x1="263.04" y1="138.68" x2="263.04" y2="212.17"/><polygon class="cls-35" points="261.19 210.77 263.04 211.56 264.89 210.77 263.04 215.16 261.19 210.77"/><line class="cls-40" x1="70.86" y1="377.58" x2="16.46" y2="377.58"/><polygon class="cls-35" points="17.87 375.73 17.08 377.58 17.87 379.44 13.48 377.58 17.87 375.73"/><line class="cls-40" x1="133.89" y1="377.58" x2="81.04" y2="377.58"/><polygon class="cls-35" points="132.49 375.73 133.27 377.58 132.49 379.44 136.88 377.58 132.49 375.73"/><line class="cls-40" x1="13.21" y1="373.91" x2="13.21" y2="381.3"/><line class="cls-40" x1="137.15" y1="373.89" x2="137.15" y2="381.28"/><text class="cls-31" transform="translate(70.47 380.44)">12<tspan class="cls-36" x="8.21" y="0">”</tspan></text><line class="cls-41" x1="291.4" y1="377.57" x2="244.1" y2="377.57"/><polygon class="cls-35" points="245.41 375.84 244.68 377.57 245.41 379.3 241.31 377.57 245.41 375.84"/><line class="cls-41" x1="346.23" y1="377.57" x2="300.28" y2="377.57"/><polygon class="cls-35" points="344.92 375.84 345.65 377.57 344.92 379.3 349.02 377.57 344.92 375.84"/><line class="cls-40" x1="241.04" y1="373.9" x2="241.04" y2="381.29"/><line class="cls-41" x1="349.25" y1="373.88" x2="349.25" y2="381.27"/><text class="cls-31" transform="translate(292.31 378.62)">11<tspan class="cls-36" x="8.21" y="0">”</tspan></text><line class="cls-12" x1="24.89" y1="296.36" x2="35.35" y2="296.36"/><line class="cls-12" x1="13.21" y1="296.36" x2="22.64" y2="296.36"/><line class="cls-12" x1="35.35" y1="295.71" x2="35.35" y2="297.03"/><line class="cls-12" x1="13.21" y1="295.65" x2="13.21" y2="297.03"/><text class="cls-42" transform="translate(23.08 297.03)">2<tspan class="cls-43" x="1.11" y="0">”</tspan></text><text class="cls-44" transform="translate(164.28 430.65)"><tspan class="cls-45">F</tspan><tspan class="cls-46" x="6.45" y="0">r</tspan><tspan x="10.89" y="0">o</tspan><tspan class="cls-47" x="18.58" y="0">n</tspan><tspan x="26.29" y="0">t </tspan></text></g></svg>