<svg xmlns="http://www.w3.org/2000/svg" xmlns:xlink="http://www.w3.org/1999/xlink" viewBox="0 0 363.09 406.16"><defs><style>.cls-1,.cls-11,.cls-12,.cls-13,.cls-15,.cls-17,.cls-18,.cls-19,.cls-20,.cls-21,.cls-24,.cls-6,.cls-7,.cls-8,.cls-9{fill:none;}.cls-1,.cls-10,.cls-11,.cls-12,.cls-13,.cls-14,.cls-15,.cls-16,.cls-17,.cls-18,.cls-19,.cls-2,.cls-20,.cls-21,.cls-24,.cls-26,.cls-3,.cls-6,.cls-7,.cls-8,.cls-9{stroke:#231f20;stroke-miterlimit:10;}.cls-1{stroke-width:0.18px;}.cls-10,.cls-14,.cls-16,.cls-2,.cls-26,.cls-3,.cls-4{fill:#fff;}.cls-11,.cls-2{stroke-width:0.86px;}.cls-3{stroke-width:0.31px;}.cls-5{fill:url(#linear-gradient);}.cls-10,.cls-6{stroke-width:0.28px;}.cls-15,.cls-18,.cls-19,.cls-20,.cls-21,.cls-7,.cls-8{stroke-width:0.1px;}.cls-8{stroke-dasharray:1.08 1.08;}.cls-9{stroke-width:0.52px;}.cls-12,.cls-13{stroke-width:0.22px;}.cls-12{stroke-dasharray:1.03 1.03;}.cls-14{stroke-width:0.87px;}.cls-15{stroke-dasharray:0.99 0.99;}.cls-16{stroke-width:0.08px;}.cls-17{stroke-width:0.22px;stroke-dasharray:1.04;}.cls-18{stroke-dasharray:0.95 0.95;}.cls-19{stroke-dasharray:0.87 0.87;}.cls-20{stroke-dasharray:0.91 0.91;}.cls-21{stroke-dasharray:0.89 0.89;}.cls-22{font-size:8px;}.cls-22,.cls-25,.cls-27{fill:#231f20;}.cls-22,.cls-27{font-family:MyriadPro-Regular, Myriad Pro;}.cls-23{letter-spacing:-0.09em;}.cls-24{stroke-width:0.51px;}.cls-26{stroke-width:0.53px;}.cls-27{font-size:14px;}</style><linearGradient id="linear-gradient" x1="-578.52" y1="-383.72" x2="-578.52" y2="-385.82" gradientTransform="translate(398.77 -269.84) rotate(-90)" gradientUnits="userSpaceOnUse"><stop offset="0" stop-color="#58595b"/><stop offset="0.22" stop-color="#5a5b5d"/><stop offset="0.3" stop-color="#616264"/><stop offset="0.35" stop-color="#6c6d6f"/><stop offset="0.4" stop-color="#7d7e80"/><stop offset="0.44" stop-color="#939496"/><stop offset="0.47" stop-color="#aeafb1"/><stop offset="0.5" stop-color="#cdcfd0"/><stop offset="0.51" stop-color="#d1d3d4"/><stop offset="0.51" stop-color="#c2c4c5"/><stop offset="0.53" stop-color="#a8a9ab"/><stop offset="0.55" stop-color="#929396"/><stop offset="0.57" stop-color="#818285"/><stop offset="0.59" stop-color="#767779"/><stop offset="0.63" stop-color="#6f7073"/><stop offset="0.73" stop-color="#6d6e71"/><stop offset="1" stop-color="#58595b"/></linearGradient></defs><title>Blueprint</title><g id="pockets"><circle class="cls-1" cx="97.54" cy="-1.06" r="1.06"/><path class="cls-2" d="M44,317.42a7.25,7.25,0,0,1-.3,2.34s-5.51-.06-5.74-.39a5.45,5.45,0,0,1-.48-1,54.33,54.33,0,0,1,1-19.1s.16-1.62,1.46-1.62h4.35s.47-.06.76.6.49,1.08.49,1.08S43.21,314,44,317.42Z"/><path class="cls-3" d="M15.63,296.06H30c1.3,0,4.37,1.91,4.47,3.63l-1.56-.07a4.48,4.48,0,0,0-3.76-2.23c-1.89,0-7.69.1-10.73.1a4,4,0,0,0-3.51,2.22.61.61,0,0,0-.49-.28h-.79a.59.59,0,0,0-.46.23V298.5C13.15,296.79,13.67,296.06,15.63,296.06Z"/><path class="cls-3" d="M33.76,317.46c0,2.12-.43,3.45-2.12,3.45H15.86c-2.3,0-2.71-1.39-2.71-2.66v-.55a.59.59,0,0,0,.46.23h.79a.6.6,0,0,0,.19,0c.67,1.16,2.73,1.92,4.34,1.9,1.95,0,9.86.11,11.66-.51a2.72,2.72,0,0,0,1.88-1.87A4.51,4.51,0,0,0,33.76,317.46Z"/><path class="cls-4" d="M13.61,299.45h.79a.61.61,0,0,1,.49.28.93.93,0,0,1,.16.54v16.86a.81.81,0,0,1-.46.78.6.6,0,0,1-.19,0h-.79a.59.59,0,0,1-.46-.23.91.91,0,0,1-.2-.58V300.26a.91.91,0,0,1,.2-.58A.59.59,0,0,1,13.61,299.45Z"/><path class="cls-5" d="M13.61,299.45h.79a.61.61,0,0,1,.49.28.93.93,0,0,1,.16.54v16.86a.81.81,0,0,1-.46.78.6.6,0,0,1-.19,0h-.79a.59.59,0,0,1-.46-.23.91.91,0,0,1-.2-.58V300.26a.91.91,0,0,1,.2-.58A.59.59,0,0,1,13.61,299.45Z"/><path class="cls-6" d="M13.61,299.45h.79a.61.61,0,0,1,.49.28.93.93,0,0,1,.16.54v16.86a.81.81,0,0,1-.46.78.6.6,0,0,1-.19,0h-.79a.59.59,0,0,1-.46-.23.91.91,0,0,1-.2-.58V300.26a.91.91,0,0,1,.2-.58A.59.59,0,0,1,13.61,299.45Z"/><line class="cls-7" x1="240.21" y1="301.53" x2="240.21" y2="302.05"/><line class="cls-8" x1="240.21" y1="303.12" x2="240.2" y2="317.67"/><line class="cls-7" x1="240.2" y1="318.21" x2="240.2" y2="318.72"/><path class="cls-9" d="M156.05,72.28S152.43,48.86,151.72,48s-6.09-.81-7.31-.24-1.69,1.84-1.88,3.38S139,75.28,139,75.28l.28,136.12h17.19Z"/><path class="cls-9" d="M241.42,72.28S237.79,48.86,237.08,48s-6.08-.81-7.31-.24-1.69,1.84-1.88,3.39-3.54,24.13-3.54,24.13l.28,136.12h17.19Z"/><path class="cls-10" d="M34.47,299.77a.76.76,0,0,0,0-.08"/><path class="cls-11" d="M140.71,211.41h100.1a1.37,1.37,0,0,1,1.37,1.37V346.69a12.12,12.12,0,0,1-12.12,12.12h-78.6a12.12,12.12,0,0,1-12.12-12.12V212.78A1.37,1.37,0,0,1,140.71,211.41Z"/><path class="cls-12" d="M230,358.81h-78.6a12.12,12.12,0,0,1-12.12-12.12V212.78a1.37,1.37,0,0,1,1.37-1.37H240.8a1.37,1.37,0,0,1,1.37,1.37V346.69A12.12,12.12,0,0,1,230,358.81Z"/><path class="cls-2" d="M240.2,318.72l93.65-.41s15.41-3.62,16-4.34.53-6.08.16-7.31a2.56,2.56,0,0,0-2.23-1.88c-1-.18-15.88-3.54-15.88-3.54l-91.66.28"/><circle class="cls-13" cx="324.39" cy="310.49" r="1.23"/><circle class="cls-13" cx="317.13" cy="310.49" r="1.23"/><circle class="cls-13" cx="309.87" cy="310.49" r="1.23"/><circle class="cls-13" cx="302.61" cy="310.49" r="1.23"/><path class="cls-3" d="M13.61,299.45h.79a.61.61,0,0,1,.49.28,4.92,4.92,0,0,0-.41,1l-.15,6.93a1.94,1.94,0,0,0,0,1.2c0,.86,0,6.71,0,8.3a1.52,1.52,0,0,0,.22.79.6.6,0,0,1-.19,0h-.79a.59.59,0,0,1-.46-.23v-18A.59.59,0,0,1,13.61,299.45Z"/><path class="cls-14" d="M141.27,317.82l-86-.24-2.24.36s-4.72-.92-5.9-.31l-6.65.92s-.75.24-2.69-1.18a6,6,0,0,1-2.51-.13c-.76-.38-1.15.62-1.44.22a4.68,4.68,0,0,1-1.32,0,40.5,40.5,0,0,1-.18-7.28.24.24,0,0,1,0,0,5.91,5.91,0,0,0,1.21-.1s1.66-.09,1.66-1.47S34.79,307,33.93,307l-1.51.16a.12.12,0,0,0,0,0c.2-4,.49-7.47.49-7.47l1.59.07c2.36.08,6.52.16,6.91-.24l7.19.07s.19.61,3.76.15a6,6,0,0,1,2.89.17l86,.11"/><line class="cls-4" x1="141.26" y1="299.94" x2="141.27" y2="317.82"/><line class="cls-7" x1="141.26" y1="299.94" x2="141.26" y2="300.45"/><line class="cls-15" x1="141.27" y1="301.44" x2="141.27" y2="316.81"/><line class="cls-7" x1="141.27" y1="317.3" x2="141.27" y2="317.82"/><path class="cls-16" d="M33.57,309.69,18,308a6.64,6.64,0,0,0-4,1.09,1.53,1.53,0,0,1-.09-2.95c2.12-.07,2,.5,4.71.53,5.45.07,13.78-.26,14.52,0,0,0,1.63.09,1.63,1.47S34.42,309.69,33.57,309.69Z"/><rect class="cls-17" x="148.7" y="233.11" width="84.09" height="116.82" rx="8.55" ry="8.55"/><polygon class="cls-4" points="45.48 300.18 44.5 317.19 37.53 316.72 38.35 300.34 45.48 300.18"/><polyline class="cls-7" points="45.01 300.19 45.48 300.18 45.45 300.65"/><line class="cls-18" x1="45.4" y1="301.59" x2="44.55" y2="316.26"/><polyline class="cls-7" points="44.53 316.73 44.5 317.19 44.04 317.16"/><line class="cls-19" x1="43.18" y1="317.1" x2="38.42" y2="316.78"/><polyline class="cls-7" points="37.99 316.75 37.53 316.72 37.55 316.25"/><line class="cls-20" x1="37.6" y1="315.34" x2="38.3" y2="301.26"/><polyline class="cls-7" points="38.33 300.8 38.35 300.34 38.81 300.33"/><line class="cls-21" x1="39.7" y1="300.31" x2="44.57" y2="300.2"/><text class="cls-22" transform="translate(114.77 236.54) scale(0.83 1)">8.5<tspan class="cls-23" x="9.86" y="0">”</tspan></text><line class="cls-24" x1="118.82" y1="153.07" x2="118.82" y2="228.08"/><polygon class="cls-25" points="116.94 154.5 118.82 153.7 120.7 154.5 118.82 150.03 116.94 154.5"/><line class="cls-24" x1="118.82" y1="240.04" x2="118.82" y2="316.16"/><polygon class="cls-25" points="116.94 314.73 118.82 315.53 120.7 314.73 118.82 319.19 116.94 314.73"/><path class="cls-26" d="M156.39,175.74s-3.62-24.15-4.34-25-6.09-.83-7.31-.25-1.69,1.9-1.88,3.49-3.54,24.88-3.54,24.88l.28,140.33H156.8Z"/><path class="cls-26" d="M241.76,175.73s-3.62-24.14-4.34-25-6.08-.83-7.31-.25-1.69,1.9-1.88,3.49-3.54,24.88-3.54,24.88L225,319.15h17.19Z"/><line class="cls-26" x1="156.8" y1="319.16" x2="224.98" y2="319.15"/><rect class="cls-13" x="143.48" y="72.84" width="8.5" height="64.38"/><rect class="cls-13" x="229.18" y="72.84" width="8.5" height="64.38"/><text class="cls-27" transform="translate(166.48 402.66)">Back </text></g></svg>